FiraSans-Condensed.ufo
<glyph name="exclam" format="2">
  <advance width="219"/>
  <unicode hex="0021"/>
  <outline>
    <contour>
      <point x="156" y="689" type="line"/>
      <point x="61" y="689" type="line"/>
      <point x="73" y="229" type="line"/>
      <point x="145" y="229" type="line"/>
    </contour>
    <contour>
      <point x="109" y="120" type="curve" smooth="yes"/>
      <point x="70" y="120"/>
      <point x="45" y="89"/>
      <point x="45" y="54" type="curve" smooth="yes"/>
      <point x="45" y="19"/>
      <point x="70" y="-12"/>
      <point x="109" y="-12" type="curve" smooth="yes"/>
      <point x="149" y="-12"/>
      <point x="174" y="19"/>
      <point x="174" y="54" type="curve" smooth="yes"/>
      <point x="174" y="89"/>
      <point x="149" y="120"/>
    </contour>
  </outline>
</glyph>
<glyph name="numbersign" format="2">
  <advance width="432"/>
  <unicode hex="0023"/>
  <outline>
    <contour>
      <point x="389" y="669" type="line"/>
      <point x="317" y="669" type="line"/>
      <point x="229" y="0" type="line"/>
      <point x="301" y="0" type="line"/>
    </contour>
    <contour>
      <point x="390" y="231" type="line"/>
      <point x="12" y="231" type="line"/>
      <point x="12" y="165" type="line"/>
      <point x="390" y="165" type="line"/>
    </contour>
    <contour>
      <point x="201" y="669" type="line"/>
      <point x="129" y="669" type="line"/>
      <point x="41" y="0" type="line"/>
      <point x="113" y="0" type="line"/>
    </contour>
    <contour>
      <point x="420" y="515" type="line"/>
      <point x="42" y="515" type="line"/>
      <point x="42" y="448" type="line"/>
      <point x="420" y="448" type="line"/>
    </contour>
  </outline>
</glyph>
<glyph name="dollar" format="2">
  <advance width="438"/>
  <unicode hex="0024"/>
  <outline>
    <contour>
      <point x="257" y="2" type="line"/>
      <point x="186" y="-7" type="line"/>
      <point x="186" y="-154" type="line"/>
      <point x="257" y="-154" type="line"/>
    </contour>
    <contour>
      <point x="257" y="823" type="line"/>
      <point x="186" y="823" type="line"/>
      <point x="186" y="662" type="line"/>
      <point x="257" y="664" type="line"/>
    </contour>
    <contour>
      <point x="220" y="680" type="curve" smooth="yes"/>
      <point x="117" y="680"/>
      <point x="37" y="603"/>
      <point x="37" y="507" type="curve" smooth="yes"/>
      <point x="37" y="413"/>
      <point x="89" y="356"/>
      <point x="200" y="315" type="curve" smooth="yes"/>
      <point x="292" y="281"/>
      <point x="317" y="246"/>
      <point x="317" y="184" type="curve" smooth="yes"/>
      <point x="317" y="108"/>
      <point x="273" y="61"/>
      <point x="204" y="61" type="curve" smooth="yes"/>
      <point x="146" y="61"/>
      <point x="103" y="87"/>
      <point x="62" y="125" type="curve"/>
      <point x="15" y="75" type="line"/>
      <point x="63" y="21"/>
      <point x="123" y="-12"/>
      <point x="206" y="-12" type="curve" smooth="yes"/>
      <point x="330" y="-12"/>
      <point x="407" y="80"/>
      <point x="407" y="185" type="curve" smooth="yes"/>
      <point x="407" y="303"/>
      <point x="341" y="350"/>
      <point x="246" y="386" type="curve" smooth="yes"/>
      <point x="150" y="422"/>
      <point x="126" y="456"/>
      <point x="126" y="511" type="curve" smooth="yes"/>
      <point x="126" y="569"/>
      <point x="163" y="608"/>
      <point x="221" y="608" type="curve" smooth="yes"/>
      <point x="267" y="608"/>
      <point x="304" y="590"/>
      <point x="344" y="552" type="curve"/>
      <point x="391" y="603" type="line"/>
      <point x="345" y="652"/>
      <point x="293" y="680"/>
    </contour>
  </outline>
</glyph>
<glyph name="percent" format="2">
  <advance width="694"/>
  <unicode hex="0025"/>
  <outline>
    <contour>
      <point x="509" y="710" type="line"/>
      <point x="128" y="3" type="line"/>
      <point x="187" y="-30" type="line"/>
      <point x="568" y="677" type="line"/>
    </contour>
    <contour>
      <point x="175" y="619" type="curve" smooth="yes"/>
      <point x="226" y="619"/>
      <point x="239" y="574"/>
      <point x="239" y="511" type="curve" smooth="yes"/>
      <point x="239" y="445"/>
      <point x="226" y="402"/>
      <point x="175" y="402" type="curve" smooth="yes"/>
      <point x="125" y="402"/>
      <point x="111" y="447"/>
      <point x="111" y="510" type="curve" smooth="yes"/>
      <point x="111" y="576"/>
      <point x="125" y="619"/>
    </contour>
    <contour>
      <point x="175" y="679" type="curve" smooth="yes"/>
      <point x="98" y="679"/>
      <point x="40" y="619"/>
      <point x="40" y="510" type="curve" smooth="yes"/>
      <point x="40" y="402"/>
      <point x="98" y="342"/>
      <point x="175" y="342" type="curve" smooth="yes"/>
      <point x="253" y="342"/>
      <point x="311" y="402"/>
      <point x="311" y="511" type="curve" smooth="yes"/>
      <point x="311" y="619"/>
      <point x="253" y="679"/>
    </contour>
    <contour>
      <point x="519" y="264" type="curve" smooth="yes"/>
      <point x="569" y="264"/>
      <point x="582" y="220"/>
      <point x="582" y="156" type="curve" smooth="yes"/>
      <point x="582" y="91"/>
      <point x="569" y="48"/>
      <point x="519" y="48" type="curve" smooth="yes"/>
      <point x="468" y="48"/>
      <point x="454" y="93"/>
      <point x="454" y="156" type="curve" smooth="yes"/>
      <point x="454" y="222"/>
      <point x="468" y="264"/>
    </contour>
    <contour>
      <point x="519" y="325" type="curve" smooth="yes"/>
      <point x="441" y="325"/>
      <point x="383" y="265"/>
      <point x="383" y="156" type="curve" smooth="yes"/>
      <point x="383" y="48"/>
      <point x="441" y="-12"/>
      <point x="519" y="-12" type="curve" smooth="yes"/>
      <point x="597" y="-12"/>
      <point x="654" y="48"/>
      <point x="654" y="156" type="curve" smooth="yes"/>
      <point x="654" y="265"/>
      <point x="596" y="325"/>
    </contour>
  </outline>
</glyph>
<glyph name="ampersand" format="2">
  <advance width="640"/>
  <unicode hex="0026"/>
  <outline>
    <contour>
      <point x="255" y="700" type="curve" smooth="yes"/>
      <point x="154" y="700"/>
      <point x="101" y="635"/>
      <point x="101" y="546" type="curve" smooth="yes"/>
      <point x="101" y="476"/>
      <point x="129" y="431"/>
      <point x="183" y="373" type="curve"/>
      <point x="109" y="316"/>
      <point x="67" y="260"/>
      <point x="67" y="175" type="curve" smooth="yes"/>
      <point x="67" y="63"/>
      <point x="144" y="-12"/>
      <point x="255" y="-12" type="curve" smooth="yes"/>
      <point x="331" y="-12"/>
      <point x="389" y="22"/>
      <point x="437" y="86" type="curve"/>
      <point x="516" y="-12" type="line"/>
      <point x="581" y="40" type="line"/>
      <point x="486" y="145" type="line"/>
      <point x="513" y="197"/>
      <point x="538" y="262"/>
      <point x="559" y="344" type="curve"/>
      <point x="483" y="365" type="line"/>
      <point x="469" y="296"/>
      <point x="452" y="245"/>
      <point x="434" y="196" type="curve"/>
      <point x="294" y="365" type="line"/>
      <point x="360" y="411"/>
      <point x="411" y="463"/>
      <point x="411" y="549" type="curve" smooth="yes"/>
      <point x="411" y="638"/>
      <point x="350" y="700"/>
    </contour>
    <contour>
      <point x="231" y="326" type="curve"/>
      <point x="389" y="134" type="line"/>
      <point x="354" y="85"/>
      <point x="314" y="58"/>
      <point x="261" y="58" type="curve" smooth="yes"/>
      <point x="200" y="58"/>
      <point x="158" y="98"/>
      <point x="158" y="177" type="curve" smooth="yes"/>
      <point x="158" y="242"/>
      <point x="180" y="284"/>
    </contour>
    <contour>
      <point x="256" y="636" type="curve" smooth="yes"/>
      <point x="298" y="636"/>
      <point x="326" y="611"/>
      <point x="326" y="544" type="curve" smooth="yes"/>
      <point x="326" y="483"/>
      <point x="296" y="449"/>
      <point x="247" y="410" type="curve"/>
      <point x="206" y="460"/>
      <point x="186" y="495"/>
      <point x="186" y="547" type="curve" smooth="yes"/>
      <point x="186" y="606"/>
      <point x="212" y="636"/>
    </contour>
  </outline>
</glyph>
<glyph name="quotesingle" format="2">
  <advance width="192"/>
  <unicode hex="0027"/>
  <outline>
    <contour>
      <point x="65" y="428" type="line"/>
      <point x="127" y="428" type="line"/>
      <point x="139" y="689" type="line" smooth="yes"/>
      <point x="53" y="689" type="line"/>
    </contour>
  </outline>
</glyph>
<glyph name="parenleft" format="2">
  <advance width="266"/>
  <unicode hex="0028"/>
  <outline>
    <contour>
      <point x="182" y="844" type="line"/>
      <point x="101" y="713"/>
      <point x="28" y="584"/>
      <point x="28" y="350" type="curve" smooth="yes"/>
      <point x="28" y="116"/>
      <point x="101" y="-13"/>
      <point x="182" y="-144" type="curve"/>
      <point x="238" y="-107" type="line"/>
      <point x="163" y="27"/>
      <point x="116" y="126"/>
      <point x="116" y="350" type="curve" smooth="yes"/>
      <point x="116" y="575"/>
      <point x="163" y="673"/>
      <point x="238" y="807" type="curve"/>
    </contour>
  </outline>
</glyph>
<glyph name="parenright" format="2">
  <advance width="266"/>
  <unicode hex="0029"/>
  <outline>
    <contour>
      <point x="84" y="844" type="curve"/>
      <point x="28" y="807" type="line"/>
      <point x="102" y="673"/>
      <point x="149" y="575"/>
      <point x="149" y="350" type="curve" smooth="yes"/>
      <point x="149" y="126"/>
      <point x="102" y="27"/>
      <point x="28" y="-107" type="curve"/>
      <point x="84" y="-144" type="line"/>
      <point x="165" y="-13"/>
      <point x="238" y="116"/>
      <point x="238" y="350" type="curve" smooth="yes"/>
      <point x="238" y="584"/>
      <point x="165" y="713"/>
    </contour>
  </outline>
</glyph>
<glyph name="asterisk" format="2">
  <advance width="382"/>
  <unicode hex="002A"/>
  <outline>
    <contour>
      <point x="191" y="544" type="line"/>
      <point x="186" y="513" type="line"/>
      <point x="253" y="372" type="line"/>
      <point x="324" y="411" type="line"/>
      <point x="233" y="533" type="line"/>
    </contour>
    <contour>
      <point x="232" y="739" type="line"/>
      <point x="150" y="739" type="line"/>
      <point x="165" y="570" type="line"/>
      <point x="191" y="544" type="line"/>
      <point x="217" y="570" type="line"/>
    </contour>
    <contour>
      <point x="332" y="631" type="line"/>
      <point x="210" y="573" type="line"/>
      <point x="191" y="544" type="line"/>
      <point x="225" y="527" type="line"/>
      <point x="357" y="563" type="line"/>
    </contour>
    <contour>
      <point x="50" y="630" type="line"/>
      <point x="25" y="563" type="line"/>
      <point x="157" y="527" type="line"/>
      <point x="191" y="544" type="line"/>
      <point x="173" y="573" type="line"/>
    </contour>
    <contour>
      <point x="191" y="544" type="line"/>
      <point x="150" y="534" type="line"/>
      <point x="59" y="410" type="line"/>
      <point x="129" y="372" type="line"/>
      <point x="196" y="512" type="line"/>
    </contour>
  </outline>
</glyph>
<glyph name="plus" format="2">
  <advance width="416"/>
  <unicode hex="002B"/>
  <outline>
    <contour>
      <point x="246" y="514" type="line"/>
      <point x="170" y="514" type="line"/>
      <point x="170" y="367" type="line"/>
      <point x="48" y="367" type="line"/>
      <point x="48" y="294" type="line"/>
      <point x="170" y="294" type="line"/>
      <point x="170" y="149" type="line"/>
      <point x="246" y="149" type="line"/>
      <point x="246" y="294" type="line"/>
      <point x="368" y="294" type="line"/>
      <point x="368" y="367" type="line"/>
      <point x="246" y="367" type="line"/>
    </contour>
  </outline>
</glyph>
<glyph name="comma" format="2">
  <advance width="204"/>
  <unicode hex="002C"/>
  <outline>
    <contour>
      <point x="103" y="120" type="curve" smooth="yes"/>
      <point x="66" y="120"/>
      <point x="40" y="92"/>
      <point x="40" y="55" type="curve" smooth="yes"/>
      <point x="40" y="32"/>
      <point x="52" y="12"/>
      <point x="70" y="-1" type="curve"/>
      <point x="35" y="-164" type="line"/>
      <point x="92" y="-164" type="line"/>
      <point x="146" y="-14" type="line" smooth="yes"/>
      <point x="157" y="17"/>
      <point x="164" y="35"/>
      <point x="164" y="55" type="curve" smooth="yes"/>
      <point x="164" y="92"/>
      <point x="139" y="120"/>
    </contour>
  </outline>
</glyph>
<glyph name="period" format="2">
  <advance width="209"/>
  <unicode hex="002E"/>
  <outline>
    <contour>
      <point x="104" y="120" type="curve" smooth="yes"/>
      <point x="65" y="120"/>
      <point x="40" y="89"/>
      <point x="40" y="54" type="curve" smooth="yes"/>
      <point x="40" y="19"/>
      <point x="65" y="-12"/>
      <point x="104" y="-12" type="curve" smooth="yes"/>
      <point x="144" y="-12"/>
      <point x="169" y="19"/>
      <point x="169" y="54" type="curve" smooth="yes"/>
      <point x="169" y="89"/>
      <point x="144" y="120"/>
    </contour>
  </outline>
</glyph>
<glyph name="slash" format="2">
  <advance width="427"/>
  <unicode hex="002F"/>
  <outline>
    <contour>
      <point x="275" y="806" type="line"/>
      <point x="80" y="-89" type="line"/>
      <point x="152" y="-103" type="line"/>
      <point x="347" y="792" type="line"/>
    </contour>
  </outline>
</glyph>
<glyph name="zero" format="2">
  <advance width="487"/>
  <unicode hex="0030"/>
  <outline>
    <contour>
      <point x="244" y="679" type="curve" smooth="yes"/>
      <point x="118" y="679"/>
      <point x="54" y="571"/>
      <point x="54" y="334" type="curve" smooth="yes"/>
      <point x="54" y="97"/>
      <point x="118" y="-12"/>
      <point x="244" y="-12" type="curve" smooth="yes"/>
      <point x="369" y="-12"/>
      <point x="433" y="96"/>
      <point x="433" y="334" type="curve" smooth="yes"/>
      <point x="433" y="570"/>
      <point x="369" y="679"/>
    </contour>
    <contour>
      <point x="244" y="609" type="curve" smooth="yes"/>
      <point x="309" y="609"/>
      <point x="342" y="546"/>
      <point x="342" y="334" type="curve" smooth="yes"/>
      <point x="342" y="125"/>
      <point x="309" y="58"/>
      <point x="244" y="58" type="curve" smooth="yes"/>
      <point x="178" y="58"/>
      <point x="145" y="125"/>
      <point x="145" y="334" type="curve" smooth="yes"/>
      <point x="145" y="542"/>
      <point x="178" y="609"/>
    </contour>
  </outline>
</glyph>
<glyph name="one" format="2">
  <advance width="358"/>
  <unicode hex="0031"/>
  <outline>
    <contour>
      <point x="270" y="669" type="line"/>
      <point x="192" y="669" type="line"/>
      <point x="18" y="541" type="line"/>
      <point x="58" y="484" type="line"/>
      <point x="183" y="576" type="line"/>
      <point x="183" y="0" type="line"/>
      <point x="270" y="0" type="line"/>
    </contour>
  </outline>
</glyph>
<glyph name="two" format="2">
  <advance width="403"/>
  <unicode hex="0032"/>
  <outline>
    <contour>
      <point x="181" y="679" type="curve" smooth="yes"/>
      <point x="111" y="679"/>
      <point x="55" y="645"/>
      <point x="10" y="578" type="curve"/>
      <point x="67" y="537" type="line"/>
      <point x="102" y="583"/>
      <point x="131" y="606"/>
      <point x="175" y="606" type="curve" smooth="yes"/>
      <point x="228" y="606"/>
      <point x="262" y="570"/>
      <point x="262" y="497" type="curve" smooth="yes"/>
      <point x="262" y="386"/>
      <point x="217" y="317"/>
      <point x="23" y="70" type="curve"/>
      <point x="23" y="0" type="line"/>
      <point x="356" y="0" type="line"/>
      <point x="366" y="74" type="line"/>
      <point x="117" y="74" type="line"/>
      <point x="290" y="291"/>
      <point x="353" y="376"/>
      <point x="353" y="501" type="curve" smooth="yes"/>
      <point x="353" y="603"/>
      <point x="289" y="679"/>
    </contour>
  </outline>
</glyph>
<glyph name="three" format="2">
  <advance width="412"/>
  <unicode hex="0033"/>
  <outline>
    <contour>
      <point x="187" y="679" type="curve" smooth="yes"/>
      <point x="124" y="679"/>
      <point x="71" y="653"/>
      <point x="22" y="600" type="curve"/>
      <point x="70" y="555" type="line"/>
      <point x="103" y="592"/>
      <point x="137" y="610"/>
      <point x="178" y="610" type="curve" smooth="yes"/>
      <point x="235" y="610"/>
      <point x="272" y="574"/>
      <point x="272" y="505" type="curve" smooth="yes"/>
      <point x="272" y="422"/>
      <point x="226" y="382"/>
      <point x="163" y="382" type="curve" smooth="yes"/>
      <point x="139" y="382" type="line"/>
      <point x="129" y="317" type="line"/>
      <point x="166" y="317" type="line" smooth="yes"/>
      <point x="241" y="317"/>
      <point x="284" y="287"/>
      <point x="284" y="193" type="curve" smooth="yes"/>
      <point x="284" y="105"/>
      <point x="240" y="59"/>
      <point x="179" y="59" type="curve" smooth="yes"/>
      <point x="131" y="59"/>
      <point x="101" y="79"/>
      <point x="63" y="121" type="curve"/>
      <point x="8" y="78" type="line"/>
      <point x="56" y="17"/>
      <point x="108" y="-12"/>
      <point x="179" y="-12" type="curve" smooth="yes"/>
      <point x="299" y="-12"/>
      <point x="372" y="81"/>
      <point x="372" y="192" type="curve" smooth="yes"/>
      <point x="372" y="292"/>
      <point x="316" y="345"/>
      <point x="232" y="355" type="curve"/>
      <point x="311" y="375"/>
      <point x="355" y="425"/>
      <point x="355" y="511" type="curve" smooth="yes"/>
      <point x="355" y="601"/>
      <point x="291" y="679"/>
    </contour>
  </outline>
</glyph>
<glyph name="four" format="2">
  <advance width="443"/>
  <unicode hex="0034"/>
  <outline>
    <contour>
      <point x="193" y="679" type="line"/>
      <point x="30" y="230" type="line"/>
      <point x="30" y="166" type="line"/>
      <point x="420" y="166" type="line"/>
      <point x="420" y="236" type="line"/>
      <point x="120" y="236" type="line"/>
      <point x="268" y="651" type="line"/>
    </contour>
    <contour>
      <point x="351" y="418" type="line"/>
      <point x="277" y="418" type="line"/>
      <point x="267" y="221" type="line"/>
      <point x="267" y="0" type="line"/>
      <point x="351" y="0" type="line"/>
    </contour>
  </outline>
</glyph>
<glyph name="five" format="2">
  <advance width="422"/>
  <unicode hex="0035"/>
  <outline>
    <contour>
      <point x="365" y="669" type="line"/>
      <point x="58" y="669" type="line"/>
      <point x="58" y="334" type="line"/>
      <point x="123" y="334" type="line"/>
      <point x="149" y="350"/>
      <point x="171" y="358"/>
      <point x="200" y="358" type="curve" smooth="yes"/>
      <point x="255" y="358"/>
      <point x="295" y="326"/>
      <point x="295" y="216" type="curve" smooth="yes"/>
      <point x="295" y="112"/>
      <point x="254" y="60"/>
      <point x="187" y="60" type="curve"/>
      <point x="140" y="60"/>
      <point x="107" y="81"/>
      <point x="73" y="120" type="curve"/>
      <point x="21" y="73" type="line"/>
      <point x="67" y="20"/>
      <point x="115" y="-12"/>
      <point x="189" y="-12" type="curve"/>
      <point x="307" y="-12"/>
      <point x="386" y="81"/>
      <point x="386" y="214" type="curve" smooth="yes"/>
      <point x="386" y="348"/>
      <point x="321" y="425"/>
      <point x="228" y="425" type="curve" smooth="yes"/>
      <point x="195" y="425"/>
      <point x="170" y="417"/>
      <point x="142" y="399" type="curve"/>
      <point x="142" y="599" type="line"/>
      <point x="353" y="599" type="line"/>
    </contour>
  </outline>
</glyph>
<glyph name="six" format="2">
  <advance width="463"/>
  <unicode hex="0036"/>
  <outline>
    <contour>
      <point x="270" y="679" type="curve" smooth="yes"/>
      <point x="136" y="679"/>
      <point x="54" y="543"/>
      <point x="54" y="312" type="curve" smooth="yes"/>
      <point x="54" y="112"/>
      <point x="108" y="-12"/>
      <point x="245" y="-12" type="curve" smooth="yes"/>
      <point x="349" y="-12"/>
      <point x="425" y="71"/>
      <point x="425" y="227" type="curve" smooth="yes"/>
      <point x="425" y="370"/>
      <point x="353" y="439"/>
      <point x="272" y="439" type="curve" smooth="yes"/>
      <point x="214" y="439"/>
      <point x="164" y="406"/>
      <point x="130" y="334" type="curve"/>
      <point x="135" y="259" type="line"/>
      <point x="162" y="324"/>
      <point x="205" y="371"/>
      <point x="253" y="371" type="curve" smooth="yes"/>
      <point x="303" y="371"/>
      <point x="338" y="333"/>
      <point x="338" y="224" type="curve" smooth="yes"/>
      <point x="338" y="115"/>
      <point x="306" y="58"/>
      <point x="245" y="58" type="curve" smooth="yes"/>
      <point x="172" y="58"/>
      <point x="142" y="127"/>
      <point x="142" y="300" type="curve"/>
      <point x="141" y="328" type="line"/>
      <point x="142" y="510"/>
      <point x="191" y="609"/>
      <point x="271" y="609" type="curve" smooth="yes"/>
      <point x="301" y="609"/>
      <point x="327" y="599"/>
      <point x="352" y="581" type="curve"/>
      <point x="386" y="638" type="line"/>
      <point x="354" y="664"/>
      <point x="317" y="679"/>
    </contour>
  </outline>
</glyph>
<glyph name="seven" format="2">
  <advance width="369"/>
  <unicode hex="0037"/>
  <outline>
    <contour>
      <point x="347" y="669" type="line"/>
      <point x="18" y="669" type="line"/>
      <point x="18" y="597" type="line"/>
      <point x="260" y="597" type="line"/>
      <point x="63" y="15" type="line"/>
      <point x="141" y="-10" type="line"/>
      <point x="347" y="602" type="line"/>
    </contour>
  </outline>
</glyph>
<glyph name="eight" format="2">
  <advance width="458"/>
  <unicode hex="0038"/>
  <outline>
    <contour>
      <point x="229" y="679" type="curve" smooth="yes"/>
      <point x="138" y="679"/>
      <point x="57" y="621"/>
      <point x="57" y="507" type="curve" smooth="yes"/>
      <point x="57" y="435"/>
      <point x="86" y="384"/>
      <point x="166" y="344" type="curve"/>
      <point x="185" y="336" type="line"/>
      <point x="224" y="319" type="line" smooth="yes"/>
      <point x="307" y="283"/>
      <point x="336" y="250"/>
      <point x="336" y="177" type="curve" smooth="yes"/>
      <point x="336" y="93"/>
      <point x="297" y="56"/>
      <point x="229" y="56" type="curve" smooth="yes"/>
      <point x="164" y="56"/>
      <point x="123" y="90"/>
      <point x="123" y="176" type="curve" smooth="yes"/>
      <point x="123" y="254"/>
      <point x="149" y="303"/>
      <point x="216" y="334" type="curve"/>
      <point x="165" y="358" type="line"/>
      <point x="80" y="323"/>
      <point x="34" y="267"/>
      <point x="34" y="176" type="curve" smooth="yes"/>
      <point x="34" y="64"/>
      <point x="109" y="-12"/>
      <point x="227" y="-12" type="curve" smooth="yes"/>
      <point x="346" y="-12"/>
      <point x="424" y="63"/>
      <point x="424" y="178" type="curve" smooth="yes"/>
      <point x="424" y="266"/>
      <point x="380" y="325"/>
      <point x="285" y="364" type="curve"/>
      <point x="265" y="372" type="line"/>
      <point x="234" y="386" type="line" smooth="yes"/>
      <point x="175" y="413"/>
      <point x="142" y="438"/>
      <point x="142" y="506" type="curve" smooth="yes"/>
      <point x="142" y="587"/>
      <point x="176" y="614"/>
      <point x="229" y="614" type="curve" smooth="yes"/>
      <point x="286" y="614"/>
      <point x="317" y="583"/>
      <point x="317" y="507" type="curve" smooth="yes"/>
      <point x="317" y="444"/>
      <point x="295" y="407"/>
      <point x="233" y="370" type="curve"/>
      <point x="284" y="350" type="line"/>
      <point x="367" y="390"/>
      <point x="402" y="437"/>
      <point x="402" y="510" type="curve" smooth="yes"/>
      <point x="402" y="625"/>
      <point x="319" y="679"/>
    </contour>
  </outline>
</glyph>
<glyph name="nine" format="2">
  <advance width="446"/>
  <unicode hex="0039"/>
  <outline>
    <contour>
      <point x="320" y="332" type="curve"/>
      <point x="319" y="410" type="line"/>
      <point x="292" y="349"/>
      <point x="256" y="313"/>
      <point x="209" y="313" type="curve" smooth="yes"/>
      <point x="156" y="313"/>
      <point x="121" y="359"/>
      <point x="121" y="456" type="curve" smooth="yes"/>
      <point x="121" y="563"/>
      <point x="157" y="610"/>
      <point x="217" y="610" type="curve" smooth="yes"/>
      <point x="286" y="610"/>
      <point x="315" y="554"/>
      <point x="313" y="380" type="curve"/>
      <point x="311" y="335" type="line"/>
      <point x="305" y="168"/>
      <point x="221" y="94"/>
      <point x="76" y="44" type="curve"/>
      <point x="95" y="-22" type="line"/>
      <point x="305" y="49"/>
      <point x="401" y="142"/>
      <point x="401" y="418" type="curve" smooth="yes"/>
      <point x="401" y="584"/>
      <point x="339" y="679"/>
      <point x="216" y="679" type="curve" smooth="yes"/>
      <point x="115" y="679"/>
      <point x="33" y="606"/>
      <point x="33" y="458" type="curve" smooth="yes"/>
      <point x="33" y="325"/>
      <point x="109" y="244"/>
      <point x="191" y="244" type="curve" smooth="yes"/>
      <point x="251" y="244"/>
      <point x="295" y="282"/>
    </contour>
  </outline>
</glyph>
<glyph name="less" format="2">
  <advance width="415"/>
  <unicode hex="003C"/>
  <outline>
    <contour>
      <point x="344" y="543" type="line"/>
      <point x="37" y="377" type="line"/>
      <point x="37" y="289" type="line"/>
      <point x="344" y="122" type="line"/>
      <point x="378" y="188" type="line"/>
      <point x="107" y="333" type="line"/>
      <point x="378" y="476" type="line"/>
    </contour>
  </outline>
</glyph>
<glyph name="greater" format="2">
  <advance width="415"/>
  <unicode hex="003E"/>
  <outline>
    <contour>
      <point x="71" y="543" type="line"/>
      <point x="37" y="476" type="line"/>
      <point x="308" y="333" type="line"/>
      <point x="37" y="188" type="line"/>
      <point x="71" y="122" type="line"/>
      <point x="378" y="289" type="line"/>
      <point x="378" y="377" type="line"/>
    </contour>
  </outline>
</glyph>
<glyph name="question" format="2">
  <advance width="393"/>
  <unicode hex="003F"/>
  <outline>
    <contour>
      <point x="200" y="700" type="curve" smooth="yes"/>
      <point x="132" y="700"/>
      <point x="74" y="669"/>
      <point x="28" y="602" type="curve"/>
      <point x="82" y="560" type="line"/>
      <point x="119" y="608"/>
      <point x="153" y="628"/>
      <point x="195" y="628" type="curve" smooth="yes"/>
      <point x="245" y="628"/>
      <point x="276" y="598"/>
      <point x="276" y="546" type="curve" smooth="yes"/>
      <point x="276" y="427"/>
      <point x="132" y="443"/>
      <point x="132" y="280" type="curve" smooth="yes"/>
      <point x="132" y="229" type="line"/>
      <point x="216" y="229" type="line"/>
      <point x="216" y="275" type="line" smooth="yes"/>
      <point x="216" y="407"/>
      <point x="365" y="394"/>
      <point x="365" y="546" type="curve" smooth="yes"/>
      <point x="365" y="625"/>
      <point x="310" y="700"/>
    </contour>
    <contour>
      <point x="176" y="120" type="curve" smooth="yes"/>
      <point x="137" y="120"/>
      <point x="112" y="89"/>
      <point x="112" y="54" type="curve" smooth="yes"/>
      <point x="112" y="19"/>
      <point x="137" y="-12"/>
      <point x="176" y="-12" type="curve" smooth="yes"/>
      <point x="216" y="-12"/>
      <point x="241" y="19"/>
      <point x="241" y="54" type="curve" smooth="yes"/>
      <point x="241" y="89"/>
      <point x="216" y="120"/>
    </contour>
  </outline>
</glyph>
<glyph name="at" format="2">
  <advance width="847"/>
  <unicode hex="0040"/>
  <outline>
    <contour>
      <point x="437" y="700" type="curve" smooth="yes"/>
      <point x="211" y="700"/>
      <point x="59" y="509"/>
      <point x="59" y="240" type="curve" smooth="yes"/>
      <point x="59" y="-47"/>
      <point x="212" y="-212"/>
      <point x="436" y="-212" type="curve" smooth="yes"/>
      <point x="509" y="-212"/>
      <point x="565" y="-196"/>
      <point x="618" y="-173" type="curve"/>
      <point x="595" y="-105" type="line"/>
      <point x="551" y="-124"/>
      <point x="497" y="-139"/>
      <point x="437" y="-139" type="curve" smooth="yes"/>
      <point x="249" y="-139"/>
      <point x="144" y="1"/>
      <point x="144" y="240" type="curve" smooth="yes"/>
      <point x="144" y="472"/>
      <point x="254" y="628"/>
      <point x="437" y="628" type="curve" smooth="yes"/>
      <point x="614" y="628"/>
      <point x="704" y="508"/>
      <point x="704" y="305" type="curve" smooth="yes"/>
      <point x="704" y="146"/>
      <point x="671" y="77"/>
      <point x="620" y="77" type="curve" smooth="yes"/>
      <point x="586" y="77"/>
      <point x="568" y="106"/>
      <point x="568" y="193" type="curve"/>
      <point x="515" y="131" type="line"/>
      <point x="517" y="87"/>
      <point x="546" y="9"/>
      <point x="623" y="9" type="curve" smooth="yes"/>
      <point x="729" y="9"/>
      <point x="788" y="140"/>
      <point x="788" y="307" type="curve" smooth="yes"/>
      <point x="788" y="530"/>
      <point x="667" y="700"/>
    </contour>
    <contour>
      <point x="437" y="491" type="curve" smooth="yes"/>
      <point x="330" y="491"/>
      <point x="255" y="413"/>
      <point x="255" y="231" type="curve" smooth="yes"/>
      <point x="255" y="92"/>
      <point x="308" y="11"/>
      <point x="403" y="11" type="curve" smooth="yes"/>
      <point x="471" y="11"/>
      <point x="510" y="69"/>
      <point x="525" y="119" type="curve"/>
      <point x="504" y="162" type="line"/>
      <point x="486" y="124"/>
      <point x="454" y="76"/>
      <point x="411" y="76" type="curve" smooth="yes"/>
      <point x="363" y="76"/>
      <point x="339" y="119"/>
      <point x="339" y="231" type="curve" smooth="yes"/>
      <point x="339" y="370"/>
      <point x="374" y="428"/>
      <point x="437" y="428" type="curve" smooth="yes"/>
      <point x="459" y="428"/>
      <point x="475" y="424"/>
      <point x="491" y="418" type="curve"/>
      <point x="491" y="119" type="line"/>
      <point x="524" y="119" type="line"/>
      <point x="568" y="150" type="line"/>
      <point x="568" y="451" type="line"/>
      <point x="525" y="479"/>
      <point x="481" y="491"/>
    </contour>
  </outline>
</glyph>
<glyph name="A" format="2">
  <advance width="487"/>
  <unicode hex="0041"/>
  <anchor x="244" y="0" name="bottom"/>
  <anchor x="446" y="0" name="ogonek"/>
  <anchor x="244" y="689" name="top"/>
  <anchor x="143" y="689" name="topleft"/>
  <outline>
    <contour>
      <point x="300" y="689" type="line"/>
      <point x="187" y="689" type="line"/>
      <point x="8" y="0" type="line"/>
      <point x="98" y="0" type="line"/>
      <point x="242" y="613" type="line"/>
      <point x="386" y="0" type="line"/>
      <point x="479" y="0" type="line"/>
    </contour>
    <contour>
      <point x="336" y="248" type="line"/>
      <point x="147" y="248" type="line"/>
      <point x="128" y="175" type="line"/>
      <point x="355" y="175" type="line"/>
    </contour>
  </outline>
</glyph>
<glyph name="B" format="2">
  <advance width="501"/>
  <unicode hex="0042"/>
  <anchor x="256" y="0" name="bottom"/>
  <anchor x="246" y="689" name="top"/>
  <outline>
    <contour>
      <point x="207" y="689" type="curve" smooth="yes"/>
      <point x="76" y="689" type="line"/>
      <point x="76" y="0" type="line"/>
      <point x="230" y="0" type="line" smooth="yes"/>
      <point x="374" y="0"/>
      <point x="468" y="62"/>
      <point x="468" y="195" type="curve" smooth="yes"/>
      <point x="468" y="307"/>
      <point x="403" y="347"/>
      <point x="320" y="364" type="curve"/>
      <point x="394" y="385"/>
      <point x="443" y="434"/>
      <point x="443" y="515" type="curve" smooth="yes"/>
      <point x="443" y="627"/>
      <point x="359" y="689"/>
    </contour>
    <contour>
      <point x="216" y="617" type="line" smooth="yes"/>
      <point x="306" y="617"/>
      <point x="350" y="589"/>
      <point x="350" y="508" type="curve" smooth="yes"/>
      <point x="350" y="436"/>
      <point x="310" y="396"/>
      <point x="226" y="396" type="curve" smooth="yes"/>
      <point x="155" y="396" type="line"/>
      <point x="155" y="325" type="line"/>
      <point x="233" y="325" type="line" smooth="yes"/>
      <point x="326" y="325"/>
      <point x="373" y="288"/>
      <point x="373" y="195" type="curve" smooth="yes"/>
      <point x="373" y="102"/>
      <point x="318" y="73"/>
      <point x="230" y="73" type="curve" smooth="yes"/>
      <point x="167" y="73" type="line"/>
      <point x="167" y="617" type="line"/>
    </contour>
  </outline>
</glyph>
<glyph name="C" format="2">
  <advance width="466"/>
  <unicode hex="0043"/>
  <anchor x="286" y="0" name="bottom"/>
  <anchor x="288" y="346" name="center"/>
  <anchor x="290" y="689" name="top"/>
  <outline>
    <contour>
      <point x="288" y="700" type="curve" smooth="yes"/>
      <point x="153" y="700"/>
      <point x="45" y="591"/>
      <point x="45" y="345" type="curve" smooth="yes"/>
      <point x="45" y="100"/>
      <point x="147" y="-12"/>
      <point x="287" y="-12" type="curve" smooth="yes"/>
      <point x="363" y="-12"/>
      <point x="418" y="25"/>
      <point x="452" y="64" type="curve"/>
      <point x="403" y="117" type="line"/>
      <point x="375" y="92"/>
      <point x="342" y="65"/>
      <point x="291" y="65" type="curve" smooth="yes"/>
      <point x="205" y="65"/>
      <point x="141" y="135"/>
      <point x="141" y="345" type="curve" smooth="yes"/>
      <point x="141" y="564"/>
      <point x="208" y="626"/>
      <point x="290" y="626" type="curve" smooth="yes"/>
      <point x="330" y="626"/>
      <point x="363" y="610"/>
      <point x="399" y="578" type="curve"/>
      <point x="446" y="633" type="line"/>
      <point x="399" y="676"/>
      <point x="354" y="700"/>
    </contour>
  </outline>
</glyph>
<glyph name="D" format="2">
  <advance width="534"/>
  <unicode hex="0044"/>
  <anchor x="249" y="0" name="bottom"/>
  <anchor x="267" y="345" name="center"/>
  <anchor x="248" y="689" name="top"/>
  <outline>
    <contour>
      <point x="205" y="689" type="curve" smooth="yes"/>
      <point x="76" y="689" type="line"/>
      <point x="76" y="0" type="line"/>
      <point x="220" y="0" type="line" smooth="yes"/>
      <point x="350" y="0"/>
      <point x="489" y="62"/>
      <point x="489" y="348" type="curve" smooth="yes"/>
      <point x="489" y="639"/>
      <point x="352" y="689"/>
    </contour>
    <contour>
      <point x="222" y="616" type="line" smooth="yes"/>
      <point x="310" y="616"/>
      <point x="394" y="588"/>
      <point x="394" y="348" type="curve" smooth="yes"/>
      <point x="394" y="114"/>
      <point x="314" y="72"/>
      <point x="226" y="72" type="curve" smooth="yes"/>
      <point x="167" y="72" type="line"/>
      <point x="167" y="616" type="line"/>
    </contour>
  </outline>
</glyph>
<glyph name="E" format="2">
  <advance width="435"/>
  <unicode hex="0045"/>
  <anchor x="236" y="0" name="bottom"/>
  <anchor x="373" y="0" name="ogonek"/>
  <anchor x="236" y="689" name="top"/>
  <anchor x="68" y="689" name="topleft"/>
  <outline>
    <contour>
      <point x="392" y="689" type="line"/>
      <point x="76" y="689" type="line"/>
      <point x="76" y="0" type="line"/>
      <point x="396" y="0" type="line"/>
      <point x="396" y="73" type="line"/>
      <point x="167" y="73" type="line"/>
      <point x="167" y="314" type="line"/>
      <point x="354" y="314" type="line"/>
      <point x="354" y="387" type="line"/>
      <point x="167" y="387" type="line"/>
      <point x="167" y="616" type="line"/>
      <point x="382" y="616" type="line"/>
    </contour>
  </outline>
</glyph>
<glyph name="F" format="2">
  <advance width="402"/>
  <unicode hex="0046"/>
  <anchor x="122" y="0" name="bottom"/>
  <anchor x="239" y="689" name="top"/>
  <outline>
    <contour>
      <point x="76" y="0" type="line"/>
      <point x="167" y="0" type="line"/>
      <point x="167" y="305" type="line"/>
      <point x="347" y="305" type="line"/>
      <point x="347" y="377" type="line"/>
      <point x="167" y="377" type="line"/>
      <point x="167" y="616" type="line"/>
      <point x="375" y="616" type="line"/>
      <point x="385" y="689" type="line"/>
      <point x="76" y="689" type="line"/>
    </contour>
  </outline>
</glyph>
<glyph name="G" format="2">
  <advance width="528"/>
  <unicode hex="0047"/>
  <anchor x="286" y="0" name="bottom"/>
  <anchor x="294" y="689" name="top"/>
  <outline>
    <contour>
      <point x="299" y="700" type="curve" smooth="yes"/>
      <point x="162" y="700"/>
      <point x="45" y="579"/>
      <point x="45" y="345" type="curve" smooth="yes"/>
      <point x="45" y="106"/>
      <point x="134" y="-12"/>
      <point x="288" y="-12" type="curve" smooth="yes"/>
      <point x="360" y="-12"/>
      <point x="424" y="13"/>
      <point x="476" y="49" type="curve"/>
      <point x="476" y="381" type="line"/>
      <point x="284" y="381" type="line"/>
      <point x="294" y="307" type="line"/>
      <point x="388" y="307" type="line"/>
      <point x="388" y="93" type="line"/>
      <point x="358" y="73"/>
      <point x="325" y="63"/>
      <point x="289" y="63" type="curve" smooth="yes"/>
      <point x="193" y="63"/>
      <point x="141" y="137"/>
      <point x="141" y="345" type="curve" smooth="yes"/>
      <point x="141" y="557"/>
      <point x="217" y="626"/>
      <point x="299" y="626" type="curve" smooth="yes"/>
      <point x="348" y="626"/>
      <point x="380" y="609"/>
      <point x="421" y="574" type="curve"/>
      <point x="471" y="625" type="line"/>
      <point x="421" y="674"/>
      <point x="372" y="700"/>
    </contour>
  </outline>
</glyph>
<glyph name="H" format="2">
  <advance width="556"/>
  <unicode hex="0048"/>
  <anchor x="278" y="0" name="bottom"/>
  <anchor x="488" y="0" name="bottomright"/>
  <anchor x="278" y="345" name="center"/>
  <anchor x="278" y="689" name="top"/>
  <anchor x="68" y="689" name="topleft"/>
  <outline>
    <contour>
      <point x="389" y="0" type="line"/>
      <point x="480" y="0" type="line"/>
      <point x="480" y="689" type="line"/>
      <point x="389" y="689" type="line"/>
      <point x="389" y="399" type="line"/>
      <point x="167" y="399" type="line"/>
      <point x="167" y="689" type="line"/>
      <point x="76" y="689" type="line"/>
      <point x="76" y="0" type="line"/>
      <point x="167" y="0" type="line"/>
      <point x="167" y="324" type="line"/>
      <point x="389" y="324" type="line"/>
    </contour>
  </outline>
</glyph>
<glyph name="I" format="2">
  <advance width="243"/>
  <unicode hex="0049"/>
  <anchor x="121" y="0" name="bottom"/>
  <anchor x="158" y="0" name="ogonek"/>
  <anchor x="121" y="689" name="top"/>
  <anchor x="68" y="689" name="topleft"/>
  <outline>
    <contour>
      <point x="167" y="689" type="line"/>
      <point x="76" y="689" type="line"/>
      <point x="76" y="0" type="line"/>
      <point x="167" y="0" type="line"/>
    </contour>
  </outline>
</glyph>
<glyph name="J" format="2">
  <advance width="252"/>
  <unicode hex="004A"/>
  <anchor x="125" y="-201" name="bottom"/>
  <anchor x="134" y="689" name="top"/>
  <outline>
    <contour>
      <point x="180" y="689" type="line"/>
      <point x="89" y="689" type="line"/>
      <point x="89" y="99" type="line" smooth="yes"/>
      <point x="89" y="2"/>
      <point x="74" y="-32"/>
      <point x="0" y="-71" type="curve"/>
      <point x="24" y="-135" type="line"/>
      <point x="117" y="-99"/>
      <point x="180" y="-46"/>
      <point x="180" y="95" type="curve" smooth="yes"/>
    </contour>
  </outline>
</glyph>
<glyph name="K" format="2">
  <advance width="494"/>
  <unicode hex="004B"/>
  <anchor x="261" y="0" name="bottom"/>
  <anchor x="268" y="689" name="top"/>
  <outline>
    <contour>
      <point x="479" y="689" type="line"/>
      <point x="382" y="689" type="line"/>
      <point x="171" y="368" type="line"/>
      <point x="391" y="0" type="line"/>
      <point x="494" y="0" type="line"/>
      <point x="269" y="374" type="line"/>
    </contour>
    <contour>
      <point x="167" y="689" type="line"/>
      <point x="76" y="689" type="line"/>
      <point x="76" y="0" type="line"/>
      <point x="167" y="0" type="line"/>
    </contour>
  </outline>
</glyph>
<glyph name="L" format="2">
  <advance width="406"/>
  <unicode hex="004C"/>
  <anchor x="232" y="0" name="bottom"/>
  <anchor x="321" y="388" name="center"/>
  <anchor x="122" y="689" name="top"/>
  <anchor x="183" y="689" name="topright"/>
  <outline>
    <contour>
      <point x="167" y="689" type="line"/>
      <point x="76" y="689" type="line"/>
      <point x="76" y="0" type="line"/>
      <point x="386" y="0" type="line"/>
      <point x="396" y="80" type="line"/>
      <point x="167" y="80" type="line"/>
    </contour>
  </outline>
</glyph>
<glyph name="M" format="2">
  <advance width="660"/>
  <unicode hex="004D"/>
  <anchor x="336" y="0" name="bottom"/>
  <anchor x="614" y="0" name="bottomright"/>
  <anchor x="330" y="689" name="top"/>
  <outline>
    <contour>
      <point x="559" y="689" type="line"/>
      <point x="438" y="689" type="line"/>
      <point x="332" y="184" type="line"/>
      <point x="220" y="689" type="line"/>
      <point x="102" y="689" type="line"/>
      <point x="55" y="0" type="line"/>
      <point x="141" y="0" type="line"/>
      <point x="158" y="307" type="line" smooth="yes"/>
      <point x="163" y="408"/>
      <point x="167" y="517"/>
      <point x="165" y="597" type="curve"/>
      <point x="288" y="78" type="line"/>
      <point x="373" y="78" type="line"/>
      <point x="490" y="596" type="line"/>
      <point x="489" y="538"/>
      <point x="494" y="421"/>
      <point x="501" y="313" type="curve" smooth="yes"/>
      <point x="519" y="0" type="line"/>
      <point x="605" y="0" type="line"/>
    </contour>
  </outline>
</glyph>
<glyph name="N" format="2">
  <advance width="557"/>
  <unicode hex="004E"/>
  <anchor x="280" y="0" name="bottom"/>
  <anchor x="286" y="689" name="top"/>
  <outline>
    <contour>
      <point x="481" y="689" type="line"/>
      <point x="396" y="689" type="line"/>
      <point x="396" y="308" type="line" smooth="yes"/>
      <point x="396" y="223"/>
      <point x="405" y="118"/>
      <point x="409" y="101" type="curve"/>
      <point x="197" y="689" type="line"/>
      <point x="76" y="689" type="line"/>
      <point x="76" y="0" type="line"/>
      <point x="161" y="0" type="line"/>
      <point x="161" y="324" type="line" smooth="yes"/>
      <point x="161" y="451"/>
      <point x="153" y="531"/>
      <point x="148" y="587" type="curve"/>
      <point x="360" y="0" type="line"/>
      <point x="481" y="0" type="line"/>
    </contour>
  </outline>
</glyph>
<glyph name="O" format="2">
  <advance width="575"/>
  <unicode hex="004F"/>
  <anchor x="288" y="0" name="bottom"/>
  <anchor x="374" y="0" name="ogonek"/>
  <anchor x="288" y="689" name="top"/>
  <anchor x="95" y="689" name="topleft"/>
  <anchor x="460" y="689" name="topright"/>
  <outline>
    <contour>
      <point x="288" y="700" type="curve" smooth="yes"/>
      <point x="142" y="700"/>
      <point x="45" y="585"/>
      <point x="45" y="343" type="curve" smooth="yes"/>
      <point x="45" y="97"/>
      <point x="142" y="-12"/>
      <point x="288" y="-12" type="curve" smooth="yes"/>
      <point x="435" y="-12"/>
      <point x="530" y="101"/>
      <point x="530" y="344" type="curve" smooth="yes"/>
      <point x="530" y="591"/>
      <point x="434" y="700"/>
    </contour>
    <contour>
      <point x="288" y="626" type="curve" smooth="yes"/>
      <point x="380" y="626"/>
      <point x="434" y="553"/>
      <point x="434" y="344" type="curve" smooth="yes"/>
      <point x="434" y="133"/>
      <point x="379" y="63"/>
      <point x="288" y="63" type="curve" smooth="yes"/>
      <point x="199" y="63"/>
      <point x="141" y="133"/>
      <point x="141" y="343" type="curve" smooth="yes"/>
      <point x="141" y="553"/>
      <point x="197" y="626"/>
    </contour>
  </outline>
</glyph>
<glyph name="P" format="2">
  <advance width="476"/>
  <unicode hex="0050"/>
  <anchor x="122" y="0" name="bottom"/>
  <anchor x="242" y="689" name="top"/>
  <anchor x="67" y="689" name="topleft"/>
  <outline>
    <contour>
      <point x="167" y="0" type="line"/>
      <point x="167" y="617" type="line"/>
      <point x="212" y="617" type="line" smooth="yes"/>
      <point x="312" y="617"/>
      <point x="361" y="576"/>
      <point x="361" y="475" type="curve" smooth="yes"/>
      <point x="361" y="360"/>
      <point x="310" y="327"/>
      <point x="212" y="327" type="curve" smooth="yes"/>
      <point x="155" y="327" type="line"/>
      <point x="155" y="255" type="line"/>
      <point x="212" y="255" type="line" smooth="yes"/>
      <point x="363" y="255"/>
      <point x="456" y="322"/>
      <point x="456" y="476" type="curve" smooth="yes"/>
      <point x="456" y="616"/>
      <point x="372" y="689"/>
      <point x="210" y="689" type="curve" smooth="yes"/>
      <point x="76" y="689" type="line"/>
      <point x="76" y="0" type="line"/>
    </contour>
  </outline>
</glyph>
<glyph name="Q" format="2">
  <advance width="575"/>
  <unicode hex="0051"/>
  <anchor x="286" y="0" name="bottom"/>
  <anchor x="286" y="689" name="top"/>
  <outline>
    <contour>
      <point x="288" y="700" type="curve" smooth="yes"/>
      <point x="142" y="700"/>
      <point x="45" y="585"/>
      <point x="45" y="343" type="curve" smooth="yes"/>
      <point x="45" y="102"/>
      <point x="145" y="-9"/>
      <point x="284" y="-9" type="curve" smooth="yes"/>
      <point x="302" y="-9"/>
      <point x="318" y="-7"/>
      <point x="334" y="-4" type="curve"/>
      <point x="395" y="39" type="line"/>
      <point x="475" y="87"/>
      <point x="530" y="165"/>
      <point x="530" y="344" type="curve" smooth="yes"/>
      <point x="530" y="588"/>
      <point x="434" y="700"/>
    </contour>
    <contour>
      <point x="395" y="39" type="curve"/>
      <point x="284" y="-9" type="line"/>
      <point x="387" y="-9"/>
      <point x="439" y="-32"/>
      <point x="499" y="-102" type="curve"/>
      <point x="560" y="-31" type="line"/>
      <point x="516" y="9"/>
      <point x="464" y="37"/>
    </contour>
    <contour>
      <point x="288" y="626" type="curve" smooth="yes"/>
      <point x="380" y="626"/>
      <point x="434" y="553"/>
      <point x="434" y="344" type="curve" smooth="yes"/>
      <point x="434" y="133"/>
      <point x="379" y="63"/>
      <point x="288" y="63" type="curve" smooth="yes"/>
      <point x="199" y="63"/>
      <point x="141" y="133"/>
      <point x="141" y="343" type="curve" smooth="yes"/>
      <point x="141" y="553"/>
      <point x="197" y="626"/>
    </contour>
  </outline>
</glyph>
<glyph name="R" format="2">
  <advance width="502"/>
  <unicode hex="0052"/>
  <anchor x="255" y="0" name="bottom"/>
  <anchor x="248" y="689" name="top"/>
  <outline>
    <contour>
      <point x="214" y="689" type="curve" smooth="yes"/>
      <point x="76" y="689" type="line"/>
      <point x="76" y="0" type="line"/>
      <point x="167" y="0" type="line"/>
      <point x="167" y="617" type="line"/>
      <point x="213" y="617" type="line" smooth="yes"/>
      <point x="319" y="617"/>
      <point x="357" y="577"/>
      <point x="357" y="495" type="curve" smooth="yes"/>
      <point x="357" y="405"/>
      <point x="315" y="364"/>
      <point x="221" y="364" type="curve" smooth="yes"/>
      <point x="155" y="364" type="line"/>
      <point x="155" y="294" type="line"/>
      <point x="256" y="294" type="line"/>
      <point x="391" y="316"/>
      <point x="453" y="377"/>
      <point x="453" y="495" type="curve" smooth="yes"/>
      <point x="453" y="617"/>
      <point x="379" y="689"/>
    </contour>
    <contour>
      <point x="330" y="318" type="line"/>
      <point x="244" y="307" type="line"/>
      <point x="384" y="0" type="line"/>
      <point x="484" y="0" type="line"/>
    </contour>
  </outline>
</glyph>
<glyph name="S" format="2">
  <advance width="450"/>
  <unicode hex="0053"/>
  <anchor x="219" y="0" name="bottom"/>
  <anchor x="227" y="689" name="top"/>
  <outline>
    <contour>
      <point x="226" y="700" type="curve" smooth="yes"/>
      <point x="116" y="700"/>
      <point x="38" y="621"/>
      <point x="38" y="522" type="curve" smooth="yes"/>
      <point x="38" y="426"/>
      <point x="91" y="367"/>
      <point x="206" y="324" type="curve" smooth="yes"/>
      <point x="300" y="289"/>
      <point x="324" y="253"/>
      <point x="324" y="189" type="curve" smooth="yes"/>
      <point x="324" y="111"/>
      <point x="279" y="63"/>
      <point x="210" y="63" type="curve" smooth="yes"/>
      <point x="150" y="63"/>
      <point x="106" y="90"/>
      <point x="64" y="129" type="curve"/>
      <point x="15" y="77" type="line"/>
      <point x="65" y="22"/>
      <point x="126" y="-12"/>
      <point x="212" y="-12" type="curve" smooth="yes"/>
      <point x="340" y="-12"/>
      <point x="419" y="82"/>
      <point x="419" y="191" type="curve" smooth="yes"/>
      <point x="419" y="312"/>
      <point x="351" y="362"/>
      <point x="253" y="399" type="curve" smooth="yes"/>
      <point x="154" y="436"/>
      <point x="131" y="470"/>
      <point x="131" y="526" type="curve" smooth="yes"/>
      <point x="131" y="586"/>
      <point x="170" y="626"/>
      <point x="227" y="626" type="curve" smooth="yes"/>
      <point x="275" y="626"/>
      <point x="313" y="608"/>
      <point x="354" y="569" type="curve"/>
      <point x="402" y="621" type="line"/>
      <point x="355" y="672"/>
      <point x="301" y="700"/>
    </contour>
  </outline>
</glyph>
<glyph name="T" format="2">
  <advance width="428"/>
  <unicode hex="0054"/>
  <anchor x="214" y="0" name="bottom"/>
  <anchor x="268" y="0" name="bottomright"/>
  <anchor x="214" y="345" name="center"/>
  <anchor x="214" y="689" name="top"/>
  <outline>
    <contour>
      <point x="422" y="689" type="line"/>
      <point x="11" y="689" type="line"/>
      <point x="11" y="613" type="line"/>
      <point x="168" y="613" type="line"/>
      <point x="168" y="0" type="line"/>
      <point x="259" y="0" type="line"/>
      <point x="259" y="613" type="line"/>
      <point x="412" y="613" type="line"/>
    </contour>
  </outline>
</glyph>
<glyph name="U" format="2">
  <advance width="538"/>
  <unicode hex="0055"/>
  <anchor x="269" y="0" name="bottom"/>
  <anchor x="354" y="0" name="ogonek"/>
  <anchor x="269" y="689" name="top"/>
  <anchor x="481" y="689" name="topright"/>
  <outline>
    <contour>
      <point x="472" y="689" type="line"/>
      <point x="381" y="689" type="line"/>
      <point x="381" y="197" type="line" smooth="yes"/>
      <point x="381" y="110"/>
      <point x="346" y="65"/>
      <point x="269" y="65" type="curve" smooth="yes"/>
      <point x="192" y="65"/>
      <point x="157" y="109"/>
      <point x="157" y="197" type="curve" smooth="yes"/>
      <point x="157" y="689" type="line"/>
      <point x="66" y="689" type="line"/>
      <point x="66" y="190" type="line" smooth="yes"/>
      <point x="66" y="76"/>
      <point x="134" y="-12"/>
      <point x="269" y="-12" type="curve" smooth="yes"/>
      <point x="402" y="-12"/>
      <point x="472" y="76"/>
      <point x="472" y="190" type="curve" smooth="yes"/>
    </contour>
  </outline>
</glyph>
<glyph name="V" format="2">
  <advance width="472"/>
  <unicode hex="0056"/>
  <anchor x="236" y="0" name="bottom"/>
  <anchor x="236" y="689" name="top"/>
  <outline>
    <contour>
      <point x="464" y="689" type="line"/>
      <point x="375" y="689" type="line"/>
      <point x="239" y="98" type="line"/>
      <point x="100" y="689" type="line"/>
      <point x="8" y="689" type="line"/>
      <point x="185" y="0" type="line"/>
      <point x="290" y="0" type="line"/>
    </contour>
  </outline>
</glyph>
<glyph name="W" format="2">
  <advance width="690"/>
  <unicode hex="0057"/>
  <anchor x="345" y="0" name="bottom"/>
  <anchor x="345" y="689" name="top"/>
  <outline>
    <contour>
      <point x="668" y="689" type="line"/>
      <point x="583" y="689" type="line"/>
      <point x="497" y="80" type="line"/>
      <point x="395" y="689" type="line"/>
      <point x="295" y="689" type="line"/>
      <point x="193" y="80" type="line"/>
      <point x="110" y="689" type="line"/>
      <point x="22" y="689" type="line"/>
      <point x="131" y="0" type="line"/>
      <point x="248" y="0" type="line"/>
      <point x="344" y="580" type="line"/>
      <point x="439" y="0" type="line"/>
      <point x="558" y="0" type="line"/>
    </contour>
  </outline>
</glyph>
<glyph name="X" format="2">
  <advance width="449"/>
  <unicode hex="0058"/>
  <anchor x="225" y="0" name="bottom"/>
  <anchor x="405" y="0" name="bottomright"/>
  <anchor x="225" y="689" name="top"/>
  <outline>
    <contour>
      <point x="112" y="689" type="line"/>
      <point x="16" y="689" type="line"/>
      <point x="169" y="367" type="line"/>
      <point x="222" y="311" type="line"/>
      <point x="351" y="0" type="line"/>
      <point x="447" y="0" type="line"/>
      <point x="277" y="372" type="line"/>
      <point x="224" y="424" type="line"/>
    </contour>
    <contour>
      <point x="429" y="689" type="line"/>
      <point x="338" y="689" type="line"/>
      <point x="224" y="424" type="line"/>
      <point x="169" y="367" type="line"/>
      <point x="2" y="0" type="line"/>
      <point x="94" y="0" type="line"/>
      <point x="222" y="311" type="line"/>
      <point x="277" y="372" type="line"/>
    </contour>
  </outline>
</glyph>
<glyph name="Y" format="2">
  <advance width="459"/>
  <unicode hex="0059"/>
  <anchor x="230" y="0" name="bottom"/>
  <anchor x="229" y="689" name="top"/>
  <anchor x="2" y="689" name="topleft"/>
  <outline>
    <contour>
      <point x="457" y="689" type="line"/>
      <point x="364" y="689" type="line"/>
      <point x="232" y="345" type="line"/>
      <point x="99" y="689" type="line"/>
      <point x="2" y="689" type="line"/>
      <point x="184" y="264" type="line"/>
      <point x="184" y="0" type="line"/>
      <point x="275" y="0" type="line"/>
      <point x="275" y="265" type="line"/>
    </contour>
  </outline>
</glyph>
<glyph name="Z" format="2">
  <advance width="427"/>
  <unicode hex="005A"/>
  <anchor x="213" y="0" name="bottom"/>
  <anchor x="223" y="689" name="top"/>
  <outline>
    <contour>
      <point x="399" y="689" type="line"/>
      <point x="50" y="689" type="line"/>
      <point x="50" y="612" type="line"/>
      <point x="304" y="612" type="line"/>
      <point x="22" y="73" type="line"/>
      <point x="22" y="0" type="line"/>
      <point x="389" y="0" type="line"/>
      <point x="399" y="78" type="line"/>
      <point x="117" y="78" type="line"/>
      <point x="399" y="615" type="line"/>
    </contour>
  </outline>
</glyph>
<glyph name="bracketleft" format="2">
  <advance width="264"/>
  <unicode hex="005B"/>
  <outline>
    <contour>
      <point x="227" y="815" type="line"/>
      <point x="48" y="815" type="line"/>
      <point x="48" y="-116" type="line"/>
      <point x="227" y="-116" type="line"/>
      <point x="227" y="-44" type="line"/>
      <point x="131" y="-44" type="line"/>
      <point x="131" y="742" type="line"/>
      <point x="227" y="742" type="line"/>
    </contour>
  </outline>
</glyph>
<glyph name="backslash" format="2">
  <advance width="427"/>
  <unicode hex="005C"/>
  <outline>
    <contour>
      <point x="152" y="803" type="line"/>
      <point x="80" y="789" type="line"/>
      <point x="275" y="-103" type="line"/>
      <point x="347" y="-89" type="line"/>
    </contour>
  </outline>
</glyph>
<glyph name="bracketright" format="2">
  <advance width="264"/>
  <unicode hex="005D"/>
  <outline>
    <contour>
      <point x="216" y="815" type="line"/>
      <point x="37" y="815" type="line"/>
      <point x="37" y="742" type="line"/>
      <point x="133" y="742" type="line"/>
      <point x="133" y="-44" type="line"/>
      <point x="37" y="-44" type="line"/>
      <point x="37" y="-116" type="line"/>
      <point x="216" y="-116" type="line"/>
    </contour>
  </outline>
</glyph>
<glyph name="asciicircum" format="2">
  <advance width="446"/>
  <unicode hex="005E"/>
  <outline>
    <contour>
      <point x="262" y="839" type="line"/>
      <point x="183" y="839" type="line"/>
      <point x="29" y="527" type="line"/>
      <point x="119" y="527" type="line"/>
      <point x="221" y="762" type="line"/>
      <point x="325" y="527" type="line"/>
      <point x="417" y="527" type="line"/>
    </contour>
  </outline>
</glyph>
<glyph name="underscore" format="2">
  <advance width="430"/>
  <unicode hex="005F"/>
  <outline>
    <contour>
      <point x="15" y="-140" type="line"/>
      <point x="415" y="-140" type="line"/>
      <point x="415" y="-64" type="line"/>
      <point x="15" y="-64" type="line"/>
    </contour>
  </outline>
</glyph>
<glyph name="a" format="2">
  <advance width="451"/>
  <unicode hex="0061"/>
  <anchor x="218" y="0" name="bottom"/>
  <anchor x="400" y="-12" name="ogonek"/>
  <anchor x="218" y="527" name="top"/>
  <outline>
    <contour>
      <point x="217" y="538" type="curve" smooth="yes"/>
      <point x="170" y="538"/>
      <point x="119" y="526"/>
      <point x="66" y="503" type="curve"/>
      <point x="87" y="441" type="line"/>
      <point x="131" y="458"/>
      <point x="167" y="468"/>
      <point x="206" y="468" type="curve" smooth="yes"/>
      <point x="262" y="468"/>
      <point x="290" y="439"/>
      <point x="290" y="368" type="curve" smooth="yes"/>
      <point x="290" y="122" type="line"/>
      <point x="299" y="87" type="line"/>
      <point x="307" y="21"/>
      <point x="338" y="-3"/>
      <point x="392" y="-12" type="curve"/>
      <point x="411" y="49" type="line"/>
      <point x="389" y="59"/>
      <point x="377" y="73"/>
      <point x="377" y="112" type="curve" smooth="yes"/>
      <point x="377" y="372" type="line" smooth="yes"/>
      <point x="377" y="474"/>
      <point x="328" y="538"/>
    </contour>
    <contour>
      <point x="303" y="320" type="line"/>
      <point x="238" y="320" type="line" smooth="yes"/>
      <point x="105" y="320"/>
      <point x="35" y="259"/>
      <point x="35" y="147" type="curve" smooth="yes"/>
      <point x="35" y="52"/>
      <point x="89" y="-12"/>
      <point x="177" y="-12" type="curve" smooth="yes"/>
      <point x="234" y="-12"/>
      <point x="284" y="17"/>
      <point x="314" y="85" type="curve"/>
      <point x="296" y="155" type="line"/>
      <point x="274" y="88"/>
      <point x="241" y="54"/>
      <point x="195" y="54" type="curve" smooth="yes"/>
      <point x="152" y="54"/>
      <point x="126" y="85"/>
      <point x="126" y="151" type="curve" smooth="yes"/>
      <point x="126" y="225"/>
      <point x="164" y="261"/>
      <point x="248" y="261" type="curve" smooth="yes"/>
      <point x="303" y="261" type="line"/>
    </contour>
  </outline>
</glyph>
<glyph name="b" format="2">
  <advance width="488"/>
  <unicode hex="0062"/>
  <anchor x="254" y="0" name="bottom"/>
  <anchor x="259" y="739" name="top"/>
  <outline>
    <contour>
      <point x="282" y="538" type="curve" smooth="yes"/>
      <point x="381" y="538"/>
      <point x="443" y="450"/>
      <point x="443" y="264" type="curve" smooth="yes"/>
      <point x="443" y="90"/>
      <point x="375" y="-12"/>
      <point x="273" y="-12" type="curve" smooth="yes"/>
      <point x="219" y="-12"/>
      <point x="173" y="22"/>
      <point x="144" y="76" type="curve"/>
      <point x="154" y="139" type="line"/>
      <point x="175" y="95"/>
      <point x="211" y="58"/>
      <point x="254" y="58" type="curve" smooth="yes"/>
      <point x="310" y="58"/>
      <point x="350" y="110"/>
      <point x="350" y="264" type="curve" smooth="yes"/>
      <point x="350" y="425"/>
      <point x="313" y="468"/>
      <point x="261" y="468" type="curve" smooth="yes"/>
      <point x="212" y="468"/>
      <point x="177" y="420"/>
      <point x="154" y="373" type="curve"/>
      <point x="153" y="449" type="line"/>
      <point x="182" y="503"/>
      <point x="225" y="538"/>
    </contour>
    <contour>
      <point x="161" y="747" type="line"/>
      <point x="161" y="89" type="line"/>
      <point x="151" y="0" type="line"/>
      <point x="73" y="0" type="line"/>
      <point x="73" y="738" type="line"/>
    </contour>
  </outline>
</glyph>
<glyph name="c" format="2">
  <advance width="391"/>
  <unicode hex="0063"/>
  <anchor x="235" y="0" name="bottom"/>
  <anchor x="241" y="527" name="top"/>
  <outline>
    <contour>
      <point x="242" y="538" type="curve" smooth="yes"/>
      <point x="122" y="538"/>
      <point x="45" y="437"/>
      <point x="45" y="259" type="curve" smooth="yes"/>
      <point x="45" y="81"/>
      <point x="121" y="-12"/>
      <point x="243" y="-12" type="curve" smooth="yes"/>
      <point x="294" y="-12"/>
      <point x="339" y="10"/>
      <point x="376" y="46" type="curve"/>
      <point x="335" y="99" type="line"/>
      <point x="305" y="76"/>
      <point x="280" y="62"/>
      <point x="244" y="62" type="curve" smooth="yes"/>
      <point x="180" y="62"/>
      <point x="139" y="112"/>
      <point x="139" y="261" type="curve" smooth="yes"/>
      <point x="139" y="409"/>
      <point x="179" y="467"/>
      <point x="245" y="467" type="curve" smooth="yes"/>
      <point x="280" y="467"/>
      <point x="307" y="453"/>
      <point x="336" y="430" type="curve"/>
      <point x="376" y="482" type="line"/>
      <point x="335" y="522"/>
      <point x="294" y="538"/>
    </contour>
  </outline>
</glyph>
<glyph name="d" format="2">
  <advance width="491"/>
  <unicode hex="0064"/>
  <anchor x="251" y="0" name="bottom"/>
  <anchor x="247" y="264" name="center"/>
  <anchor x="244" y="739" name="top"/>
  <anchor x="427" y="739" name="topright"/>
  <outline>
    <contour>
      <point x="217" y="538" type="curve" smooth="yes"/>
      <point x="116" y="538"/>
      <point x="45" y="430"/>
      <point x="45" y="261" type="curve" smooth="yes"/>
      <point x="45" y="92"/>
      <point x="104" y="-12"/>
      <point x="214" y="-12" type="curve" smooth="yes"/>
      <point x="273" y="-12"/>
      <point x="316" y="27"/>
      <point x="345" y="88" type="curve"/>
      <point x="337" y="145" type="line"/>
      <point x="309" y="93"/>
      <point x="277" y="58"/>
      <point x="231" y="58" type="curve" smooth="yes"/>
      <point x="173" y="58"/>
      <point x="138" y="118"/>
      <point x="138" y="263" type="curve" smooth="yes"/>
      <point x="138" y="409"/>
      <point x="177" y="468"/>
      <point x="235" y="468" type="curve" smooth="yes"/>
      <point x="279" y="468"/>
      <point x="311" y="435"/>
      <point x="338" y="386" type="curve"/>
      <point x="340" y="462" type="line"/>
      <point x="315" y="504"/>
      <point x="276" y="538"/>
    </contour>
    <contour>
      <point x="330" y="749" type="line"/>
      <point x="330" y="123" type="line"/>
      <point x="332" y="89" type="line"/>
      <point x="340" y="0" type="line"/>
      <point x="418" y="0" type="line"/>
      <point x="418" y="739" type="line"/>
    </contour>
  </outline>
</glyph>
<glyph name="e" format="2">
  <advance width="454"/>
  <unicode hex="0065"/>
  <anchor x="244" y="0" name="bottom"/>
  <anchor x="338" y="6" name="ogonek"/>
  <anchor x="233" y="527" name="top"/>
  <outline>
    <contour>
      <point x="234" y="538" type="curve" smooth="yes"/>
      <point x="114" y="538"/>
      <point x="45" y="432"/>
      <point x="45" y="258" type="curve" smooth="yes"/>
      <point x="45" y="81"/>
      <point x="120" y="-12"/>
      <point x="243" y="-12" type="curve" smooth="yes"/>
      <point x="306" y="-12"/>
      <point x="356" y="13"/>
      <point x="398" y="54" type="curve"/>
      <point x="359" y="104" type="line"/>
      <point x="323" y="74"/>
      <point x="291" y="60"/>
      <point x="246" y="60" type="curve" smooth="yes"/>
      <point x="178" y="60"/>
      <point x="135" y="106"/>
      <point x="135" y="264" type="curve" smooth="yes"/>
      <point x="135" y="419"/>
      <point x="173" y="469"/>
      <point x="234" y="469" type="curve" smooth="yes"/>
      <point x="298" y="469"/>
      <point x="329" y="421"/>
      <point x="329" y="305" type="curve" smooth="yes"/>
      <point x="329" y="302"/>
      <point x="329" y="300"/>
      <point x="329" y="298" type="curve"/>
      <point x="124" y="298" type="line"/>
      <point x="125" y="233" type="line"/>
      <point x="412" y="233" type="line"/>
      <point x="413" y="245"/>
      <point x="414" y="261"/>
      <point x="414" y="279" type="curve" smooth="yes"/>
      <point x="414" y="451"/>
      <point x="349" y="538"/>
    </contour>
  </outline>
</glyph>
<glyph name="f" format="2">
  <advance width="283"/>
  <unicode hex="0066"/>
  <anchor x="127" y="0" name="bottom"/>
  <anchor x="217" y="739" name="top"/>
  <outline>
    <contour>
      <point x="226" y="749" type="curve" smooth="yes"/>
      <point x="133" y="749"/>
      <point x="83" y="690"/>
      <point x="83" y="610" type="curve" smooth="yes"/>
      <point x="83" y="0" type="line"/>
      <point x="171" y="0" type="line"/>
      <point x="171" y="611" type="line" smooth="yes"/>
      <point x="171" y="657"/>
      <point x="190" y="678"/>
      <point x="233" y="678" type="curve" smooth="yes"/>
      <point x="255" y="678"/>
      <point x="280" y="673"/>
      <point x="307" y="660" type="curve"/>
      <point x="333" y="722" type="line"/>
      <point x="300" y="739"/>
      <point x="267" y="749"/>
    </contour>
    <contour>
      <point x="277" y="527" type="line"/>
      <point x="10" y="527" type="line"/>
      <point x="10" y="458" type="line"/>
      <point x="267" y="458" type="line"/>
    </contour>
  </outline>
</glyph>
<glyph name="g" format="2">
  <advance width="434"/>
  <unicode hex="0067"/>
  <anchor x="208" y="-201" name="bottom"/>
  <anchor x="217" y="527" name="top"/>
  <outline>
    <contour>
      <point x="406" y="583" type="line"/>
      <point x="359" y="557"/>
      <point x="316" y="538"/>
      <point x="214" y="538" type="curve" smooth="yes"/>
      <point x="110" y="538"/>
      <point x="38" y="466"/>
      <point x="38" y="355" type="curve" smooth="yes"/>
      <point x="38" y="287"/>
      <point x="63" y="239"/>
      <point x="115" y="207" type="curve"/>
      <point x="84" y="182"/>
      <point x="63" y="151"/>
      <point x="63" y="117" type="curve" smooth="yes"/>
      <point x="63" y="61"/>
      <point x="99" y="19"/>
      <point x="201" y="19" type="curve" smooth="yes"/>
      <point x="238" y="19" type="line" smooth="yes"/>
      <point x="299" y="19"/>
      <point x="330" y="-6"/>
      <point x="330" y="-59" type="curve" smooth="yes"/>
      <point x="330" y="-111"/>
      <point x="299" y="-143"/>
      <point x="210" y="-143" type="curve" smooth="yes"/>
      <point x="118" y="-143"/>
      <point x="96" y="-115"/>
      <point x="96" y="-53" type="curve"/>
      <point x="18" y="-53" type="line"/>
      <point x="18" y="-150"/>
      <point x="63" y="-212"/>
      <point x="209" y="-212" type="curve" smooth="yes"/>
      <point x="347" y="-212"/>
      <point x="417" y="-146"/>
      <point x="417" y="-53" type="curve" smooth="yes"/>
      <point x="417" y="24"/>
      <point x="357" y="89"/>
      <point x="255" y="89" type="curve" smooth="yes"/>
      <point x="197" y="89" type="line" smooth="yes"/>
      <point x="153" y="89"/>
      <point x="142" y="109"/>
      <point x="142" y="136" type="curve" smooth="yes"/>
      <point x="142" y="156"/>
      <point x="150" y="175"/>
      <point x="163" y="186" type="curve"/>
      <point x="180" y="179"/>
      <point x="197" y="176"/>
      <point x="216" y="176" type="curve" smooth="yes"/>
      <point x="322" y="176"/>
      <point x="385" y="247"/>
      <point x="385" y="354" type="curve" smooth="yes"/>
      <point x="385" y="416"/>
      <point x="359" y="460"/>
      <point x="308" y="488" type="curve"/>
      <point x="359" y="488"/>
      <point x="399" y="490"/>
      <point x="432" y="504" type="curve"/>
    </contour>
    <contour>
      <point x="213" y="475" type="curve" smooth="yes"/>
      <point x="271" y="475"/>
      <point x="298" y="434"/>
      <point x="298" y="356" type="curve" smooth="yes"/>
      <point x="298" y="266"/>
      <point x="268" y="235"/>
      <point x="212" y="235" type="curve" smooth="yes"/>
      <point x="156" y="235"/>
      <point x="125" y="284"/>
      <point x="125" y="355" type="curve" smooth="yes"/>
      <point x="125" y="438"/>
      <point x="155" y="475"/>
    </contour>
  </outline>
</glyph>
<glyph name="h" format="2">
  <advance width="482"/>
  <unicode hex="0068"/>
  <anchor x="244" y="0" name="bottom"/>
  <anchor x="241" y="264" name="center"/>
  <anchor x="241" y="739" name="top"/>
  <outline>
    <contour>
      <point x="325" y="0" type="line"/>
      <point x="413" y="0" type="line"/>
      <point x="413" y="377" type="line" smooth="yes"/>
      <point x="413" y="478"/>
      <point x="365" y="538"/>
      <point x="288" y="538" type="curve" smooth="yes"/>
      <point x="219" y="538"/>
      <point x="181" y="494"/>
      <point x="147" y="428" type="curve"/>
      <point x="161" y="371" type="line"/>
      <point x="191" y="431"/>
      <point x="226" y="469"/>
      <point x="267" y="469" type="curve" smooth="yes"/>
      <point x="304" y="469"/>
      <point x="325" y="445"/>
      <point x="325" y="365" type="curve" smooth="yes"/>
    </contour>
    <contour>
      <point x="73" y="0" type="line"/>
      <point x="161" y="0" type="line"/>
      <point x="161" y="747" type="line"/>
      <point x="73" y="738" type="line"/>
    </contour>
  </outline>
</glyph>
<glyph name="k" format="2">
  <advance width="428"/>
  <unicode hex="006B"/>
  <anchor x="217" y="0" name="bottom"/>
  <anchor x="235" y="739" name="top"/>
  <outline>
    <contour>
      <point x="415" y="527" type="line"/>
      <point x="325" y="527" type="line"/>
      <point x="166" y="288" type="line"/>
      <point x="333" y="0" type="line"/>
      <point x="431" y="0" type="line"/>
      <point x="257" y="293" type="line"/>
    </contour>
    <contour>
      <point x="161" y="749" type="line"/>
      <point x="73" y="739" type="line"/>
      <point x="73" y="0" type="line"/>
      <point x="161" y="0" type="line"/>
    </contour>
  </outline>
</glyph>
<glyph name="l" format="2">
  <advance width="244"/>
  <unicode hex="006C"/>
  <anchor x="148" y="0" name="bottom"/>
  <anchor x="257" y="380" name="center"/>
  <anchor x="112" y="739" name="top"/>
  <anchor x="166" y="739" name="topright"/>
  <outline>
    <contour>
      <point x="165" y="-12" type="curve"/>
      <point x="190" y="-12"/>
      <point x="213" y="-4"/>
      <point x="229" y="6" type="curve"/>
      <point x="209" y="66" type="line"/>
      <point x="204" y="64"/>
      <point x="194" y="61"/>
      <point x="184" y="61" type="curve" smooth="yes"/>
      <point x="164" y="61"/>
      <point x="156" y="75"/>
      <point x="156" y="94" type="curve" smooth="yes"/>
      <point x="156" y="749" type="line"/>
      <point x="68" y="739" type="line"/>
      <point x="68" y="92" type="line" smooth="yes"/>
      <point x="68" y="28"/>
      <point x="107" y="-12"/>
    </contour>
  </outline>
</glyph>
<glyph name="m" format="2">
  <advance width="703"/>
  <unicode hex="006D"/>
  <anchor x="352" y="0" name="bottom"/>
  <anchor x="352" y="527" name="top"/>
  <outline>
    <contour>
      <point x="280" y="538" type="curve" smooth="yes"/>
      <point x="219" y="538"/>
      <point x="177" y="494"/>
      <point x="147" y="437" type="curve"/>
      <point x="159" y="376" type="line"/>
      <point x="185" y="432"/>
      <point x="219" y="470"/>
      <point x="258" y="470" type="curve" smooth="yes"/>
      <point x="289" y="470"/>
      <point x="311" y="446"/>
      <point x="311" y="366" type="curve" smooth="yes"/>
      <point x="311" y="0" type="line"/>
      <point x="397" y="0" type="line"/>
      <point x="397" y="379" type="line"/>
      <point x="394" y="407" type="line"/>
      <point x="385" y="489"/>
      <point x="343" y="538"/>
    </contour>
    <contour>
      <point x="149" y="527" type="line"/>
      <point x="73" y="527" type="line"/>
      <point x="73" y="0" type="line"/>
      <point x="159" y="0" type="line"/>
      <point x="159" y="397" type="line"/>
    </contour>
    <contour>
      <point x="517" y="538" type="curve" smooth="yes"/>
      <point x="456" y="538"/>
      <point x="414" y="494"/>
      <point x="383" y="437" type="curve"/>
      <point x="397" y="376" type="line"/>
      <point x="424" y="432"/>
      <point x="457" y="470"/>
      <point x="495" y="470" type="curve" smooth="yes"/>
      <point x="528" y="470"/>
      <point x="548" y="446"/>
      <point x="548" y="366" type="curve" smooth="yes"/>
      <point x="548" y="0" type="line"/>
      <point x="634" y="0" type="line"/>
      <point x="634" y="377" type="line" smooth="yes"/>
      <point x="634" y="477"/>
      <point x="588" y="538"/>
    </contour>
  </outline>
</glyph>
<glyph name="n" format="2">
  <advance width="482"/>
  <unicode hex="006E"/>
  <anchor x="241" y="0" name="bottom"/>
  <anchor x="245" y="527" name="top"/>
  <anchor x="65" y="527" name="topleft"/>
  <outline>
    <contour>
      <point x="288" y="538" type="curve" smooth="yes"/>
      <point x="219" y="538"/>
      <point x="181" y="494"/>
      <point x="147" y="431" type="curve"/>
      <point x="161" y="371" type="line"/>
      <point x="191" y="431"/>
      <point x="226" y="469"/>
      <point x="267" y="469" type="curve" smooth="yes"/>
      <point x="304" y="469"/>
      <point x="325" y="445"/>
      <point x="325" y="365" type="curve" smooth="yes"/>
      <point x="325" y="0" type="line"/>
      <point x="413" y="0" type="line"/>
      <point x="413" y="377" type="line" smooth="yes"/>
      <point x="413" y="478"/>
      <point x="365" y="538"/>
    </contour>
    <contour>
      <point x="149" y="527" type="line"/>
      <point x="73" y="527" type="line"/>
      <point x="73" y="0" type="line"/>
      <point x="161" y="0" type="line"/>
      <point x="161" y="397" type="line"/>
    </contour>
  </outline>
</glyph>
<glyph name="o" format="2">
  <advance width="485"/>
  <unicode hex="006F"/>
  <anchor x="242" y="0" name="bottom"/>
  <anchor x="319" y="0" name="ogonek"/>
  <anchor x="242" y="527" name="top"/>
  <anchor x="398" y="527" name="topright"/>
  <outline>
    <contour>
      <point x="243" y="538" type="curve" smooth="yes"/>
      <point x="118" y="538"/>
      <point x="45" y="441"/>
      <point x="45" y="263" type="curve" smooth="yes"/>
      <point x="45" y="91"/>
      <point x="118" y="-12"/>
      <point x="242" y="-12" type="curve" smooth="yes"/>
      <point x="366" y="-12"/>
      <point x="440" y="95"/>
      <point x="440" y="264" type="curve" smooth="yes"/>
      <point x="440" y="446"/>
      <point x="367" y="538"/>
    </contour>
    <contour>
      <point x="243" y="467" type="curve" smooth="yes"/>
      <point x="310" y="467"/>
      <point x="347" y="412"/>
      <point x="347" y="264" type="curve" smooth="yes"/>
      <point x="347" y="115"/>
      <point x="310" y="59"/>
      <point x="242" y="59" type="curve" smooth="yes"/>
      <point x="175" y="59"/>
      <point x="138" y="115"/>
      <point x="138" y="263" type="curve" smooth="yes"/>
      <point x="138" y="412"/>
      <point x="175" y="467"/>
    </contour>
  </outline>
</glyph>
<glyph name="p" format="2">
  <advance width="488"/>
  <unicode hex="0070"/>
  <anchor x="245" y="-201" name="bottom"/>
  <anchor x="245" y="527" name="top"/>
  <outline>
    <contour>
      <point x="286" y="538" type="curve" smooth="yes"/>
      <point x="224" y="538"/>
      <point x="180" y="503"/>
      <point x="147" y="443" type="curve"/>
      <point x="154" y="378" type="line"/>
      <point x="177" y="422"/>
      <point x="212" y="468"/>
      <point x="262" y="468" type="curve" smooth="yes"/>
      <point x="321" y="468"/>
      <point x="350" y="412"/>
      <point x="350" y="264" type="curve" smooth="yes"/>
      <point x="350" y="116"/>
      <point x="314" y="60"/>
      <point x="254" y="60" type="curve" smooth="yes"/>
      <point x="210" y="60"/>
      <point x="176" y="90"/>
      <point x="153" y="135" type="curve"/>
      <point x="153" y="58" type="line"/>
      <point x="182" y="13"/>
      <point x="222" y="-12"/>
      <point x="273" y="-12" type="curve" smooth="yes"/>
      <point x="383" y="-12"/>
      <point x="443" y="94"/>
      <point x="443" y="264" type="curve" smooth="yes"/>
      <point x="443" y="440"/>
      <point x="389" y="538"/>
    </contour>
    <contour>
      <point x="150" y="527" type="line"/>
      <point x="73" y="527" type="line"/>
      <point x="73" y="-212" type="line"/>
      <point x="161" y="-201" type="line"/>
      <point x="161" y="401" type="line"/>
      <point x="157" y="438" type="line"/>
    </contour>
  </outline>
</glyph>
<glyph name="q" format="2">
  <advance width="491"/>
  <unicode hex="0071"/>
  <anchor x="247" y="-201" name="bottom"/>
  <anchor x="247" y="527" name="top"/>
  <outline>
    <contour>
      <point x="330" y="447" type="line"/>
      <point x="330" y="-201" type="line"/>
      <point x="418" y="-212" type="line"/>
      <point x="418" y="527" type="line"/>
      <point x="342" y="527" type="line"/>
      <point x="336" y="460" type="line"/>
    </contour>
    <contour>
      <point x="217" y="538" type="curve" smooth="yes"/>
      <point x="114" y="538"/>
      <point x="45" y="432"/>
      <point x="45" y="261" type="curve" smooth="yes"/>
      <point x="45" y="87"/>
      <point x="108" y="-12"/>
      <point x="212" y="-12" type="curve" smooth="yes"/>
      <point x="271" y="-12"/>
      <point x="314" y="27"/>
      <point x="340" y="83" type="curve"/>
      <point x="337" y="150" type="line"/>
      <point x="308" y="92"/>
      <point x="278" y="58"/>
      <point x="231" y="58" type="curve" smooth="yes"/>
      <point x="174" y="58"/>
      <point x="138" y="113"/>
      <point x="138" y="263" type="curve" smooth="yes"/>
      <point x="138" y="411"/>
      <point x="180" y="468"/>
      <point x="234" y="468" type="curve" smooth="yes"/>
      <point x="278" y="468"/>
      <point x="311" y="435"/>
      <point x="338" y="386" type="curve"/>
      <point x="341" y="462" type="line"/>
      <point x="315" y="504"/>
      <point x="275" y="538"/>
    </contour>
  </outline>
</glyph>
<glyph name="r" format="2">
  <advance width="323"/>
  <unicode hex="0072"/>
  <anchor x="117" y="0" name="bottom"/>
  <anchor x="196" y="527" name="top"/>
  <outline>
    <contour>
      <point x="275" y="538" type="curve" smooth="yes"/>
      <point x="214" y="538"/>
      <point x="172" y="494"/>
      <point x="148" y="401" type="curve"/>
      <point x="157" y="287" type="line"/>
      <point x="174" y="397"/>
      <point x="207" y="452"/>
      <point x="264" y="452" type="curve" smooth="yes"/>
      <point x="278" y="452"/>
      <point x="288" y="450"/>
      <point x="300" y="447" type="curve"/>
      <point x="315" y="532" type="line"/>
      <point x="303" y="536"/>
      <point x="290" y="538"/>
    </contour>
    <contour>
      <point x="149" y="527" type="line"/>
      <point x="73" y="527" type="line"/>
      <point x="73" y="0" type="line"/>
      <point x="161" y="0" type="line"/>
      <point x="161" y="364" type="line"/>
      <point x="158" y="408" type="line"/>
    </contour>
  </outline>
</glyph>
<glyph name="s" format="2">
  <advance width="393"/>
  <unicode hex="0073"/>
  <anchor x="197" y="0" name="bottom"/>
  <anchor x="204" y="527" name="top"/>
  <outline>
    <contour>
      <point x="201" y="538" type="curve" smooth="yes"/>
      <point x="105" y="538"/>
      <point x="39" y="475"/>
      <point x="39" y="394" type="curve" smooth="yes"/>
      <point x="39" y="325"/>
      <point x="75" y="280"/>
      <point x="169" y="245" type="curve" smooth="yes"/>
      <point x="251" y="215"/>
      <point x="273" y="194"/>
      <point x="273" y="141" type="curve" smooth="yes"/>
      <point x="273" y="87"/>
      <point x="238" y="57"/>
      <point x="185" y="57" type="curve" smooth="yes"/>
      <point x="139" y="57"/>
      <point x="100" y="76"/>
      <point x="66" y="106" type="curve"/>
      <point x="20" y="57" type="line"/>
      <point x="59" y="17"/>
      <point x="114" y="-12"/>
      <point x="187" y="-12" type="curve" smooth="yes"/>
      <point x="281" y="-12"/>
      <point x="363" y="41"/>
      <point x="363" y="146" type="curve" smooth="yes"/>
      <point x="363" y="232"/>
      <point x="314" y="273"/>
      <point x="223" y="306" type="curve" smooth="yes"/>
      <point x="149" y="333"/>
      <point x="127" y="353"/>
      <point x="127" y="397" type="curve" smooth="yes"/>
      <point x="127" y="443"/>
      <point x="156" y="470"/>
      <point x="203" y="470" type="curve" smooth="yes"/>
      <point x="243" y="470"/>
      <point x="276" y="455"/>
      <point x="313" y="428" type="curve"/>
      <point x="350" y="479" type="line"/>
      <point x="310" y="517"/>
      <point x="262" y="538"/>
    </contour>
  </outline>
</glyph>
<glyph name="t" format="2">
  <advance width="306"/>
  <unicode hex="0074"/>
  <anchor x="194" y="0" name="bottom"/>
  <anchor x="152" y="264" name="center"/>
  <anchor x="125" y="646" name="top"/>
  <anchor x="166" y="747" name="topright"/>
  <outline>
    <contour>
      <point x="169" y="657" type="line"/>
      <point x="81" y="646" type="line"/>
      <point x="81" y="117" type="line" smooth="yes"/>
      <point x="81" y="39"/>
      <point x="125" y="-12"/>
      <point x="205" y="-12" type="curve" smooth="yes"/>
      <point x="242" y="-12"/>
      <point x="276" y="0"/>
      <point x="306" y="24" type="curve"/>
      <point x="272" y="78" type="line"/>
      <point x="252" y="67"/>
      <point x="238" y="61"/>
      <point x="219" y="61" type="curve" smooth="yes"/>
      <point x="183" y="61"/>
      <point x="169" y="82"/>
      <point x="169" y="116" type="curve" smooth="yes"/>
    </contour>
    <contour>
      <point x="271" y="527" type="line"/>
      <point x="10" y="527" type="line"/>
      <point x="10" y="458" type="line"/>
      <point x="262" y="458" type="line"/>
    </contour>
  </outline>
</glyph>
<glyph name="u" format="2">
  <advance width="479"/>
  <unicode hex="0075"/>
  <anchor x="238" y="0" name="bottom"/>
  <anchor x="414" y="0" name="ogonek"/>
  <anchor x="238" y="527" name="top"/>
  <anchor x="414" y="527" name="topright"/>
  <outline>
    <contour>
      <point x="406" y="527" type="line"/>
      <point x="318" y="527" type="line"/>
      <point x="318" y="146" type="line"/>
      <point x="293" y="96"/>
      <point x="261" y="57"/>
      <point x="214" y="57" type="curve" smooth="yes"/>
      <point x="176" y="57"/>
      <point x="157" y="85"/>
      <point x="157" y="138" type="curve" smooth="yes"/>
      <point x="157" y="527" type="line"/>
      <point x="69" y="527" type="line"/>
      <point x="69" y="129" type="line" smooth="yes"/>
      <point x="69" y="46"/>
      <point x="118" y="-12"/>
      <point x="194" y="-12" type="curve" smooth="yes"/>
      <point x="252" y="-12"/>
      <point x="292" y="19"/>
      <point x="324" y="74" type="curve"/>
      <point x="330" y="0" type="line"/>
      <point x="406" y="0" type="line"/>
    </contour>
  </outline>
</glyph>
<glyph name="v" format="2">
  <advance width="416"/>
  <unicode hex="0076"/>
  <anchor x="210" y="0" name="bottom"/>
  <anchor x="211" y="527" name="top"/>
  <outline>
    <contour>
      <point x="406" y="527" type="line"/>
      <point x="318" y="527" type="line"/>
      <point x="210" y="78" type="line"/>
      <point x="101" y="527" type="line"/>
      <point x="10" y="527" type="line"/>
      <point x="158" y="0" type="line"/>
      <point x="262" y="0" type="line"/>
    </contour>
  </outline>
</glyph>
<glyph name="w" format="2">
  <advance width="607"/>
  <unicode hex="0077"/>
  <anchor x="304" y="0" name="bottom"/>
  <anchor x="306" y="527" name="top"/>
  <outline>
    <contour>
      <point x="587" y="527" type="line"/>
      <point x="505" y="527" type="line"/>
      <point x="431" y="65" type="line"/>
      <point x="357" y="527" type="line"/>
      <point x="254" y="527" type="line"/>
      <point x="178" y="65" type="line"/>
      <point x="106" y="527" type="line"/>
      <point x="20" y="527" type="line"/>
      <point x="118" y="0" type="line"/>
      <point x="233" y="0" type="line"/>
      <point x="303" y="445" type="line"/>
      <point x="374" y="0" type="line"/>
      <point x="491" y="0" type="line"/>
    </contour>
  </outline>
</glyph>
<glyph name="x" format="2">
  <advance width="410"/>
  <unicode hex="0078"/>
  <anchor x="202" y="0" name="bottom"/>
  <anchor x="367" y="0" name="bottomright"/>
  <anchor x="206" y="527" name="top"/>
  <outline>
    <contour>
      <point x="114" y="527" type="line"/>
      <point x="21" y="527" type="line"/>
      <point x="154" y="278" type="line"/>
      <point x="203" y="227" type="line"/>
      <point x="310" y="0" type="line"/>
      <point x="405" y="0" type="line"/>
      <point x="256" y="282" type="line"/>
      <point x="205" y="330" type="line"/>
    </contour>
    <contour>
      <point x="386" y="527" type="line"/>
      <point x="296" y="527" type="line"/>
      <point x="205" y="330" type="line"/>
      <point x="154" y="278" type="line"/>
      <point x="5" y="0" type="line"/>
      <point x="96" y="0" type="line"/>
      <point x="203" y="227" type="line"/>
      <point x="256" y="282" type="line"/>
    </contour>
  </outline>
</glyph>
<glyph name="y" format="2">
  <advance width="418"/>
  <unicode hex="0079"/>
  <anchor x="210" y="-201" name="bottom"/>
  <anchor x="209" y="527" name="top"/>
  <outline>
    <contour>
      <point x="408" y="527" type="line"/>
      <point x="319" y="527" type="line"/>
      <point x="210" y="64" type="line"/>
      <point x="100" y="527" type="line"/>
      <point x="10" y="527" type="line"/>
      <point x="152" y="0" type="line"/>
      <point x="185" y="0" type="line"/>
      <point x="160" y="-85"/>
      <point x="131" y="-126"/>
      <point x="44" y="-145" type="curve"/>
      <point x="54" y="-212" type="line"/>
      <point x="176" y="-195"/>
      <point x="233" y="-115"/>
      <point x="264" y="-3" type="curve" smooth="yes"/>
    </contour>
  </outline>
</glyph>
<glyph name="z" format="2">
  <advance width="362"/>
  <unicode hex="007A"/>
  <anchor x="178" y="0" name="bottom"/>
  <anchor x="183" y="527" name="top"/>
  <outline>
    <contour>
      <point x="338" y="527" type="line"/>
      <point x="37" y="527" type="line"/>
      <point x="37" y="452" type="line"/>
      <point x="245" y="452" type="line"/>
      <point x="18" y="66" type="line"/>
      <point x="18" y="0" type="line"/>
      <point x="331" y="0" type="line"/>
      <point x="340" y="74" type="line"/>
      <point x="111" y="74" type="line"/>
      <point x="338" y="459" type="line"/>
    </contour>
  </outline>
</glyph>
<glyph name="braceleft" format="2">
  <advance width="265"/>
  <unicode hex="007B"/>
  <outline>
    <contour>
      <point x="231" y="835" type="line"/>
      <point x="116" y="835"/>
      <point x="76" y="790"/>
      <point x="76" y="689" type="curve" smooth="yes"/>
      <point x="76" y="463" type="line" smooth="yes"/>
      <point x="76" y="408"/>
      <point x="62" y="385"/>
      <point x="19" y="385" type="curve"/>
      <point x="19" y="313" type="line"/>
      <point x="62" y="313"/>
      <point x="76" y="292"/>
      <point x="76" y="237" type="curve" smooth="yes"/>
      <point x="76" y="11" type="line" smooth="yes"/>
      <point x="76" y="-90"/>
      <point x="117" y="-135"/>
      <point x="231" y="-135" type="curve"/>
      <point x="231" y="-70" type="line"/>
      <point x="175" y="-70"/>
      <point x="156" y="-52"/>
      <point x="156" y="2" type="curve" smooth="yes"/>
      <point x="156" y="243" type="line" smooth="yes"/>
      <point x="156" y="315"/>
      <point x="131" y="333"/>
      <point x="85" y="349" type="curve"/>
      <point x="131" y="365"/>
      <point x="155" y="385"/>
      <point x="155" y="457" type="curve" smooth="yes"/>
      <point x="155" y="698" type="line" smooth="yes"/>
      <point x="155" y="751"/>
      <point x="175" y="770"/>
      <point x="231" y="770" type="curve"/>
    </contour>
  </outline>
</glyph>
<glyph name="bar" format="2">
  <advance width="325"/>
  <unicode hex="007C"/>
  <outline>
    <contour>
      <point x="203" y="807" type="line"/>
      <point x="122" y="807" type="line"/>
      <point x="122" y="-102" type="line"/>
      <point x="203" y="-102" type="line"/>
    </contour>
  </outline>
</glyph>
<glyph name="braceright" format="2">
  <advance width="265"/>
  <unicode hex="007D"/>
  <outline>
    <contour>
      <point x="34" y="835" type="curve"/>
      <point x="36" y="770" type="line"/>
      <point x="89" y="770"/>
      <point x="109" y="751"/>
      <point x="109" y="698" type="curve" smooth="yes"/>
      <point x="109" y="457" type="line" smooth="yes"/>
      <point x="109" y="385"/>
      <point x="132" y="365"/>
      <point x="180" y="349" type="curve"/>
      <point x="133" y="333"/>
      <point x="109" y="315"/>
      <point x="109" y="243" type="curve" smooth="yes"/>
      <point x="109" y="2" type="line" smooth="yes"/>
      <point x="109" y="-52"/>
      <point x="89" y="-70"/>
      <point x="34" y="-70" type="curve"/>
      <point x="34" y="-135" type="line"/>
      <point x="148" y="-135"/>
      <point x="189" y="-90"/>
      <point x="189" y="11" type="curve" smooth="yes"/>
      <point x="189" y="237" type="line" smooth="yes"/>
      <point x="189" y="292"/>
      <point x="203" y="313"/>
      <point x="246" y="313" type="curve"/>
      <point x="246" y="385" type="line"/>
      <point x="203" y="385"/>
      <point x="189" y="408"/>
      <point x="189" y="463" type="curve" smooth="yes"/>
      <point x="189" y="689" type="line" smooth="yes"/>
      <point x="189" y="790"/>
      <point x="148" y="835"/>
    </contour>
  </outline>
</glyph>
<glyph name="asciitilde" format="2">
  <advance width="405"/>
  <unicode hex="007E"/>
  <anchor x="344" y="332" name="_center"/>
  <outline>
    <contour>
      <point x="269" y="254" type="curve" smooth="yes"/>
      <point x="324" y="254"/>
      <point x="359" y="300"/>
      <point x="379" y="341" type="curve"/>
      <point x="330" y="368" type="line"/>
      <point x="315" y="343"/>
      <point x="298" y="322"/>
      <point x="272" y="322" type="curve" smooth="yes"/>
      <point x="232" y="322"/>
      <point x="199" y="380"/>
      <point x="139" y="380" type="curve" smooth="yes"/>
      <point x="81" y="380"/>
      <point x="46" y="329"/>
      <point x="26" y="288" type="curve"/>
      <point x="75" y="261" type="line"/>
      <point x="90" y="286"/>
      <point x="107" y="313"/>
      <point x="133" y="313" type="curve" smooth="yes"/>
      <point x="173" y="313"/>
      <point x="206" y="254"/>
    </contour>
  </outline>
</glyph>
<glyph name="exclamdown" format="2">
  <advance width="219"/>
  <unicode hex="00A1"/>
  <outline>
    <contour>
      <point x="146" y="252" type="line"/>
      <point x="74" y="252" type="line"/>
      <point x="63" y="-202" type="line"/>
      <point x="158" y="-202" type="line"/>
    </contour>
    <contour>
      <point x="110" y="493" type="curve" smooth="yes"/>
      <point x="70" y="493"/>
      <point x="45" y="462"/>
      <point x="45" y="427" type="curve" smooth="yes"/>
      <point x="45" y="392"/>
      <point x="70" y="361"/>
      <point x="110" y="361" type="curve" smooth="yes"/>
      <point x="149" y="361"/>
      <point x="174" y="392"/>
      <point x="174" y="427" type="curve" smooth="yes"/>
      <point x="174" y="462"/>
      <point x="149" y="493"/>
    </contour>
  </outline>
</glyph>
<glyph name="cent" format="2">
  <advance width="391"/>
  <unicode hex="00A2"/>
  <anchor x="235" y="0" name="bottom"/>
  <anchor x="241" y="527" name="top"/>
  <outline>
    <contour>
      <point x="272" y="684" type="line"/>
      <point x="202" y="684" type="line"/>
      <point x="202" y="533" type="line"/>
      <point x="272" y="534" type="line"/>
    </contour>
    <contour>
      <point x="201" y="-6" type="line"/>
      <point x="201" y="-154" type="line"/>
      <point x="272" y="-154" type="line"/>
      <point x="272" y="-7" type="line"/>
    </contour>
    <component base="c"/>
  </outline>
</glyph>
<glyph name="sterling" format="2">
  <advance width="436"/>
  <unicode hex="00A3"/>
  <outline>
    <contour>
      <point x="260" y="679" type="curve" smooth="yes"/>
      <point x="159" y="679"/>
      <point x="99" y="605"/>
      <point x="99" y="504" type="curve" smooth="yes"/>
      <point x="99" y="201" type="line"/>
      <point x="99" y="120"/>
      <point x="88" y="95"/>
      <point x="31" y="70" type="curve"/>
      <point x="31" y="0" type="line"/>
      <point x="384" y="0" type="line"/>
      <point x="394" y="74" type="line"/>
      <point x="124" y="74" type="line"/>
      <point x="175" y="101"/>
      <point x="185" y="135"/>
      <point x="185" y="200" type="curve"/>
      <point x="185" y="506" type="line" smooth="yes"/>
      <point x="185" y="573"/>
      <point x="213" y="608"/>
      <point x="266" y="608" type="curve" smooth="yes"/>
      <point x="304" y="608"/>
      <point x="328" y="590"/>
      <point x="354" y="555" type="curve"/>
      <point x="409" y="597" type="line"/>
      <point x="370" y="652"/>
      <point x="322" y="679"/>
    </contour>
    <contour>
      <point x="351" y="381" type="line"/>
      <point x="44" y="381" type="line"/>
      <point x="44" y="323" type="line"/>
      <point x="351" y="323" type="line"/>
    </contour>
  </outline>
</glyph>
<glyph name="currency" format="2">
  <advance width="460"/>
  <unicode hex="00A4"/>
  <outline>
    <contour>
      <point x="227" y="547" type="curve" smooth="yes"/>
      <point x="128" y="547"/>
      <point x="57" y="465"/>
      <point x="57" y="341" type="curve" smooth="yes"/>
      <point x="57" y="216"/>
      <point x="128" y="134"/>
      <point x="227" y="134" type="curve" smooth="yes"/>
      <point x="333" y="134"/>
      <point x="402" y="216"/>
      <point x="402" y="341" type="curve" smooth="yes"/>
      <point x="402" y="465"/>
      <point x="333" y="547"/>
    </contour>
    <contour>
      <point x="69" y="90" type="line"/>
      <point x="141" y="177" type="line"/>
      <point x="98" y="228" type="line"/>
      <point x="18" y="136" type="line"/>
    </contour>
    <contour>
      <point x="390" y="90" type="line"/>
      <point x="445" y="134" type="line"/>
      <point x="366" y="229" type="line"/>
      <point x="318" y="179" type="line"/>
    </contour>
    <contour>
      <point x="69" y="593" type="line"/>
      <point x="14" y="549" type="line"/>
      <point x="93" y="454" type="line"/>
      <point x="141" y="504" type="line"/>
    </contour>
    <contour>
      <point x="390" y="593" type="line"/>
      <point x="318" y="506" type="line"/>
      <point x="361" y="455" type="line"/>
      <point x="441" y="547" type="line"/>
    </contour>
    <contour>
      <point x="229" y="481" type="curve" smooth="yes"/>
      <point x="291" y="481"/>
      <point x="323" y="438"/>
      <point x="323" y="342" type="curve" smooth="yes"/>
      <point x="323" y="245"/>
      <point x="291" y="203"/>
      <point x="229" y="203" type="curve" smooth="yes"/>
      <point x="167" y="203"/>
      <point x="134" y="245"/>
      <point x="134" y="342" type="curve" smooth="yes"/>
      <point x="134" y="438"/>
      <point x="167" y="481"/>
    </contour>
  </outline>
</glyph>
<glyph name="yen" format="2">
  <advance width="445"/>
  <unicode hex="00A5"/>
  <outline>
    <contour>
      <point x="443" y="669" type="line"/>
      <point x="355" y="669" type="line"/>
      <point x="224" y="371" type="line"/>
      <point x="94" y="669" type="line"/>
      <point x="2" y="669" type="line"/>
      <point x="178" y="303" type="line"/>
      <point x="178" y="0" type="line"/>
      <point x="267" y="0" type="line"/>
      <point x="267" y="304" type="line"/>
    </contour>
    <contour>
      <point x="379" y="194" type="line"/>
      <point x="66" y="194" type="line"/>
      <point x="66" y="135" type="line"/>
      <point x="379" y="135" type="line"/>
    </contour>
    <contour>
      <point x="379" y="345" type="line"/>
      <point x="66" y="345" type="line"/>
      <point x="66" y="285" type="line"/>
      <point x="379" y="285" type="line"/>
    </contour>
  </outline>
</glyph>
<glyph name="brokenbar" format="2">
  <advance width="325"/>
  <unicode hex="00A6"/>
  <outline>
    <contour>
      <point x="203" y="807" type="line"/>
      <point x="122" y="807" type="line"/>
      <point x="122" y="443" type="line"/>
      <point x="203" y="443" type="line"/>
    </contour>
    <contour>
      <point x="203" y="262" type="line"/>
      <point x="122" y="262" type="line"/>
      <point x="122" y="-102" type="line"/>
      <point x="203" y="-102" type="line"/>
    </contour>
  </outline>
</glyph>
<glyph name="section" format="2">
  <advance width="442"/>
  <unicode hex="00A7"/>
  <outline>
    <contour>
      <point x="232" y="677" type="curve" smooth="yes"/>
      <point x="146" y="677"/>
      <point x="75" y="624"/>
      <point x="75" y="534" type="curve" smooth="yes"/>
      <point x="75" y="457"/>
      <point x="119" y="421"/>
      <point x="218" y="378" type="curve" smooth="yes"/>
      <point x="289" y="347"/>
      <point x="306" y="327"/>
      <point x="306" y="285" type="curve" smooth="yes"/>
      <point x="306" y="247"/>
      <point x="291" y="218"/>
      <point x="265" y="192" type="curve"/>
      <point x="313" y="164" type="line"/>
      <point x="355" y="194"/>
      <point x="387" y="237"/>
      <point x="387" y="297" type="curve" smooth="yes"/>
      <point x="387" y="368"/>
      <point x="344" y="403"/>
      <point x="260" y="438" type="curve" smooth="yes"/>
      <point x="175" y="473"/>
      <point x="161" y="495"/>
      <point x="161" y="538" type="curve" smooth="yes"/>
      <point x="161" y="582"/>
      <point x="190" y="609"/>
      <point x="238" y="609" type="curve" smooth="yes"/>
      <point x="277" y="609"/>
      <point x="310" y="594"/>
      <point x="342" y="571" type="curve"/>
      <point x="377" y="623" type="line"/>
      <point x="340" y="655"/>
      <point x="296" y="677"/>
    </contour>
    <contour>
      <point x="139" y="444" type="line"/>
      <point x="89" y="417"/>
      <point x="55" y="368"/>
      <point x="55" y="312" type="curve" smooth="yes"/>
      <point x="55" y="232"/>
      <point x="98" y="198"/>
      <point x="182" y="164" type="curve" smooth="yes"/>
      <point x="267" y="130"/>
      <point x="282" y="113"/>
      <point x="282" y="70" type="curve" smooth="yes"/>
      <point x="282" y="22"/>
      <point x="250" y="-2"/>
      <point x="204" y="-2" type="curve" smooth="yes"/>
      <point x="162" y="-2"/>
      <point x="127" y="11"/>
      <point x="96" y="34" type="curve"/>
      <point x="61" y="-21" type="line"/>
      <point x="97" y="-50"/>
      <point x="144" y="-71"/>
      <point x="209" y="-71" type="curve" smooth="yes"/>
      <point x="300" y="-71"/>
      <point x="368" y="-15"/>
      <point x="368" y="74" type="curve" smooth="yes"/>
      <point x="368" y="150"/>
      <point x="320" y="186"/>
      <point x="222" y="226" type="curve" smooth="yes"/>
      <point x="153" y="254"/>
      <point x="137" y="274"/>
      <point x="137" y="323" type="curve" smooth="yes"/>
      <point x="137" y="357"/>
      <point x="150" y="387"/>
      <point x="177" y="414" type="curve"/>
    </contour>
  </outline>
</glyph>
<glyph name="copyright" format="2">
  <advance width="664"/>
  <unicode hex="00A9"/>
  <outline>
    <contour>
      <point x="333" y="747" type="curve" smooth="yes"/>
      <point x="187" y="747"/>
      <point x="71" y="628"/>
      <point x="71" y="434" type="curve" smooth="yes"/>
      <point x="71" y="241"/>
      <point x="187" y="122"/>
      <point x="333" y="122" type="curve" smooth="yes"/>
      <point x="478" y="122"/>
      <point x="593" y="241"/>
      <point x="593" y="434" type="curve" smooth="yes"/>
      <point x="593" y="628"/>
      <point x="478" y="747"/>
    </contour>
    <contour>
      <point x="337" y="624" type="curve" smooth="yes"/>
      <point x="259" y="624"/>
      <point x="199" y="564"/>
      <point x="199" y="435" type="curve" smooth="yes"/>
      <point x="199" y="308"/>
      <point x="260" y="246"/>
      <point x="335" y="246" type="curve" smooth="yes"/>
      <point x="382" y="246"/>
      <point x="411" y="267"/>
      <point x="435" y="291" type="curve"/>
      <point x="405" y="334" type="line"/>
      <point x="386" y="319"/>
      <point x="367" y="307"/>
      <point x="339" y="307" type="curve" smooth="yes"/>
      <point x="297" y="307"/>
      <point x="268" y="342"/>
      <point x="268" y="435" type="curve" smooth="yes"/>
      <point x="268" y="534"/>
      <point x="299" y="566"/>
      <point x="338" y="566" type="curve" smooth="yes"/>
      <point x="362" y="566"/>
      <point x="381" y="557"/>
      <point x="402" y="542" type="curve"/>
      <point x="432" y="585" type="line"/>
      <point x="405" y="609"/>
      <point x="375" y="624"/>
    </contour>
    <contour>
      <point x="333" y="696" type="curve" smooth="yes"/>
      <point x="450" y="696"/>
      <point x="538" y="600"/>
      <point x="538" y="434" type="curve" smooth="yes"/>
      <point x="538" y="269"/>
      <point x="450" y="174"/>
      <point x="333" y="174" type="curve" smooth="yes"/>
      <point x="215" y="174"/>
      <point x="127" y="269"/>
      <point x="127" y="434" type="curve" smooth="yes"/>
      <point x="127" y="600"/>
      <point x="215" y="696"/>
    </contour>
  </outline>
</glyph>
<glyph name="ordfeminine" format="2">
  <advance width="500"/>
  <unicode hex="00AA"/>
  <outline>
    <contour>
      <point x="200" y="689" type="curve" smooth="yes"/>
      <point x="161" y="689"/>
      <point x="118" y="679"/>
      <point x="75" y="661" type="curve"/>
      <point x="94" y="601" type="line"/>
      <point x="129" y="615"/>
      <point x="163" y="622"/>
      <point x="186" y="622" type="curve" smooth="yes"/>
      <point x="232" y="622"/>
      <point x="252" y="603"/>
      <point x="252" y="550" type="curve"/>
      <point x="252" y="376" type="line"/>
      <point x="262" y="345" type="line"/>
      <point x="274" y="296"/>
      <point x="300" y="278"/>
      <point x="342" y="272" type="curve"/>
      <point x="359" y="331" type="line"/>
      <point x="342" y="338"/>
      <point x="333" y="349"/>
      <point x="333" y="383" type="curve" smooth="yes"/>
      <point x="333" y="555" type="line" smooth="yes"/>
      <point x="333" y="640"/>
      <point x="293" y="689"/>
    </contour>
    <contour>
      <point x="264" y="525" type="line"/>
      <point x="207" y="525" type="line" smooth="yes"/>
      <point x="107" y="525"/>
      <point x="50" y="479"/>
      <point x="50" y="393" type="curve" smooth="yes"/>
      <point x="50" y="321"/>
      <point x="92" y="271"/>
      <point x="162" y="271" type="curve" smooth="yes"/>
      <point x="207" y="271"/>
      <point x="248" y="293"/>
      <point x="272" y="342" type="curve"/>
      <point x="258" y="401" type="line"/>
      <point x="242" y="359"/>
      <point x="218" y="335"/>
      <point x="185" y="335" type="curve" smooth="yes"/>
      <point x="153" y="335"/>
      <point x="136" y="357"/>
      <point x="136" y="398" type="curve" smooth="yes"/>
      <point x="136" y="448"/>
      <point x="163" y="471"/>
      <point x="216" y="471" type="curve" smooth="yes"/>
      <point x="264" y="471" type="line"/>
    </contour>
    <component base="minus" xOffset="6" yOffset="-295"/>
  </outline>
</glyph>
<glyph name="logicalnot" format="2">
  <advance width="417"/>
  <unicode hex="00AC"/>
  <outline>
    <contour>
      <point x="369" y="358" type="line"/>
      <point x="48" y="358" type="line"/>
      <point x="48" y="287" type="line"/>
      <point x="292" y="287" type="line"/>
      <point x="292" y="144" type="line"/>
      <point x="369" y="144" type="line"/>
    </contour>
  </outline>
</glyph>
<glyph name="registered" format="2">
  <advance width="525"/>
  <unicode hex="00AE"/>
  <outline>
    <contour>
      <point x="262" y="748" type="curve" smooth="yes"/>
      <point x="143" y="748"/>
      <point x="51" y="644"/>
      <point x="51" y="493" type="curve" smooth="yes"/>
      <point x="51" y="342"/>
      <point x="143" y="240"/>
      <point x="262" y="240" type="curve" smooth="yes"/>
      <point x="383" y="240"/>
      <point x="474" y="343"/>
      <point x="474" y="494" type="curve" smooth="yes"/>
      <point x="474" y="645"/>
      <point x="383" y="748"/>
    </contour>
    <contour>
      <point x="294" y="487" type="line"/>
      <point x="251" y="477" type="line"/>
      <point x="304" y="360" type="line"/>
      <point x="360" y="360" type="line"/>
    </contour>
    <contour>
      <point x="262" y="701" type="curve" smooth="yes"/>
      <point x="358" y="701"/>
      <point x="425" y="622"/>
      <point x="425" y="494" type="curve" smooth="yes"/>
      <point x="425" y="366"/>
      <point x="358" y="288"/>
      <point x="262" y="288" type="curve" smooth="yes"/>
      <point x="169" y="288"/>
      <point x="100" y="365"/>
      <point x="100" y="493" type="curve" smooth="yes"/>
      <point x="100" y="621"/>
      <point x="169" y="701"/>
    </contour>
    <contour>
      <point x="249" y="635" type="curve" smooth="yes"/>
      <point x="185" y="635" type="line"/>
      <point x="185" y="360" type="line"/>
      <point x="234" y="360" type="line"/>
      <point x="234" y="592" type="line"/>
      <point x="257" y="592" type="line" smooth="yes"/>
      <point x="286" y="592"/>
      <point x="301" y="580"/>
      <point x="301" y="551" type="curve" smooth="yes"/>
      <point x="301" y="521"/>
      <point x="284" y="509"/>
      <point x="259" y="509" type="curve" smooth="yes"/>
      <point x="224" y="509" type="line"/>
      <point x="224" y="466" type="line"/>
      <point x="264" y="466" type="line"/>
      <point x="288" y="472" type="line"/>
      <point x="324" y="480"/>
      <point x="351" y="506"/>
      <point x="351" y="551" type="curve" smooth="yes"/>
      <point x="351" y="604"/>
      <point x="318" y="635"/>
    </contour>
  </outline>
</glyph>
<glyph name="degree" format="2">
  <advance width="428"/>
  <unicode hex="00B0"/>
  <outline>
    <contour>
      <point x="179" y="441" type="curve" smooth="yes"/>
      <point x="142" y="441"/>
      <point x="111" y="467"/>
      <point x="111" y="542" type="curve" smooth="yes"/>
      <point x="111" y="617"/>
      <point x="142" y="641"/>
      <point x="179" y="641" type="curve" smooth="yes"/>
      <point x="218" y="641"/>
      <point x="248" y="615"/>
      <point x="248" y="541" type="curve" smooth="yes"/>
      <point x="248" y="467"/>
      <point x="218" y="441"/>
    </contour>
    <contour>
      <point x="179" y="383" type="curve" smooth="yes"/>
      <point x="249" y="383"/>
      <point x="316" y="434"/>
      <point x="316" y="541" type="curve" smooth="yes"/>
      <point x="316" y="648"/>
      <point x="249" y="700"/>
      <point x="179" y="700" type="curve" smooth="yes"/>
      <point x="111" y="700"/>
      <point x="43" y="648"/>
      <point x="43" y="542" type="curve" smooth="yes"/>
      <point x="43" y="434"/>
      <point x="111" y="383"/>
    </contour>
  </outline>
</glyph>
<glyph name="paragraph" format="2">
  <advance width="613"/>
  <unicode hex="00B6"/>
  <outline>
    <contour>
      <point x="503" y="689" type="line"/>
      <point x="275" y="689" type="line"/>
      <point x="256" y="643" type="line"/>
      <point x="256" y="-214" type="line"/>
      <point x="334" y="-201" type="line"/>
      <point x="334" y="619" type="line"/>
      <point x="425" y="619" type="line"/>
      <point x="425" y="-214" type="line"/>
      <point x="503" y="-201" type="line"/>
    </contour>
    <contour>
      <point x="275" y="689" type="line"/>
      <point x="146" y="689"/>
      <point x="69" y="616"/>
      <point x="69" y="487" type="curve" smooth="yes"/>
      <point x="69" y="371"/>
      <point x="131" y="283"/>
      <point x="273" y="283" type="curve"/>
    </contour>
  </outline>
</glyph>
<glyph name="ordmasculine" format="2">
  <advance width="415"/>
  <unicode hex="00BA"/>
  <outline>
    <contour>
      <point x="208" y="689" type="curve" smooth="yes"/>
      <point x="106" y="689"/>
      <point x="45" y="613"/>
      <point x="45" y="480" type="curve" smooth="yes"/>
      <point x="45" y="343"/>
      <point x="106" y="271"/>
      <point x="208" y="271" type="curve" smooth="yes"/>
      <point x="310" y="271"/>
      <point x="370" y="348"/>
      <point x="370" y="480" type="curve" smooth="yes"/>
      <point x="370" y="617"/>
      <point x="310" y="689"/>
    </contour>
    <contour>
      <point x="208" y="623" type="curve" smooth="yes"/>
      <point x="260" y="623"/>
      <point x="285" y="589"/>
      <point x="285" y="480" type="curve" smooth="yes"/>
      <point x="285" y="372"/>
      <point x="259" y="337"/>
      <point x="208" y="337" type="curve" smooth="yes"/>
      <point x="156" y="337"/>
      <point x="130" y="372"/>
      <point x="130" y="480" type="curve" smooth="yes"/>
      <point x="130" y="588"/>
      <point x="156" y="623"/>
    </contour>
    <component base="minus" xOffset="1" yOffset="-297"/>
  </outline>
</glyph>
<glyph name="questiondown" format="2">
  <advance width="393"/>
  <unicode hex="00BF"/>
  <outline>
    <contour>
      <point x="193" y="-216" type="curve" smooth="yes"/>
      <point x="261" y="-216"/>
      <point x="319" y="-185"/>
      <point x="365" y="-118" type="curve"/>
      <point x="311" y="-76" type="line"/>
      <point x="274" y="-124"/>
      <point x="240" y="-144"/>
      <point x="198" y="-144" type="curve" smooth="yes"/>
      <point x="148" y="-144"/>
      <point x="117" y="-114"/>
      <point x="117" y="-62" type="curve" smooth="yes"/>
      <point x="117" y="57"/>
      <point x="261" y="41"/>
      <point x="261" y="204" type="curve" smooth="yes"/>
      <point x="261" y="247" type="line"/>
      <point x="177" y="247" type="line"/>
      <point x="177" y="209" type="line" smooth="yes"/>
      <point x="177" y="77"/>
      <point x="28" y="90"/>
      <point x="28" y="-62" type="curve" smooth="yes"/>
      <point x="28" y="-141"/>
      <point x="83" y="-216"/>
    </contour>
    <contour>
      <point x="217" y="360" type="curve" smooth="yes"/>
      <point x="256" y="360"/>
      <point x="281" y="391"/>
      <point x="281" y="426" type="curve" smooth="yes"/>
      <point x="281" y="461"/>
      <point x="256" y="492"/>
      <point x="217" y="492" type="curve" smooth="yes"/>
      <point x="177" y="492"/>
      <point x="152" y="461"/>
      <point x="152" y="426" type="curve" smooth="yes"/>
      <point x="152" y="391"/>
      <point x="177" y="360"/>
    </contour>
  </outline>
</glyph>
<glyph name="AE" format="2">
  <advance width="674"/>
  <unicode hex="00C6"/>
  <anchor x="337" y="0" name="bottom"/>
  <anchor x="389" y="689" name="top"/>
  <outline>
    <contour>
      <point x="601" y="689" type="line"/>
      <point x="213" y="689" type="line"/>
      <point x="-11" y="0" type="line"/>
      <point x="80" y="0" type="line"/>
      <point x="265" y="616" type="line"/>
      <point x="373" y="0" type="line"/>
      <point x="635" y="0" type="line"/>
      <point x="635" y="73" type="line"/>
      <point x="448" y="73" type="line"/>
      <point x="346" y="616" type="line"/>
      <point x="591" y="616" type="line"/>
    </contour>
    <contour>
      <point x="341" y="247" type="line"/>
      <point x="146" y="247" type="line"/>
      <point x="122" y="174" type="line"/>
      <point x="355" y="174" type="line"/>
    </contour>
    <contour>
      <point x="594" y="386" type="line"/>
      <point x="375" y="386" type="line"/>
      <point x="391" y="313" type="line"/>
      <point x="594" y="313" type="line"/>
    </contour>
  </outline>
</glyph>
<glyph name="multiply" format="2">
  <advance width="413"/>
  <unicode hex="00D7"/>
  <outline>
    <contour>
      <point x="306" y="484" type="line"/>
      <point x="206" y="354" type="line"/>
      <point x="107" y="484" type="line"/>
      <point x="51" y="440" type="line"/>
      <point x="155" y="307" type="line"/>
      <point x="51" y="174" type="line"/>
      <point x="107" y="131" type="line"/>
      <point x="206" y="259" type="line"/>
      <point x="306" y="131" type="line"/>
      <point x="362" y="174" type="line"/>
      <point x="257" y="307" type="line"/>
      <point x="362" y="440" type="line"/>
    </contour>
  </outline>
</glyph>
<glyph name="Oslash" format="2">
  <advance width="575"/>
  <unicode hex="00D8"/>
  <anchor x="288" y="0" name="bottom"/>
  <anchor x="284" y="703" name="top"/>
  <outline>
    <contour>
      <point x="288" y="700" type="curve" smooth="yes"/>
      <point x="142" y="700"/>
      <point x="45" y="585"/>
      <point x="45" y="343" type="curve" smooth="yes"/>
      <point x="45" y="97"/>
      <point x="142" y="-12"/>
      <point x="288" y="-12" type="curve" smooth="yes"/>
      <point x="435" y="-12"/>
      <point x="530" y="101"/>
      <point x="530" y="344" type="curve" smooth="yes"/>
      <point x="530" y="591"/>
      <point x="434" y="700"/>
    </contour>
    <contour>
      <point x="288" y="626" type="curve" smooth="yes"/>
      <point x="382" y="626"/>
      <point x="436" y="563"/>
      <point x="434" y="344" type="curve" smooth="yes"/>
      <point x="432" y="133"/>
      <point x="381" y="63"/>
      <point x="288" y="63" type="curve" smooth="yes"/>
      <point x="197" y="63"/>
      <point x="139" y="123"/>
      <point x="139" y="343" type="curve" smooth="yes"/>
      <point x="139" y="553"/>
      <point x="195" y="626"/>
    </contour>
    <contour>
      <point x="368" y="818" type="line"/>
      <point x="336" y="688" type="line"/>
      <point x="327" y="628" type="line"/>
      <point x="198" y="83" type="line"/>
      <point x="171" y="31" type="line"/>
      <point x="135" y="-107" type="line"/>
      <point x="208" y="-126" type="line"/>
      <point x="238" y="0" type="line"/>
      <point x="248" y="61" type="line"/>
      <point x="377" y="609" type="line"/>
      <point x="404" y="658" type="line"/>
      <point x="440" y="799" type="line"/>
    </contour>
  </outline>
</glyph>
<glyph name="Thorn" format="2">
  <advance width="476"/>
  <unicode hex="00DE"/>
  <anchor x="242" y="0" name="bottom"/>
  <anchor x="242" y="689" name="top"/>
  <outline>
    <contour>
      <point x="213" y="570" type="curve" smooth="yes"/>
      <point x="156" y="570" type="line"/>
      <point x="167" y="499" type="line"/>
      <point x="212" y="499" type="line" smooth="yes"/>
      <point x="312" y="499"/>
      <point x="361" y="456"/>
      <point x="361" y="353" type="curve" smooth="yes"/>
      <point x="361" y="235"/>
      <point x="310" y="200"/>
      <point x="212" y="200" type="curve" smooth="yes"/>
      <point x="155" y="200" type="line"/>
      <point x="155" y="128" type="line"/>
      <point x="217" y="128" type="line" smooth="yes"/>
      <point x="363" y="128"/>
      <point x="456" y="196"/>
      <point x="456" y="354" type="curve" smooth="yes"/>
      <point x="456" y="498"/>
      <point x="372" y="570"/>
    </contour>
    <contour>
      <point x="167" y="689" type="line"/>
      <point x="76" y="689" type="line"/>
      <point x="76" y="0" type="line"/>
      <point x="167" y="0" type="line"/>
    </contour>
  </outline>
</glyph>
<glyph name="germandbls" format="2">
  <advance width="490"/>
  <unicode hex="00DF"/>
  <outline>
    <contour>
      <point x="245" y="749" type="curve" smooth="yes"/>
      <point x="140" y="749"/>
      <point x="73" y="675"/>
      <point x="73" y="569" type="curve" smooth="yes"/>
      <point x="73" y="0" type="line"/>
      <point x="161" y="0" type="line"/>
      <point x="161" y="569" type="line" smooth="yes"/>
      <point x="161" y="639"/>
      <point x="191" y="680"/>
      <point x="244" y="680" type="curve" smooth="yes"/>
      <point x="285" y="680"/>
      <point x="315" y="654"/>
      <point x="315" y="606" type="curve" smooth="yes"/>
      <point x="315" y="513"/>
      <point x="229" y="500"/>
      <point x="229" y="422" type="curve" smooth="yes"/>
      <point x="229" y="313"/>
      <point x="373" y="296"/>
      <point x="373" y="162" type="curve" smooth="yes"/>
      <point x="373" y="93"/>
      <point x="343" y="59"/>
      <point x="302" y="59" type="curve" smooth="yes"/>
      <point x="279" y="59"/>
      <point x="264" y="65"/>
      <point x="252" y="70" type="curve"/>
      <point x="225" y="11" type="line"/>
      <point x="247" y="-3"/>
      <point x="274" y="-12"/>
      <point x="312" y="-12" type="curve" smooth="yes"/>
      <point x="393" y="-12"/>
      <point x="462" y="54"/>
      <point x="462" y="161" type="curve" smooth="yes"/>
      <point x="462" y="325"/>
      <point x="308" y="348"/>
      <point x="308" y="427" type="curve" smooth="yes"/>
      <point x="308" y="486"/>
      <point x="397" y="499"/>
      <point x="397" y="610" type="curve" smooth="yes"/>
      <point x="397" y="685"/>
      <point x="339" y="749"/>
    </contour>
  </outline>
</glyph>
<glyph name="ae" format="2">
  <advance width="702"/>
  <unicode hex="00E6"/>
  <anchor x="343" y="0" name="bottom"/>
  <anchor x="352" y="527" name="top"/>
  <outline>
    <contour>
      <point x="487" y="538" type="curve" smooth="yes"/>
      <point x="365" y="538"/>
      <point x="315" y="425"/>
      <point x="293" y="264" type="curve"/>
      <point x="293" y="257" type="line" smooth="yes"/>
      <point x="294" y="89"/>
      <point x="366" y="-12"/>
      <point x="491" y="-12" type="curve" smooth="yes"/>
      <point x="553" y="-12"/>
      <point x="603" y="13"/>
      <point x="646" y="54" type="curve"/>
      <point x="607" y="104" type="line"/>
      <point x="571" y="74"/>
      <point x="539" y="60"/>
      <point x="498" y="60" type="curve" smooth="yes"/>
      <point x="431" y="60"/>
      <point x="383" y="116"/>
      <point x="383" y="264" type="curve" smooth="yes"/>
      <point x="383" y="409"/>
      <point x="420" y="469"/>
      <point x="485" y="469" type="curve" smooth="yes"/>
      <point x="545" y="469"/>
      <point x="575" y="420"/>
      <point x="575" y="305" type="curve" smooth="yes"/>
      <point x="575" y="302"/>
      <point x="575" y="300"/>
      <point x="575" y="298" type="curve"/>
      <point x="372" y="298" type="line"/>
      <point x="372" y="233" type="line"/>
      <point x="660" y="233" type="line"/>
      <point x="661" y="245"/>
      <point x="662" y="261"/>
      <point x="662" y="279" type="curve" smooth="yes"/>
      <point x="662" y="449"/>
      <point x="596" y="538"/>
    </contour>
    <contour>
      <point x="306" y="320" type="line"/>
      <point x="241" y="320" type="line" smooth="yes"/>
      <point x="110" y="320"/>
      <point x="35" y="259"/>
      <point x="35" y="147" type="curve" smooth="yes"/>
      <point x="35" y="53"/>
      <point x="92" y="-12"/>
      <point x="181" y="-12" type="curve" smooth="yes"/>
      <point x="245" y="-12"/>
      <point x="296" y="18"/>
      <point x="338" y="98" type="curve"/>
      <point x="310" y="160" type="line"/>
      <point x="278" y="87"/>
      <point x="245" y="54"/>
      <point x="199" y="54" type="curve" smooth="yes"/>
      <point x="154" y="54"/>
      <point x="128" y="88"/>
      <point x="128" y="151" type="curve" smooth="yes"/>
      <point x="128" y="225"/>
      <point x="168" y="261"/>
      <point x="251" y="261" type="curve" smooth="yes"/>
      <point x="306" y="261" type="line"/>
    </contour>
    <contour>
      <point x="221" y="538" type="curve" smooth="yes"/>
      <point x="173" y="538"/>
      <point x="122" y="526"/>
      <point x="69" y="503" type="curve"/>
      <point x="90" y="440" type="line"/>
      <point x="134" y="458"/>
      <point x="175" y="468"/>
      <point x="206" y="468" type="curve" smooth="yes"/>
      <point x="266" y="468"/>
      <point x="293" y="437"/>
      <point x="293" y="361" type="curve"/>
      <point x="293" y="261" type="line"/>
      <point x="380" y="262" type="line"/>
      <point x="373" y="365" type="line"/>
      <point x="360" y="465"/>
      <point x="329" y="538"/>
    </contour>
  </outline>
</glyph>
<glyph name="eth" format="2">
  <advance width="476"/>
  <unicode hex="00F0"/>
  <anchor x="232" y="0" name="bottom"/>
  <anchor x="248" y="739" name="top"/>
  <outline>
    <contour>
      <point x="108" y="749" type="curve"/>
      <point x="92" y="684" type="line"/>
      <point x="131" y="674"/>
      <point x="167" y="659"/>
      <point x="214" y="630" type="curve"/>
      <point x="288" y="571"/>
      <point x="317" y="500"/>
      <point x="332" y="394" type="curve"/>
      <point x="334" y="347" type="line"/>
      <point x="336" y="321"/>
      <point x="337" y="297"/>
      <point x="337" y="268" type="curve" smooth="yes"/>
      <point x="337" y="120"/>
      <point x="296" y="58"/>
      <point x="232" y="58" type="curve" smooth="yes"/>
      <point x="173" y="58"/>
      <point x="134" y="110"/>
      <point x="134" y="238" type="curve" smooth="yes"/>
      <point x="134" y="343"/>
      <point x="161" y="405"/>
      <point x="229" y="405" type="curve" smooth="yes"/>
      <point x="279" y="405"/>
      <point x="316" y="372"/>
      <point x="343" y="312" type="curve"/>
      <point x="344" y="394" type="line"/>
      <point x="311" y="445"/>
      <point x="271" y="474"/>
      <point x="211" y="474" type="curve" smooth="yes"/>
      <point x="108" y="474"/>
      <point x="45" y="371"/>
      <point x="45" y="235" type="curve" smooth="yes"/>
      <point x="45" y="68"/>
      <point x="126" y="-12"/>
      <point x="232" y="-12" type="curve" smooth="yes"/>
      <point x="350" y="-12"/>
      <point x="426" y="86"/>
      <point x="426" y="267" type="curve" smooth="yes"/>
      <point x="426" y="463"/>
      <point x="383" y="596"/>
      <point x="255" y="687" type="curve"/>
      <point x="203" y="719"/>
      <point x="160" y="736"/>
    </contour>
    <contour>
      <point x="290" y="774" type="line"/>
      <point x="222" y="689" type="line"/>
      <point x="189" y="657" type="line"/>
      <point x="115" y="569" type="line"/>
      <point x="174" y="538" type="line"/>
      <point x="244" y="622" type="line"/>
      <point x="279" y="655" type="line"/>
      <point x="344" y="735" type="line"/>
    </contour>
  </outline>
</glyph>
<glyph name="oslash" format="2">
  <advance width="485"/>
  <unicode hex="00F8"/>
  <anchor x="242" y="0" name="bottom"/>
  <anchor x="242" y="527" name="top"/>
  <outline>
    <contour>
      <point x="243" y="538" type="curve" smooth="yes"/>
      <point x="118" y="538"/>
      <point x="45" y="441"/>
      <point x="45" y="263" type="curve" smooth="yes"/>
      <point x="45" y="91"/>
      <point x="118" y="-12"/>
      <point x="242" y="-12" type="curve" smooth="yes"/>
      <point x="366" y="-12"/>
      <point x="440" y="95"/>
      <point x="440" y="264" type="curve" smooth="yes"/>
      <point x="440" y="446"/>
      <point x="367" y="538"/>
    </contour>
    <contour>
      <point x="243" y="468" type="curve" smooth="yes"/>
      <point x="313" y="468"/>
      <point x="350" y="423"/>
      <point x="350" y="264" type="curve" smooth="yes"/>
      <point x="350" y="114"/>
      <point x="313" y="58"/>
      <point x="242" y="58" type="curve" smooth="yes"/>
      <point x="172" y="58"/>
      <point x="135" y="104"/>
      <point x="135" y="263" type="curve" smooth="yes"/>
      <point x="135" y="413"/>
      <point x="172" y="468"/>
    </contour>
    <contour>
      <point x="314" y="655" type="line"/>
      <point x="282" y="533" type="line"/>
      <point x="271" y="473" type="line"/>
      <point x="168" y="74" type="line"/>
      <point x="142" y="27" type="line"/>
      <point x="103" y="-110" type="line"/>
      <point x="172" y="-129" type="line"/>
      <point x="204" y="-6" type="line"/>
      <point x="215" y="50" type="line"/>
      <point x="316" y="449" type="line"/>
      <point x="346" y="508" type="line"/>
      <point x="382" y="635" type="line"/>
    </contour>
  </outline>
</glyph>
<glyph name="thorn" format="2">
  <advance width="488"/>
  <unicode hex="00FE"/>
  <anchor x="245" y="-201" name="bottom"/>
  <anchor x="245" y="739" name="top"/>
  <outline>
    <contour>
      <point x="286" y="538" type="curve" smooth="yes"/>
      <point x="224" y="538"/>
      <point x="180" y="503"/>
      <point x="147" y="438" type="curve"/>
      <point x="154" y="378" type="line"/>
      <point x="177" y="422"/>
      <point x="212" y="468"/>
      <point x="262" y="468" type="curve" smooth="yes"/>
      <point x="321" y="468"/>
      <point x="350" y="412"/>
      <point x="350" y="264" type="curve" smooth="yes"/>
      <point x="350" y="116"/>
      <point x="314" y="60"/>
      <point x="254" y="60" type="curve" smooth="yes"/>
      <point x="210" y="60"/>
      <point x="176" y="90"/>
      <point x="153" y="135" type="curve"/>
      <point x="153" y="63" type="line"/>
      <point x="182" y="13"/>
      <point x="222" y="-12"/>
      <point x="273" y="-12" type="curve" smooth="yes"/>
      <point x="383" y="-12"/>
      <point x="443" y="94"/>
      <point x="443" y="264" type="curve" smooth="yes"/>
      <point x="443" y="440"/>
      <point x="389" y="538"/>
    </contour>
    <contour>
      <point x="161" y="749" type="line"/>
      <point x="73" y="739" type="line"/>
      <point x="73" y="-212" type="line"/>
      <point x="161" y="-198" type="line"/>
    </contour>
  </outline>
</glyph>
<glyph name="dcroat" format="2">
  <advance width="494"/>
  <unicode hex="0111"/>
  <anchor x="251" y="0" name="bottom"/>
  <anchor x="247" y="264" name="center"/>
  <anchor x="244" y="739" name="top"/>
  <anchor x="427" y="739" name="topright"/>
  <outline>
    <contour>
      <point x="479" y="674" type="line"/>
      <point x="206" y="674" type="line"/>
      <point x="206" y="607" type="line"/>
      <point x="419" y="607" type="line"/>
      <point x="479" y="607" type="line"/>
    </contour>
    <component base="d"/>
  </outline>
</glyph>
<glyph name="Hbar" format="2">
  <advance width="561"/>
  <unicode hex="0126"/>
  <anchor x="282" y="0" name="bottom"/>
  <anchor x="492" y="0" name="bottomright"/>
  <anchor x="282" y="345" name="center"/>
  <anchor x="282" y="689" name="top"/>
  <anchor x="72" y="689" name="topleft"/>
  <outline>
    <contour>
      <point x="536" y="575" type="line"/>
      <point x="482" y="575" type="line"/>
      <point x="25" y="575" type="line"/>
      <point x="25" y="509" type="line"/>
      <point x="78" y="509" type="line"/>
      <point x="536" y="509" type="line"/>
    </contour>
    <component base="H" xOffset="4"/>
  </outline>
</glyph>
<glyph name="hbar" format="2">
  <advance width="486"/>
  <unicode hex="0127"/>
  <anchor x="248" y="0" name="bottom"/>
  <anchor x="245" y="264" name="center"/>
  <anchor x="245" y="739" name="top"/>
  <outline>
    <contour>
      <point x="283" y="674" type="line"/>
      <point x="15" y="674" type="line"/>
      <point x="15" y="607" type="line"/>
      <point x="75" y="607" type="line"/>
      <point x="283" y="607" type="line"/>
    </contour>
    <component base="h" xOffset="4"/>
  </outline>
</glyph>
<glyph name="dotlessi" format="2">
  <advance width="234"/>
  <unicode hex="0131"/>
  <anchor x="117" y="0" name="bottom"/>
  <anchor x="163" y="0" name="ogonek"/>
  <anchor x="117" y="527" name="top"/>
  <outline>
    <contour>
      <point x="161" y="527" type="line"/>
      <point x="73" y="527" type="line"/>
      <point x="73" y="0" type="line"/>
      <point x="161" y="0" type="line"/>
    </contour>
  </outline>
</glyph>
<glyph name="kgreenlandic" format="2">
  <advance width="426"/>
  <unicode hex="0138"/>
  <anchor x="213" y="0" name="bottom"/>
  <anchor x="213" y="527" name="top"/>
  <outline>
    <contour>
      <point x="411" y="527" type="line"/>
      <point x="316" y="527" type="line"/>
      <point x="162" y="278" type="line"/>
      <point x="324" y="0" type="line"/>
      <point x="427" y="0" type="line"/>
      <point x="257" y="283" type="line"/>
    </contour>
    <contour>
      <point x="159" y="527" type="line"/>
      <point x="71" y="527" type="line"/>
      <point x="71" y="0" type="line"/>
      <point x="159" y="0" type="line"/>
    </contour>
  </outline>
</glyph>
<glyph name="Lslash" format="2">
  <advance width="425"/>
  <unicode hex="0141"/>
  <anchor x="251" y="0" name="bottom"/>
  <anchor x="340" y="388" name="center"/>
  <anchor x="141" y="689" name="top"/>
  <anchor x="202" y="689" name="topright"/>
  <outline>
    <contour>
      <point x="310" y="497" type="line"/>
      <point x="93" y="339" type="line"/>
      <point x="16" y="282" type="line"/>
      <point x="49" y="224" type="line"/>
      <point x="343" y="439" type="line"/>
    </contour>
    <component base="L" xOffset="19"/>
  </outline>
</glyph>
<glyph name="lslash" format="2">
  <advance width="267"/>
  <unicode hex="0142"/>
  <anchor x="159" y="0" name="bottom"/>
  <anchor x="268" y="380" name="center"/>
  <anchor x="123" y="739" name="top"/>
  <anchor x="177" y="739" name="topright"/>
  <outline>
    <contour>
      <point x="39" y="274" type="line"/>
      <point x="267" y="435" type="line"/>
      <point x="236" y="489" type="line"/>
      <point x="79" y="381" type="line"/>
      <point x="7" y="328" type="line"/>
    </contour>
    <component base="l" xOffset="11"/>
  </outline>
</glyph>
<glyph name="napostrophe" format="2">
  <advance width="578"/>
  <unicode hex="0149"/>
  <anchor x="337" y="0" name="bottom"/>
  <anchor x="341" y="527" name="top"/>
  <anchor x="161" y="527" name="topleft"/>
  <outline>
    <contour>
      <point x="89" y="752" type="curve" smooth="yes"/>
      <point x="58" y="752"/>
      <point x="37" y="729"/>
      <point x="37" y="698" type="curve" smooth="yes"/>
      <point x="37" y="679"/>
      <point x="46" y="663"/>
      <point x="64" y="652" type="curve"/>
      <point x="41" y="536" type="line"/>
      <point x="89" y="536" type="line"/>
      <point x="119" y="622" type="line" smooth="yes"/>
      <point x="134" y="665"/>
      <point x="140" y="682"/>
      <point x="140" y="698" type="curve" smooth="yes"/>
      <point x="140" y="729"/>
      <point x="119" y="752"/>
    </contour>
    <component base="n" xOffset="96"/>
  </outline>
</glyph>
<glyph name="OE" format="2">
  <advance width="739"/>
  <unicode hex="0152"/>
  <anchor x="375" y="0" name="bottom"/>
  <anchor x="375" y="689" name="top"/>
  <outline>
    <contour>
      <point x="276" y="700" type="curve" smooth="yes"/>
      <point x="142" y="700"/>
      <point x="45" y="577"/>
      <point x="45" y="343" type="curve" smooth="yes"/>
      <point x="45" y="107"/>
      <point x="142" y="-12"/>
      <point x="276" y="-12" type="curve" smooth="yes"/>
      <point x="322" y="-12"/>
      <point x="366" y="4"/>
      <point x="393" y="36" type="curve"/>
      <point x="472" y="99"/>
      <point x="514" y="197"/>
      <point x="514" y="344" type="curve" smooth="yes"/>
      <point x="514" y="493"/>
      <point x="476" y="591"/>
      <point x="403" y="645" type="curve"/>
      <point x="371" y="682"/>
      <point x="326" y="700"/>
    </contour>
    <contour>
      <point x="700" y="73" type="line"/>
      <point x="422" y="73" type="line"/>
      <point x="339" y="0" type="line"/>
      <point x="700" y="0" type="line"/>
    </contour>
    <contour>
      <point x="657" y="388" type="line"/>
      <point x="471" y="388" type="line"/>
      <point x="471" y="313" type="line"/>
      <point x="657" y="313" type="line"/>
    </contour>
    <contour>
      <point x="695" y="689" type="line"/>
      <point x="330" y="689" type="line"/>
      <point x="429" y="616" type="line"/>
      <point x="685" y="616" type="line"/>
    </contour>
    <contour>
      <point x="279" y="626" type="curve" smooth="yes"/>
      <point x="363" y="626"/>
      <point x="418" y="548"/>
      <point x="418" y="344" type="curve" smooth="yes"/>
      <point x="418" y="138"/>
      <point x="363" y="63"/>
      <point x="279" y="63" type="curve" smooth="yes"/>
      <point x="199" y="63"/>
      <point x="141" y="138"/>
      <point x="141" y="343" type="curve" smooth="yes"/>
      <point x="141" y="550"/>
      <point x="197" y="626"/>
    </contour>
  </outline>
</glyph>
<glyph name="oe" format="2">
  <advance width="748"/>
  <unicode hex="0153"/>
  <anchor x="390" y="0" name="bottom"/>
  <anchor x="383" y="527" name="top"/>
  <outline>
    <contour>
      <point x="239" y="538" type="curve" smooth="yes"/>
      <point x="114" y="538"/>
      <point x="41" y="436"/>
      <point x="41" y="263" type="curve" smooth="yes"/>
      <point x="41" y="86"/>
      <point x="114" y="-12"/>
      <point x="238" y="-12" type="curve" smooth="yes"/>
      <point x="357" y="-12"/>
      <point x="416" y="115"/>
      <point x="435" y="264" type="curve"/>
      <point x="419" y="421"/>
      <point x="359" y="538"/>
    </contour>
    <contour>
      <point x="239" y="467" type="curve" smooth="yes"/>
      <point x="306" y="467"/>
      <point x="342" y="402"/>
      <point x="342" y="264" type="curve" smooth="yes"/>
      <point x="342" y="125"/>
      <point x="306" y="59"/>
      <point x="238" y="59" type="curve" smooth="yes"/>
      <point x="171" y="59"/>
      <point x="134" y="115"/>
      <point x="134" y="263" type="curve" smooth="yes"/>
      <point x="134" y="412"/>
      <point x="171" y="467"/>
    </contour>
    <contour>
      <point x="534" y="538" type="curve" smooth="yes"/>
      <point x="415" y="538"/>
      <point x="359" y="412"/>
      <point x="342" y="258" type="curve"/>
      <point x="362" y="106"/>
      <point x="418" y="-12"/>
      <point x="541" y="-12" type="curve"/>
      <point x="604" y="-12"/>
      <point x="654" y="13"/>
      <point x="696" y="54" type="curve"/>
      <point x="657" y="104" type="line"/>
      <point x="621" y="74"/>
      <point x="589" y="60"/>
      <point x="544" y="60" type="curve"/>
      <point x="481" y="60"/>
      <point x="433" y="116"/>
      <point x="433" y="264" type="curve" smooth="yes"/>
      <point x="433" y="408"/>
      <point x="470" y="468"/>
      <point x="534" y="468" type="curve" smooth="yes"/>
      <point x="595" y="468"/>
      <point x="627" y="416"/>
      <point x="627" y="305" type="curve" smooth="yes"/>
      <point x="627" y="302"/>
      <point x="627" y="300"/>
      <point x="627" y="298" type="curve"/>
      <point x="422" y="298" type="line"/>
      <point x="422" y="233" type="line"/>
      <point x="710" y="233" type="line"/>
      <point x="711" y="245"/>
      <point x="712" y="261"/>
      <point x="712" y="279" type="curve" smooth="yes"/>
      <point x="712" y="446"/>
      <point x="646" y="538"/>
    </contour>
  </outline>
</glyph>
<glyph name="Tbar" format="2">
  <advance width="428"/>
  <unicode hex="0166"/>
  <anchor x="214" y="-2" name="bottom"/>
  <anchor x="268" y="-2" name="bottomright"/>
  <anchor x="214" y="343" name="center"/>
  <anchor x="214" y="687" name="top"/>
  <outline>
    <contour>
      <point x="358" y="387" type="line"/>
      <point x="69" y="387" type="line"/>
      <point x="69" y="319" type="line"/>
      <point x="168" y="319" type="line"/>
      <point x="358" y="319" type="line"/>
    </contour>
    <component base="T" yOffset="-2"/>
  </outline>
</glyph>
<glyph name="tbar" format="2">
  <advance width="306"/>
  <unicode hex="0167"/>
  <anchor x="194" y="0" name="bottom"/>
  <anchor x="152" y="264" name="center"/>
  <anchor x="125" y="646" name="top"/>
  <anchor x="166" y="747" name="topright"/>
  <outline>
    <contour>
      <point x="255" y="356" type="line"/>
      <point x="77" y="356" type="line"/>
      <point x="14" y="356" type="line"/>
      <point x="14" y="288" type="line"/>
      <point x="255" y="288" type="line"/>
    </contour>
    <component base="t"/>
  </outline>
</glyph>
<glyph name="bstroke" format="2">
  <advance width="603"/>
  <unicode hex="0180"/>
  <anchor x="261" y="0" name="bottom"/>
  <anchor x="266" y="739" name="top"/>
  <outline>
    <contour>
      <point x="286" y="674" type="line"/>
      <point x="18" y="674" type="line"/>
      <point x="18" y="607" type="line"/>
      <point x="78" y="607" type="line"/>
      <point x="286" y="607" type="line"/>
    </contour>
    <component base="b" xOffset="7"/>
  </outline>
</glyph>
<glyph name="btopbar" format="2">
  <advance width="486"/>
  <unicode hex="0183"/>
  <anchor x="243" y="0" name="bottom"/>
  <anchor x="243" y="739" name="top"/>
  <outline>
    <contour>
      <point x="271" y="-12" type="curve" smooth="yes"/>
      <point x="377" y="-12"/>
      <point x="441" y="99"/>
      <point x="441" y="264" type="curve" smooth="yes"/>
      <point x="441" y="440"/>
      <point x="381" y="538"/>
      <point x="280" y="538" type="curve" smooth="yes"/>
      <point x="224" y="538"/>
      <point x="180" y="503"/>
      <point x="151" y="445" type="curve"/>
      <point x="152" y="373" type="line"/>
      <point x="175" y="420"/>
      <point x="206" y="468"/>
      <point x="254" y="468" type="curve" smooth="yes"/>
      <point x="311" y="468"/>
      <point x="348" y="415"/>
      <point x="348" y="264" type="curve" smooth="yes"/>
      <point x="348" y="119"/>
      <point x="308" y="58"/>
      <point x="249" y="58" type="curve" smooth="yes"/>
      <point x="207" y="58"/>
      <point x="173" y="95"/>
      <point x="152" y="145" type="curve"/>
      <point x="146" y="76" type="line"/>
      <point x="174" y="22"/>
      <point x="217" y="-12"/>
    </contour>
    <contour>
      <point x="71" y="0" type="line"/>
      <point x="149" y="0" type="line"/>
      <point x="159" y="72" type="line"/>
      <point x="159" y="739" type="line"/>
      <point x="71" y="739" type="line"/>
    </contour>
    <contour>
      <point x="159" y="671" type="line"/>
      <point x="332" y="671" type="line"/>
      <point x="343" y="739" type="line"/>
      <point x="79" y="739" type="line"/>
    </contour>
  </outline>
</glyph>
<glyph name="Tonesix" format="2">
  <advance width="478"/>
  <unicode hex="0184"/>
  <anchor x="239" y="0" name="bottom"/>
  <anchor x="239" y="689" name="top"/>
  <outline>
    <contour>
      <point x="79" y="0" type="line"/>
      <point x="242" y="0" type="line" smooth="yes"/>
      <point x="369" y="0"/>
      <point x="459" y="61"/>
      <point x="459" y="222" type="curve" smooth="yes"/>
      <point x="459" y="367"/>
      <point x="377" y="434"/>
      <point x="243" y="434" type="curve" smooth="yes"/>
      <point x="158" y="434" type="line"/>
      <point x="158" y="363" type="line"/>
      <point x="240" y="363" type="line" smooth="yes"/>
      <point x="319" y="363"/>
      <point x="363" y="326"/>
      <point x="363" y="221" type="curve" smooth="yes"/>
      <point x="363" y="102"/>
      <point x="314" y="73"/>
      <point x="243" y="73" type="curve" smooth="yes"/>
      <point x="170" y="73" type="line"/>
      <point x="170" y="689" type="line"/>
      <point x="91" y="689" type="line"/>
      <point x="79" y="576" type="line"/>
    </contour>
    <contour>
      <point x="79" y="527" type="line"/>
      <point x="91" y="689" type="line"/>
      <point x="73" y="642"/>
      <point x="49" y="598"/>
      <point x="23" y="568" type="curve"/>
    </contour>
  </outline>
</glyph>
<glyph name="tonesix" format="2">
  <advance width="429"/>
  <unicode hex="0185"/>
  <anchor x="215" y="0" name="bottom"/>
  <anchor x="215" y="527" name="top"/>
  <outline>
    <contour>
      <point x="77" y="0" type="line"/>
      <point x="232" y="0" type="line"/>
      <point x="326" y="0"/>
      <point x="405" y="54"/>
      <point x="405" y="180" type="curve" smooth="yes"/>
      <point x="405" y="286"/>
      <point x="353" y="356"/>
      <point x="217" y="356" type="curve" smooth="yes"/>
      <point x="153" y="356" type="line"/>
      <point x="153" y="288" type="line"/>
      <point x="216" y="288" type="line" smooth="yes"/>
      <point x="290" y="288"/>
      <point x="313" y="251"/>
      <point x="313" y="180" type="curve" smooth="yes"/>
      <point x="313" y="96"/>
      <point x="278" y="69"/>
      <point x="223" y="69" type="curve" smooth="yes"/>
      <point x="165" y="69" type="line"/>
      <point x="165" y="527" type="line"/>
      <point x="89" y="527" type="line"/>
      <point x="77" y="453" type="line"/>
    </contour>
    <contour>
      <point x="77" y="375" type="line"/>
      <point x="89" y="527" type="line"/>
      <point x="70" y="483"/>
      <point x="47" y="446"/>
      <point x="21" y="416" type="curve"/>
    </contour>
  </outline>
</glyph>
<glyph name="Oopen" format="2">
  <advance width="462"/>
  <unicode hex="0186"/>
  <anchor x="192" y="0" name="bottom"/>
  <anchor x="178" y="346" name="center"/>
  <anchor x="192" y="689" name="top"/>
  <outline>
    <contour>
      <point x="196" y="700" type="curve" smooth="yes"/>
      <point x="122" y="700"/>
      <point x="68" y="676"/>
      <point x="21" y="633" type="curve"/>
      <point x="66" y="575" type="line"/>
      <point x="103" y="608"/>
      <point x="143" y="626"/>
      <point x="190" y="626" type="curve" smooth="yes"/>
      <point x="266" y="626"/>
      <point x="325" y="554"/>
      <point x="325" y="345" type="curve" smooth="yes"/>
      <point x="325" y="145"/>
      <point x="261" y="65"/>
      <point x="177" y="65" type="curve" smooth="yes"/>
      <point x="125" y="65"/>
      <point x="91" y="93"/>
      <point x="57" y="121" type="curve"/>
      <point x="14" y="64" type="line"/>
      <point x="50" y="26"/>
      <point x="103" y="-12"/>
      <point x="180" y="-12" type="curve" smooth="yes"/>
      <point x="321" y="-12"/>
      <point x="421" y="113"/>
      <point x="421" y="346" type="curve" smooth="yes"/>
      <point x="421" y="578"/>
      <point x="332" y="700"/>
    </contour>
  </outline>
</glyph>
<glyph name="Chook" format="2">
  <advance width="462"/>
  <unicode hex="0187"/>
  <anchor x="231" y="0" name="bottom"/>
  <anchor x="226" y="689" name="top"/>
  <outline>
    <contour>
      <point x="283" y="-12" type="curve" smooth="yes"/>
      <point x="359" y="-12"/>
      <point x="415" y="25"/>
      <point x="448" y="64" type="curve"/>
      <point x="404" y="123" type="line"/>
      <point x="372" y="94"/>
      <point x="338" y="65"/>
      <point x="287" y="65" type="curve" smooth="yes"/>
      <point x="201" y="65"/>
      <point x="137" y="145"/>
      <point x="137" y="345" type="curve" smooth="yes"/>
      <point x="137" y="554"/>
      <point x="204" y="626"/>
      <point x="287" y="626" type="curve" smooth="yes"/>
      <point x="328" y="626"/>
      <point x="364" y="611"/>
      <point x="401" y="583" type="curve"/>
      <point x="442" y="633" type="line"/>
      <point x="420" y="648"/>
      <point x="397" y="664"/>
      <point x="369" y="676" type="curve"/>
      <point x="345" y="691"/>
      <point x="315" y="700"/>
      <point x="277" y="700" type="curve" smooth="yes"/>
      <point x="149" y="700"/>
      <point x="41" y="578"/>
      <point x="41" y="345" type="curve" smooth="yes"/>
      <point x="41" y="113"/>
      <point x="141" y="-12"/>
    </contour>
    <contour>
      <point x="358" y="663" type="line"/>
      <point x="442" y="633" type="line"/>
      <point x="442" y="685" type="line" smooth="yes"/>
      <point x="442" y="739"/>
      <point x="461" y="760"/>
      <point x="492" y="760" type="curve" smooth="yes"/>
      <point x="517" y="760"/>
      <point x="532" y="751"/>
      <point x="551" y="737" type="curve"/>
      <point x="582" y="794" type="line"/>
      <point x="560" y="812"/>
      <point x="528" y="831"/>
      <point x="484" y="831" type="curve" smooth="yes"/>
      <point x="403" y="831"/>
      <point x="358" y="776"/>
      <point x="358" y="678" type="curve" smooth="yes"/>
    </contour>
  </outline>
</glyph>
<glyph name="chook" format="2">
  <advance width="391"/>
  <unicode hex="0188"/>
  <anchor x="195" y="0" name="bottom"/>
  <anchor x="195" y="739" name="top"/>
  <outline>
    <contour>
      <point x="414" y="749" type="curve" smooth="yes"/>
      <point x="335" y="749"/>
      <point x="288" y="698"/>
      <point x="288" y="596" type="curve" smooth="yes"/>
      <point x="288" y="524" type="line"/>
      <point x="372" y="482" type="line"/>
      <point x="372" y="603" type="line" smooth="yes"/>
      <point x="372" y="657"/>
      <point x="391" y="678"/>
      <point x="422" y="678" type="curve" smooth="yes"/>
      <point x="447" y="678"/>
      <point x="462" y="669"/>
      <point x="481" y="655" type="curve"/>
      <point x="512" y="712" type="line"/>
      <point x="490" y="730"/>
      <point x="458" y="749"/>
    </contour>
    <contour>
      <point x="231" y="538" type="curve" smooth="yes"/>
      <point x="116" y="538"/>
      <point x="41" y="427"/>
      <point x="41" y="259" type="curve" smooth="yes"/>
      <point x="41" y="89"/>
      <point x="116" y="-12"/>
      <point x="237" y="-12" type="curve" smooth="yes"/>
      <point x="290" y="-12"/>
      <point x="334" y="8"/>
      <point x="372" y="46" type="curve"/>
      <point x="331" y="106" type="line"/>
      <point x="301" y="77"/>
      <point x="276" y="63"/>
      <point x="241" y="63" type="curve" smooth="yes"/>
      <point x="176" y="63"/>
      <point x="135" y="121"/>
      <point x="135" y="261" type="curve" smooth="yes"/>
      <point x="135" y="399"/>
      <point x="176" y="466"/>
      <point x="242" y="466" type="curve" smooth="yes"/>
      <point x="284" y="466"/>
      <point x="311" y="452"/>
      <point x="337" y="434" type="curve"/>
      <point x="372" y="482" type="line"/>
      <point x="354" y="496"/>
      <point x="330" y="512"/>
      <point x="299" y="522" type="curve"/>
      <point x="280" y="533"/>
      <point x="258" y="538"/>
    </contour>
  </outline>
</glyph>
<glyph name="Dtopbar" format="2">
  <advance width="579"/>
  <unicode hex="018B"/>
  <anchor x="239" y="0" name="bottom"/>
  <anchor x="239" y="689" name="top"/>
  <outline>
    <contour>
      <point x="89" y="689" type="line"/>
      <point x="89" y="614" type="line"/>
      <point x="325" y="614" type="line"/>
      <point x="403" y="689" type="line"/>
    </contour>
    <component base="Komide-cy" xOffset="3"/>
  </outline>
</glyph>
<glyph name="dtopbar" format="2">
  <advance width="489"/>
  <unicode hex="018C"/>
  <anchor x="244" y="0" name="bottom"/>
  <anchor x="244" y="739" name="top"/>
  <outline>
    <contour>
      <point x="208" y="-12" type="curve" smooth="yes"/>
      <point x="270" y="-12"/>
      <point x="314" y="27"/>
      <point x="340" y="88" type="curve"/>
      <point x="337" y="150" type="line"/>
      <point x="308" y="92"/>
      <point x="279" y="58"/>
      <point x="231" y="58" type="curve" smooth="yes"/>
      <point x="173" y="58"/>
      <point x="138" y="123"/>
      <point x="138" y="263" type="curve" smooth="yes"/>
      <point x="138" y="401"/>
      <point x="177" y="468"/>
      <point x="238" y="468" type="curve" smooth="yes"/>
      <point x="282" y="468"/>
      <point x="311" y="435"/>
      <point x="338" y="386" type="curve"/>
      <point x="338" y="462" type="line"/>
      <point x="310" y="504"/>
      <point x="271" y="538"/>
      <point x="218" y="538" type="curve" smooth="yes"/>
      <point x="110" y="538"/>
      <point x="45" y="422"/>
      <point x="45" y="261" type="curve" smooth="yes"/>
      <point x="45" y="97"/>
      <point x="103" y="-12"/>
    </contour>
    <contour>
      <point x="340" y="0" type="line"/>
      <point x="418" y="0" type="line"/>
      <point x="418" y="739" type="line"/>
      <point x="330" y="739" type="line"/>
      <point x="330" y="123" type="line"/>
      <point x="332" y="89" type="line"/>
    </contour>
    <contour>
      <point x="152" y="671" type="line"/>
      <point x="330" y="671" type="line"/>
      <point x="410" y="739" type="line"/>
      <point x="152" y="739" type="line"/>
    </contour>
  </outline>
</glyph>
<glyph name="deltaturned" format="2">
  <advance width="472"/>
  <unicode hex="018D"/>
  <anchor x="236" y="-201" name="bottom"/>
  <anchor x="236" y="527" name="top"/>
  <outline>
    <contour>
      <point x="86" y="-77" type="curve" smooth="yes"/>
      <point x="86" y="-147"/>
      <point x="137" y="-212"/>
      <point x="239" y="-212" type="curve" smooth="yes"/>
      <point x="303" y="-212"/>
      <point x="348" y="-191"/>
      <point x="386" y="-159" type="curve"/>
      <point x="343" y="-104" type="line"/>
      <point x="311" y="-132"/>
      <point x="284" y="-143"/>
      <point x="246" y="-143" type="curve" smooth="yes"/>
      <point x="194" y="-143"/>
      <point x="174" y="-111"/>
      <point x="174" y="-77" type="curve" smooth="yes"/>
      <point x="174" y="-36"/>
      <point x="190" y="-15"/>
      <point x="270" y="26" type="curve" smooth="yes"/>
      <point x="377" y="81"/>
      <point x="431" y="145"/>
      <point x="431" y="284" type="curve" smooth="yes"/>
      <point x="431" y="422"/>
      <point x="359" y="538"/>
      <point x="236" y="538" type="curve" smooth="yes"/>
      <point x="118" y="538"/>
      <point x="41" y="445"/>
      <point x="41" y="287" type="curve" smooth="yes"/>
      <point x="41" y="162"/>
      <point x="98" y="88"/>
      <point x="182" y="46" type="curve"/>
      <point x="229" y="71" type="line"/>
      <point x="167" y="114"/>
      <point x="134" y="175"/>
      <point x="134" y="287" type="curve" smooth="yes"/>
      <point x="134" y="403"/>
      <point x="167" y="467"/>
      <point x="236" y="467" type="curve" smooth="yes"/>
      <point x="302" y="467"/>
      <point x="338" y="404"/>
      <point x="338" y="284" type="curve" smooth="yes"/>
      <point x="338" y="173"/>
      <point x="309" y="124"/>
      <point x="201" y="74" type="curve" smooth="yes"/>
      <point x="110" y="32"/>
      <point x="86" y="-16"/>
    </contour>
  </outline>
</glyph>
<glyph name="Ereversed" format="2">
  <advance width="432"/>
  <unicode hex="018E"/>
  <outline>
    <contour>
      <point x="43" y="689" type="line"/>
      <point x="43" y="616" type="line"/>
      <point x="267" y="616" type="line"/>
      <point x="267" y="387" type="line"/>
      <point x="80" y="387" type="line"/>
      <point x="80" y="314" type="line"/>
      <point x="267" y="314" type="line"/>
      <point x="267" y="73" type="line"/>
      <point x="38" y="73" type="line"/>
      <point x="38" y="0" type="line"/>
      <point x="358" y="0" type="line"/>
      <point x="358" y="689" type="line"/>
    </contour>
  </outline>
</glyph>
<glyph name="Eopen" format="2">
  <advance width="432"/>
  <unicode hex="0190"/>
  <anchor x="216" y="0" name="bottom"/>
  <anchor x="216" y="689" name="top"/>
  <outline>
    <contour>
      <point x="231" y="700" type="curve" smooth="yes"/>
      <point x="117" y="700"/>
      <point x="51" y="623"/>
      <point x="51" y="525" type="curve" smooth="yes"/>
      <point x="51" y="438"/>
      <point x="95" y="387"/>
      <point x="166" y="369" type="curve"/>
      <point x="92" y="360"/>
      <point x="33" y="305"/>
      <point x="33" y="198" type="curve" smooth="yes"/>
      <point x="33" y="72"/>
      <point x="120" y="-12"/>
      <point x="240" y="-12" type="curve" smooth="yes"/>
      <point x="314" y="-12"/>
      <point x="378" y="18"/>
      <point x="426" y="81" type="curve"/>
      <point x="374" y="133" type="line"/>
      <point x="340" y="90"/>
      <point x="300" y="65"/>
      <point x="246" y="65" type="curve" smooth="yes"/>
      <point x="173" y="65"/>
      <point x="130" y="116"/>
      <point x="130" y="199" type="curve" smooth="yes"/>
      <point x="130" y="280"/>
      <point x="170" y="327"/>
      <point x="250" y="327" type="curve" smooth="yes"/>
      <point x="293" y="327" type="line"/>
      <point x="304" y="402" type="line"/>
      <point x="249" y="402" type="line" smooth="yes"/>
      <point x="186" y="402"/>
      <point x="145" y="445"/>
      <point x="145" y="518" type="curve" smooth="yes"/>
      <point x="145" y="577"/>
      <point x="173" y="626"/>
      <point x="240" y="626" type="curve" smooth="yes"/>
      <point x="285" y="626"/>
      <point x="326" y="603"/>
      <point x="363" y="561" type="curve"/>
      <point x="410" y="616" type="line"/>
      <point x="360" y="671"/>
      <point x="302" y="700"/>
    </contour>
  </outline>
</glyph>
<glyph name="florin" format="2">
  <advance width="290"/>
  <unicode hex="0192"/>
  <outline>
    <contour>
      <point x="230" y="749" type="curve" smooth="yes"/>
      <point x="137" y="749"/>
      <point x="87" y="690"/>
      <point x="87" y="610" type="curve" smooth="yes"/>
      <point x="87" y="0" type="line"/>
      <point x="175" y="66" type="line"/>
      <point x="175" y="611" type="line" smooth="yes"/>
      <point x="175" y="657"/>
      <point x="194" y="678"/>
      <point x="237" y="678" type="curve" smooth="yes"/>
      <point x="262" y="678"/>
      <point x="287" y="673"/>
      <point x="314" y="660" type="curve"/>
      <point x="340" y="722" type="line"/>
      <point x="307" y="739"/>
      <point x="274" y="749"/>
    </contour>
    <contour>
      <point x="281" y="527" type="line"/>
      <point x="14" y="527" type="line"/>
      <point x="14" y="458" type="line"/>
      <point x="271" y="458" type="line"/>
    </contour>
    <contour>
      <point x="175" y="476" type="line"/>
      <point x="87" y="476" type="line"/>
      <point x="87" y="25" type="line" smooth="yes"/>
      <point x="87" y="-88"/>
      <point x="58" y="-115"/>
      <point x="2" y="-147" type="curve"/>
      <point x="29" y="-211" type="line"/>
      <point x="122" y="-162"/>
      <point x="175" y="-117"/>
      <point x="175" y="30" type="curve" smooth="yes"/>
    </contour>
  </outline>
</glyph>
<glyph name="Ghook" format="2">
  <advance width="486"/>
  <unicode hex="0193"/>
  <anchor x="243" y="0" name="bottom"/>
  <anchor x="240" y="689" name="top"/>
  <outline>
    <contour>
      <point x="280" y="-12" type="curve" smooth="yes"/>
      <point x="356" y="-12"/>
      <point x="419" y="12"/>
      <point x="472" y="49" type="curve"/>
      <point x="472" y="381" type="line"/>
      <point x="280" y="381" type="line"/>
      <point x="290" y="307" type="line"/>
      <point x="383" y="307" type="line"/>
      <point x="383" y="95" type="line"/>
      <point x="353" y="72"/>
      <point x="319" y="63"/>
      <point x="284" y="63" type="curve" smooth="yes"/>
      <point x="189" y="63"/>
      <point x="137" y="146"/>
      <point x="137" y="345" type="curve" smooth="yes"/>
      <point x="137" y="550"/>
      <point x="213" y="626"/>
      <point x="295" y="626" type="curve" smooth="yes"/>
      <point x="343" y="626"/>
      <point x="381" y="608"/>
      <point x="421" y="576" type="curve"/>
      <point x="467" y="625" type="line"/>
      <point x="447" y="645"/>
      <point x="425" y="661"/>
      <point x="401" y="663" type="curve"/>
      <point x="370" y="689"/>
      <point x="333" y="700"/>
      <point x="282" y="700" type="curve" smooth="yes"/>
      <point x="160" y="700"/>
      <point x="41" y="577"/>
      <point x="41" y="345" type="curve" smooth="yes"/>
      <point x="41" y="107"/>
      <point x="131" y="-12"/>
    </contour>
    <contour>
      <point x="383" y="663" type="line"/>
      <point x="467" y="625" type="line"/>
      <point x="467" y="685" type="line" smooth="yes"/>
      <point x="467" y="739"/>
      <point x="486" y="760"/>
      <point x="516" y="760" type="curve" smooth="yes"/>
      <point x="542" y="760"/>
      <point x="557" y="751"/>
      <point x="576" y="737" type="curve"/>
      <point x="606" y="794" type="line"/>
      <point x="585" y="812"/>
      <point x="553" y="831"/>
      <point x="509" y="831" type="curve" smooth="yes"/>
      <point x="427" y="831"/>
      <point x="383" y="776"/>
      <point x="383" y="678" type="curve" smooth="yes"/>
    </contour>
  </outline>
</glyph>
<glyph name="Gammaafrican" format="2">
  <advance width="457"/>
  <unicode hex="0194"/>
  <anchor x="228" y="-201" name="bottom"/>
  <anchor x="228" y="689" name="top"/>
  <outline>
    <contour>
      <point x="229" y="-212" type="curve" smooth="yes"/>
      <point x="299" y="-212"/>
      <point x="333" y="-174"/>
      <point x="333" y="-112" type="curve" smooth="yes"/>
      <point x="333" y="-55"/>
      <point x="315" y="-10"/>
      <point x="281" y="68" type="curve"/>
      <point x="230" y="131" type="line"/>
      <point x="98" y="689" type="line"/>
      <point x="1" y="689" type="line"/>
      <point x="178" y="68" type="line"/>
      <point x="229" y="8" type="line"/>
      <point x="245" y="-38"/>
      <point x="256" y="-75"/>
      <point x="256" y="-105" type="curve" smooth="yes"/>
      <point x="256" y="-129"/>
      <point x="247" y="-142"/>
      <point x="229" y="-142" type="curve" smooth="yes"/>
      <point x="212" y="-142"/>
      <point x="203" y="-129"/>
      <point x="203" y="-105" type="curve" smooth="yes"/>
      <point x="203" y="-75"/>
      <point x="214" y="-38"/>
      <point x="229" y="8" type="curve"/>
      <point x="281" y="68" type="line"/>
      <point x="456" y="689" type="line"/>
      <point x="363" y="689" type="line"/>
      <point x="230" y="131" type="line"/>
      <point x="178" y="68" type="line"/>
      <point x="143" y="-16"/>
      <point x="126" y="-65"/>
      <point x="126" y="-113" type="curve" smooth="yes"/>
      <point x="126" y="-174"/>
      <point x="160" y="-212"/>
    </contour>
  </outline>
</glyph>
<glyph name="hv" format="2">
  <advance width="723"/>
  <unicode hex="0195"/>
  <anchor x="361" y="0" name="bottom"/>
  <anchor x="361" y="739" name="top"/>
  <outline>
    <contour>
      <point x="476" y="-12" type="curve" smooth="yes"/>
      <point x="571" y="-12"/>
      <point x="671" y="66"/>
      <point x="671" y="256" type="curve" smooth="yes"/>
      <point x="671" y="358"/>
      <point x="661" y="440"/>
      <point x="649" y="527" type="curve"/>
      <point x="561" y="527" type="line"/>
      <point x="575" y="429"/>
      <point x="582" y="339"/>
      <point x="582" y="263" type="curve" smooth="yes"/>
      <point x="582" y="104"/>
      <point x="527" y="59"/>
      <point x="481" y="59" type="curve" smooth="yes"/>
      <point x="437" y="59"/>
      <point x="411" y="94"/>
      <point x="411" y="170" type="curve" smooth="yes"/>
      <point x="411" y="345" type="line"/>
      <point x="323" y="345" type="line"/>
      <point x="323" y="163" type="line" smooth="yes"/>
      <point x="323" y="48"/>
      <point x="393" y="-12"/>
    </contour>
    <contour>
      <point x="71" y="0" type="line"/>
      <point x="159" y="0" type="line"/>
      <point x="159" y="747" type="line"/>
      <point x="71" y="738" type="line"/>
    </contour>
    <contour>
      <point x="323" y="215" type="line"/>
      <point x="411" y="215" type="line"/>
      <point x="411" y="377" type="line" smooth="yes"/>
      <point x="411" y="477"/>
      <point x="366" y="538"/>
      <point x="288" y="538" type="curve" smooth="yes"/>
      <point x="226" y="538"/>
      <point x="179" y="494"/>
      <point x="145" y="429" type="curve"/>
      <point x="159" y="376" type="line"/>
      <point x="187" y="431"/>
      <point x="218" y="469"/>
      <point x="261" y="469" type="curve" smooth="yes"/>
      <point x="299" y="469"/>
      <point x="323" y="445"/>
      <point x="323" y="365" type="curve" smooth="yes"/>
    </contour>
  </outline>
</glyph>
<glyph name="Iotaafrican" format="2">
  <advance width="366"/>
  <unicode hex="0196"/>
  <anchor x="167" y="0" name="bottom"/>
  <anchor x="112" y="689" name="top"/>
  <outline>
    <contour>
      <point x="157" y="689" type="line"/>
      <point x="66" y="689" type="line"/>
      <point x="66" y="200" type="line"/>
      <point x="157" y="200" type="line"/>
    </contour>
    <component base="hookHELPER.case" xScale="-1" xOffset="324" yOffset="200"/>
  </outline>
</glyph>
<glyph name="Khook" format="2">
  <advance width="510"/>
  <unicode hex="0198"/>
  <anchor x="255" y="0" name="bottom"/>
  <anchor x="255" y="689" name="top"/>
  <outline>
    <contour>
      <point x="165" y="689" type="line"/>
      <point x="74" y="689" type="line"/>
      <point x="74" y="0" type="line"/>
      <point x="165" y="0" type="line"/>
    </contour>
    <contour>
      <point x="372" y="568" type="line" smooth="yes"/>
      <point x="398" y="619"/>
      <point x="413" y="627"/>
      <point x="438" y="627" type="curve" smooth="yes"/>
      <point x="460" y="627"/>
      <point x="472" y="617"/>
      <point x="484" y="607" type="curve"/>
      <point x="513" y="665" type="line"/>
      <point x="493" y="684"/>
      <point x="468" y="700"/>
      <point x="429" y="700" type="curve" smooth="yes"/>
      <point x="371" y="700"/>
      <point x="338" y="674"/>
      <point x="303" y="610" type="curve" smooth="yes"/>
      <point x="169" y="368" type="line"/>
      <point x="383" y="0" type="line"/>
      <point x="492" y="0" type="line"/>
      <point x="270" y="373" type="line"/>
    </contour>
  </outline>
</glyph>
<glyph name="khook" format="2">
  <advance width="512"/>
  <unicode hex="0199"/>
  <outline>
    <contour>
      <point x="413" y="527" type="line"/>
      <point x="318" y="527" type="line"/>
      <point x="164" y="288" type="line"/>
      <point x="326" y="0" type="line"/>
      <point x="429" y="0" type="line"/>
      <point x="259" y="293" type="line"/>
    </contour>
    <contour>
      <point x="159" y="537" type="line"/>
      <point x="71" y="527" type="line"/>
      <point x="71" y="0" type="line"/>
      <point x="159" y="0" type="line"/>
    </contour>
    <component base="hookaboveHELPER" xOffset="46"/>
  </outline>
</glyph>
<glyph name="lambdastroke" format="2">
  <advance width="410"/>
  <unicode hex="019B"/>
  <anchor x="205" y="0" name="bottom"/>
  <anchor x="205" y="739" name="top"/>
  <outline>
    <contour>
      <point x="101" y="-12" type="line"/>
      <point x="207" y="437" type="line"/>
      <point x="248" y="171"/>
      <point x="283" y="84"/>
      <point x="339" y="-12" type="curve"/>
      <point x="422" y="21" type="line"/>
      <point x="364" y="107"/>
      <point x="332" y="188"/>
      <point x="279" y="475" type="curve" smooth="yes"/>
      <point x="245" y="661"/>
      <point x="194" y="723"/>
      <point x="68" y="751" type="curve"/>
      <point x="56" y="683" type="line"/>
      <point x="145" y="664"/>
      <point x="173" y="620"/>
      <point x="194" y="498" type="curve"/>
      <point x="150" y="498" type="line"/>
      <point x="15" y="9" type="line"/>
    </contour>
    <contour>
      <point x="116" y="539" type="line"/>
      <point x="183" y="622" type="line"/>
      <point x="219" y="655" type="line"/>
      <point x="278" y="729" type="line"/>
      <point x="233" y="774" type="line"/>
      <point x="164" y="689" type="line"/>
      <point x="129" y="657" type="line"/>
      <point x="61" y="569" type="line"/>
    </contour>
  </outline>
</glyph>
<glyph name="Mturned" format="2">
  <advance width="759"/>
  <unicode hex="019C"/>
  <anchor x="380" y="0" name="bottom"/>
  <anchor x="380" y="689" name="top"/>
  <outline>
    <contour>
      <point x="467" y="-12" type="curve" smooth="yes"/>
      <point x="526" y="-12"/>
      <point x="570" y="24"/>
      <point x="608" y="97" type="curve"/>
      <point x="594" y="158" type="line"/>
      <point x="561" y="92"/>
      <point x="534" y="63"/>
      <point x="489" y="63" type="curve" smooth="yes"/>
      <point x="445" y="63"/>
      <point x="421" y="109"/>
      <point x="421" y="190" type="curve" smooth="yes"/>
      <point x="421" y="689" type="line"/>
      <point x="330" y="689" type="line"/>
      <point x="330" y="188" type="line" smooth="yes"/>
      <point x="330" y="71"/>
      <point x="379" y="-12"/>
    </contour>
    <contour>
      <point x="606" y="0" type="line"/>
      <point x="685" y="0" type="line"/>
      <point x="685" y="689" type="line"/>
      <point x="594" y="689" type="line"/>
      <point x="594" y="130" type="line"/>
    </contour>
    <contour>
      <point x="203" y="-12" type="curve" smooth="yes"/>
      <point x="261" y="-12"/>
      <point x="306" y="24"/>
      <point x="350" y="98" type="curve"/>
      <point x="332" y="160" type="line"/>
      <point x="297" y="92"/>
      <point x="269" y="63"/>
      <point x="225" y="63" type="curve" smooth="yes"/>
      <point x="181" y="63"/>
      <point x="157" y="109"/>
      <point x="157" y="190" type="curve" smooth="yes"/>
      <point x="157" y="689" type="line"/>
      <point x="66" y="689" type="line"/>
      <point x="66" y="188" type="line" smooth="yes"/>
      <point x="66" y="71"/>
      <point x="115" y="-12"/>
    </contour>
  </outline>
</glyph>
<glyph name="Nhookleft" format="2">
  <advance width="683"/>
  <unicode hex="019D"/>
  <anchor x="280" y="0" name="bottom"/>
  <anchor x="286" y="689" name="top"/>
  <outline>
    <contour>
      <point x="30" y="-212" type="curve" smooth="yes"/>
      <point x="107" y="-212"/>
      <point x="158" y="-161"/>
      <point x="158" y="-60" type="curve" smooth="yes"/>
      <point x="158" y="1" type="line"/>
      <point x="75" y="1" type="line"/>
      <point x="75" y="-66" type="line" smooth="yes"/>
      <point x="75" y="-120"/>
      <point x="55" y="-141"/>
      <point x="23" y="-141" type="curve" smooth="yes"/>
      <point x="-3" y="-141"/>
      <point x="-18" y="-132"/>
      <point x="-36" y="-118" type="curve"/>
      <point x="-69" y="-175" type="line"/>
      <point x="-47" y="-193"/>
      <point x="-15" y="-212"/>
    </contour>
    <component base="N"/>
  </outline>
</glyph>
<glyph name="nlegrightlong" format="2">
  <advance width="586"/>
  <unicode hex="019E"/>
  <anchor x="241" y="0" name="bottom"/>
  <anchor x="245" y="527" name="top"/>
  <anchor x="65" y="527" name="topleft"/>
  <outline>
    <contour>
      <point x="411" y="1" type="line"/>
      <point x="323" y="1" type="line"/>
      <point x="323" y="-201" type="line"/>
      <point x="411" y="-212" type="line"/>
    </contour>
    <component base="n"/>
  </outline>
</glyph>
<glyph name="Oi" format="2">
  <advance width="765"/>
  <unicode hex="01A2"/>
  <anchor x="383" y="-201" name="bottom"/>
  <anchor x="383" y="689" name="top"/>
  <outline>
    <contour>
      <point x="550" y="702" type="curve" smooth="yes"/>
      <point x="497" y="702"/>
      <point x="457" y="683"/>
      <point x="415" y="647" type="curve"/>
      <point x="461" y="602" type="line"/>
      <point x="489" y="622"/>
      <point x="511" y="631"/>
      <point x="541" y="631" type="curve" smooth="yes"/>
      <point x="578" y="631"/>
      <point x="600" y="606"/>
      <point x="600" y="547" type="curve" smooth="yes"/>
      <point x="600" y="-201" type="line"/>
      <point x="691" y="-201" type="line"/>
      <point x="691" y="544" type="line" smooth="yes"/>
      <point x="691" y="647"/>
      <point x="640" y="702"/>
    </contour>
    <contour>
      <point x="284" y="700" type="curve" smooth="yes"/>
      <point x="138" y="700"/>
      <point x="41" y="570"/>
      <point x="41" y="343" type="curve" smooth="yes"/>
      <point x="41" y="112"/>
      <point x="138" y="-12"/>
      <point x="284" y="-12" type="curve" smooth="yes"/>
      <point x="431" y="-12"/>
      <point x="526" y="116"/>
      <point x="526" y="344" type="curve" smooth="yes"/>
      <point x="526" y="576"/>
      <point x="425" y="700"/>
    </contour>
    <contour>
      <point x="284" y="626" type="curve" smooth="yes"/>
      <point x="376" y="626"/>
      <point x="430" y="543"/>
      <point x="430" y="344" type="curve" smooth="yes"/>
      <point x="430" y="143"/>
      <point x="375" y="63"/>
      <point x="284" y="63" type="curve" smooth="yes"/>
      <point x="195" y="63"/>
      <point x="137" y="143"/>
      <point x="137" y="343" type="curve" smooth="yes"/>
      <point x="137" y="543"/>
      <point x="193" y="626"/>
    </contour>
  </outline>
</glyph>
<glyph name="oi" format="2">
  <advance width="656"/>
  <unicode hex="01A3"/>
  <anchor x="328" y="-201" name="bottom"/>
  <anchor x="328" y="527" name="top"/>
  <outline>
    <contour>
      <point x="497" y="-201" type="line"/>
      <point x="585" y="-212" type="line"/>
      <point x="585" y="380" type="line" smooth="yes"/>
      <point x="585" y="482"/>
      <point x="536" y="538"/>
      <point x="450" y="538" type="curve" smooth="yes"/>
      <point x="399" y="538"/>
      <point x="361" y="520"/>
      <point x="318" y="486" type="curve"/>
      <point x="365" y="442" type="line"/>
      <point x="392" y="458"/>
      <point x="413" y="467"/>
      <point x="440" y="467" type="curve" smooth="yes"/>
      <point x="475" y="467"/>
      <point x="497" y="441"/>
      <point x="497" y="383" type="curve" smooth="yes"/>
    </contour>
    <contour>
      <point x="239" y="538" type="curve" smooth="yes"/>
      <point x="114" y="538"/>
      <point x="41" y="426"/>
      <point x="41" y="263" type="curve" smooth="yes"/>
      <point x="41" y="96"/>
      <point x="114" y="-12"/>
      <point x="238" y="-12" type="curve" smooth="yes"/>
      <point x="362" y="-12"/>
      <point x="436" y="100"/>
      <point x="436" y="264" type="curve" smooth="yes"/>
      <point x="436" y="431"/>
      <point x="358" y="538"/>
    </contour>
    <contour>
      <point x="239" y="467" type="curve" smooth="yes"/>
      <point x="306" y="467"/>
      <point x="343" y="402"/>
      <point x="343" y="264" type="curve" smooth="yes"/>
      <point x="343" y="125"/>
      <point x="306" y="59"/>
      <point x="238" y="59" type="curve" smooth="yes"/>
      <point x="171" y="59"/>
      <point x="134" y="125"/>
      <point x="134" y="263" type="curve" smooth="yes"/>
      <point x="134" y="402"/>
      <point x="171" y="467"/>
    </contour>
  </outline>
</glyph>
<glyph name="phook" format="2">
  <advance width="594"/>
  <unicode hex="01A5"/>
  <anchor x="243" y="-201" name="bottom"/>
  <anchor x="243" y="739" name="top"/>
  <outline>
    <contour>
      <point x="280" y="538" type="curve" smooth="yes"/>
      <point x="228" y="538"/>
      <point x="178" y="503"/>
      <point x="145" y="433" type="curve"/>
      <point x="152" y="373" type="line"/>
      <point x="175" y="420"/>
      <point x="210" y="468"/>
      <point x="256" y="468" type="curve" smooth="yes"/>
      <point x="316" y="468"/>
      <point x="348" y="402"/>
      <point x="348" y="264" type="curve" smooth="yes"/>
      <point x="348" y="125"/>
      <point x="312" y="60"/>
      <point x="248" y="60" type="curve" smooth="yes"/>
      <point x="206" y="60"/>
      <point x="174" y="90"/>
      <point x="151" y="141" type="curve"/>
      <point x="151" y="62" type="line"/>
      <point x="178" y="13"/>
      <point x="220" y="-12"/>
      <point x="271" y="-12" type="curve" smooth="yes"/>
      <point x="381" y="-12"/>
      <point x="441" y="103"/>
      <point x="441" y="264" type="curve" smooth="yes"/>
      <point x="441" y="430"/>
      <point x="394" y="538"/>
    </contour>
    <contour>
      <point x="159" y="527" type="line"/>
      <point x="71" y="527" type="line"/>
      <point x="71" y="-212" type="line"/>
      <point x="159" y="-201" type="line"/>
      <point x="159" y="401" type="line"/>
    </contour>
    <component base="hookaboveHELPER" xOffset="46"/>
  </outline>
</glyph>
<glyph name="Yr" format="2">
  <advance width="496"/>
  <unicode hex="01A6"/>
  <anchor x="248" y="-201" name="bottom"/>
  <anchor x="248" y="689" name="top"/>
  <outline>
    <contour>
      <point x="165" y="689" type="line"/>
      <point x="74" y="689" type="line"/>
      <point x="74" y="0" type="line"/>
      <point x="165" y="0" type="line"/>
    </contour>
    <contour>
      <point x="328" y="195" type="line"/>
      <point x="239" y="185" type="line"/>
      <point x="377" y="-123" type="line"/>
      <point x="482" y="-123" type="line"/>
    </contour>
    <contour>
      <point x="152" y="566" type="line"/>
      <point x="152" y="495" type="line"/>
      <point x="231" y="495" type="line" smooth="yes"/>
      <point x="317" y="495"/>
      <point x="355" y="459"/>
      <point x="355" y="372" type="curve" smooth="yes"/>
      <point x="355" y="278"/>
      <point x="313" y="241"/>
      <point x="239" y="241" type="curve" smooth="yes"/>
      <point x="153" y="241" type="line"/>
      <point x="153" y="171" type="line"/>
      <point x="268" y="171" type="line"/>
      <point x="389" y="191"/>
      <point x="451" y="250"/>
      <point x="451" y="372" type="curve" smooth="yes"/>
      <point x="451" y="500"/>
      <point x="377" y="566"/>
      <point x="232" y="566" type="curve" smooth="yes"/>
    </contour>
  </outline>
</glyph>
<glyph name="Tonetwo" format="2">
  <advance width="446"/>
  <unicode hex="01A7"/>
  <anchor x="223" y="0" name="bottom"/>
  <anchor x="223" y="689" name="top"/>
  <outline>
    <contour>
      <point x="234" y="700" type="curve" smooth="yes"/>
      <point x="156" y="700"/>
      <point x="100" y="672"/>
      <point x="49" y="621" type="curve"/>
      <point x="96" y="566" type="line"/>
      <point x="138" y="608"/>
      <point x="177" y="626"/>
      <point x="228" y="626" type="curve" smooth="yes"/>
      <point x="281" y="626"/>
      <point x="318" y="597"/>
      <point x="318" y="529" type="curve" smooth="yes"/>
      <point x="318" y="464"/>
      <point x="294" y="433"/>
      <point x="197" y="396" type="curve" smooth="yes"/>
      <point x="101" y="359"/>
      <point x="31" y="312"/>
      <point x="31" y="184" type="curve" smooth="yes"/>
      <point x="31" y="71"/>
      <point x="109" y="-12"/>
      <point x="229" y="-12" type="curve" smooth="yes"/>
      <point x="316" y="-12"/>
      <point x="381" y="21"/>
      <point x="428" y="77" type="curve"/>
      <point x="380" y="131" type="line"/>
      <point x="339" y="90"/>
      <point x="292" y="63"/>
      <point x="233" y="63" type="curve" smooth="yes"/>
      <point x="173" y="63"/>
      <point x="126" y="104"/>
      <point x="126" y="184" type="curve" smooth="yes"/>
      <point x="126" y="252"/>
      <point x="151" y="293"/>
      <point x="244" y="328" type="curve" smooth="yes"/>
      <point x="357" y="371"/>
      <point x="413" y="421"/>
      <point x="413" y="529" type="curve" smooth="yes"/>
      <point x="413" y="633"/>
      <point x="341" y="700"/>
    </contour>
  </outline>
</glyph>
<glyph name="tonetwo" format="2">
  <advance width="378"/>
  <unicode hex="01A8"/>
  <anchor x="189" y="0" name="bottom"/>
  <anchor x="189" y="527" name="top"/>
  <outline>
    <contour>
      <point x="196" y="538" type="curve" smooth="yes"/>
      <point x="134" y="538"/>
      <point x="83" y="517"/>
      <point x="39" y="479" type="curve"/>
      <point x="74" y="424" type="line"/>
      <point x="112" y="453"/>
      <point x="146" y="468"/>
      <point x="189" y="468" type="curve" smooth="yes"/>
      <point x="234" y="468"/>
      <point x="259" y="441"/>
      <point x="259" y="400" type="curve" smooth="yes"/>
      <point x="259" y="353"/>
      <point x="241" y="330"/>
      <point x="167" y="307" type="curve" smooth="yes"/>
      <point x="77" y="279"/>
      <point x="26" y="238"/>
      <point x="26" y="145" type="curve" smooth="yes"/>
      <point x="26" y="39"/>
      <point x="106" y="-12"/>
      <point x="193" y="-12" type="curve" smooth="yes"/>
      <point x="266" y="-12"/>
      <point x="322" y="17"/>
      <point x="361" y="57" type="curve"/>
      <point x="317" y="110" type="line"/>
      <point x="281" y="78"/>
      <point x="242" y="59"/>
      <point x="196" y="59" type="curve" smooth="yes"/>
      <point x="151" y="59"/>
      <point x="119" y="90"/>
      <point x="119" y="142" type="curve" smooth="yes"/>
      <point x="119" y="195"/>
      <point x="137" y="219"/>
      <point x="220" y="246" type="curve" smooth="yes"/>
      <point x="310" y="276"/>
      <point x="349" y="318"/>
      <point x="349" y="397" type="curve" smooth="yes"/>
      <point x="349" y="478"/>
      <point x="291" y="538"/>
    </contour>
  </outline>
</glyph>
<glyph name="eshreversedloop" format="2">
  <advance width="317"/>
  <unicode hex="01AA"/>
  <anchor x="142" y="-201" name="bottom"/>
  <anchor x="142" y="739" name="top"/>
  <outline>
    <contour>
      <point x="77" y="749" type="curve" smooth="yes"/>
      <point x="6" y="749"/>
      <point x="-45" y="697"/>
      <point x="-45" y="613" type="curve" smooth="yes"/>
      <point x="-45" y="530"/>
      <point x="5" y="479"/>
      <point x="69" y="479" type="curve" smooth="yes"/>
      <point x="109" y="479"/>
      <point x="135" y="497"/>
      <point x="159" y="516" type="curve"/>
      <point x="132" y="562" type="line"/>
      <point x="114" y="552"/>
      <point x="98" y="548"/>
      <point x="82" y="548" type="curve" smooth="yes"/>
      <point x="53" y="548"/>
      <point x="38" y="569"/>
      <point x="38" y="615" type="curve" smooth="yes"/>
      <point x="38" y="655"/>
      <point x="51" y="680"/>
      <point x="77" y="680" type="curve" smooth="yes"/>
      <point x="101" y="680"/>
      <point x="115" y="659"/>
      <point x="115" y="613" type="curve" smooth="yes"/>
      <point x="115" y="0" type="line"/>
      <point x="203" y="0" type="line"/>
      <point x="203" y="606" type="line" smooth="yes"/>
      <point x="203" y="698"/>
      <point x="153" y="749"/>
    </contour>
    <component base="hookHELPER" xScale="-1" xOffset="370"/>
  </outline>
</glyph>
<glyph name="tpalatalhook" format="2">
  <advance width="300"/>
  <unicode hex="01AB"/>
  <anchor x="150" y="-201" name="bottom"/>
  <anchor x="122" y="646" name="top"/>
  <outline>
    <contour>
      <point x="171" y="-212" type="curve" smooth="yes"/>
      <point x="252" y="-212"/>
      <point x="303" y="-161"/>
      <point x="303" y="-59" type="curve" smooth="yes"/>
      <point x="303" y="24" type="line"/>
      <point x="221" y="36" type="line"/>
      <point x="221" y="-66" type="line" smooth="yes"/>
      <point x="221" y="-120"/>
      <point x="201" y="-141"/>
      <point x="166" y="-141" type="curve" smooth="yes"/>
      <point x="139" y="-141"/>
      <point x="123" y="-132"/>
      <point x="104" y="-118" type="curve"/>
      <point x="71" y="-175" type="line"/>
      <point x="93" y="-193"/>
      <point x="126" y="-212"/>
    </contour>
    <contour>
      <point x="166" y="657" type="line"/>
      <point x="78" y="646" type="line"/>
      <point x="78" y="137" type="line" smooth="yes"/>
      <point x="78" y="39"/>
      <point x="123" y="-12"/>
      <point x="195" y="-12" type="curve" smooth="yes"/>
      <point x="214" y="-12"/>
      <point x="229" y="-6"/>
      <point x="241" y="2" type="curve"/>
      <point x="264" y="-1"/>
      <point x="284" y="8"/>
      <point x="303" y="24" type="curve"/>
      <point x="277" y="72" type="line"/>
      <point x="252" y="61"/>
      <point x="235" y="57"/>
      <point x="217" y="57" type="curve" smooth="yes"/>
      <point x="180" y="57"/>
      <point x="166" y="83"/>
      <point x="166" y="137" type="curve" smooth="yes"/>
    </contour>
    <contour>
      <point x="268" y="527" type="line"/>
      <point x="7" y="527" type="line"/>
      <point x="7" y="458" type="line"/>
      <point x="259" y="458" type="line"/>
    </contour>
  </outline>
</glyph>
<glyph name="Thook" format="2">
  <advance width="461"/>
  <unicode hex="01AC"/>
  <anchor x="230" y="0" name="bottom"/>
  <anchor x="230" y="689" name="top"/>
  <outline>
    <contour>
      <point x="455" y="689" type="line"/>
      <point x="153" y="689" type="line"/>
      <point x="152" y="611" type="line"/>
      <point x="202" y="611" type="line"/>
      <point x="202" y="0" type="line"/>
      <point x="293" y="0" type="line"/>
      <point x="293" y="611" type="line"/>
      <point x="446" y="611" type="line"/>
    </contour>
    <contour>
      <point x="7" y="566" type="curve" smooth="yes"/>
      <point x="7" y="524"/>
      <point x="22" y="489"/>
      <point x="38" y="460" type="curve"/>
      <point x="102" y="495" type="line"/>
      <point x="93" y="518"/>
      <point x="86" y="537"/>
      <point x="86" y="563" type="curve" smooth="yes"/>
      <point x="86" y="591"/>
      <point x="100" y="611"/>
      <point x="131" y="611" type="curve" smooth="yes"/>
      <point x="157" y="611" type="line"/>
      <point x="155" y="689" type="line"/>
      <point x="138" y="689" type="line" smooth="yes"/>
      <point x="54" y="689"/>
      <point x="7" y="638"/>
    </contour>
  </outline>
</glyph>
<glyph name="thook" format="2">
  <advance width="300"/>
  <unicode hex="01AD"/>
  <anchor x="150" y="0" name="bottom"/>
  <anchor x="150" y="739" name="top"/>
  <outline>
    <contour>
      <point x="201" y="-12" type="curve" smooth="yes"/>
      <point x="238" y="-12"/>
      <point x="273" y="0"/>
      <point x="303" y="24" type="curve"/>
      <point x="271" y="84" type="line"/>
      <point x="251" y="68"/>
      <point x="234" y="61"/>
      <point x="216" y="61" type="curve" smooth="yes"/>
      <point x="180" y="61"/>
      <point x="166" y="87"/>
      <point x="166" y="141" type="curve" smooth="yes"/>
      <point x="166" y="557" type="line"/>
      <point x="78" y="547" type="line"/>
      <point x="78" y="137" type="line" smooth="yes"/>
      <point x="78" y="39"/>
      <point x="122" y="-12"/>
    </contour>
    <contour>
      <point x="7" y="458" type="line"/>
      <point x="259" y="458" type="line"/>
      <point x="268" y="527" type="line"/>
      <point x="7" y="527" type="line"/>
    </contour>
    <contour>
      <point x="78" y="526" type="line"/>
      <point x="166" y="526" type="line"/>
      <point x="166" y="602" type="line" smooth="yes"/>
      <point x="166" y="657"/>
      <point x="185" y="678"/>
      <point x="214" y="678" type="curve" smooth="yes"/>
      <point x="237" y="678"/>
      <point x="253" y="669"/>
      <point x="272" y="655" type="curve"/>
      <point x="303" y="712" type="line"/>
      <point x="280" y="731"/>
      <point x="249" y="749"/>
      <point x="206" y="749" type="curve" smooth="yes"/>
      <point x="127" y="749"/>
      <point x="78" y="698"/>
      <point x="78" y="595" type="curve" smooth="yes"/>
    </contour>
  </outline>
</glyph>
<glyph name="Upsilonafrican" format="2">
  <advance width="567"/>
  <unicode hex="01B1"/>
  <anchor x="284" y="0" name="bottom"/>
  <anchor x="284" y="689" name="top"/>
  <outline>
    <contour>
      <point x="284" y="-12" type="curve" smooth="yes"/>
      <point x="430" y="-12"/>
      <point x="526" y="119"/>
      <point x="526" y="316" type="curve" smooth="yes"/>
      <point x="526" y="482"/>
      <point x="478" y="562"/>
      <point x="419" y="614" type="curve"/>
      <point x="509" y="614" type="line"/>
      <point x="509" y="689" type="line"/>
      <point x="337" y="689" type="line"/>
      <point x="337" y="614" type="line"/>
      <point x="393" y="550"/>
      <point x="430" y="469"/>
      <point x="430" y="316" type="curve" smooth="yes"/>
      <point x="430" y="146"/>
      <point x="374" y="63"/>
      <point x="284" y="63" type="curve" smooth="yes"/>
      <point x="192" y="63"/>
      <point x="137" y="146"/>
      <point x="137" y="315" type="curve" smooth="yes"/>
      <point x="137" y="469"/>
      <point x="170" y="549"/>
      <point x="231" y="614" type="curve"/>
      <point x="231" y="689" type="line"/>
      <point x="59" y="689" type="line"/>
      <point x="59" y="614" type="line"/>
      <point x="148" y="614" type="line"/>
      <point x="90" y="555"/>
      <point x="41" y="477"/>
      <point x="41" y="315" type="curve" smooth="yes"/>
      <point x="41" y="113"/>
      <point x="134" y="-12"/>
    </contour>
  </outline>
</glyph>
<glyph name="Vhook" format="2">
  <advance width="527"/>
  <unicode hex="01B2"/>
  <anchor x="262" y="0" name="bottom"/>
  <anchor x="262" y="689" name="top"/>
  <outline>
    <contour>
      <point x="472" y="576" type="line"/>
      <point x="381" y="575" type="line"/>
      <point x="381" y="307" type="line" smooth="yes"/>
      <point x="381" y="147"/>
      <point x="333" y="65"/>
      <point x="254" y="65" type="curve" smooth="yes"/>
      <point x="192" y="65"/>
      <point x="157" y="118"/>
      <point x="157" y="214" type="curve" smooth="yes"/>
      <point x="157" y="689" type="line"/>
      <point x="66" y="689" type="line"/>
      <point x="66" y="209" type="line" smooth="yes"/>
      <point x="66" y="83"/>
      <point x="136" y="-12"/>
      <point x="253" y="-12" type="curve" smooth="yes"/>
      <point x="385" y="-12"/>
      <point x="472" y="109"/>
      <point x="472" y="300" type="curve" smooth="yes"/>
    </contour>
    <contour>
      <point x="381" y="575" type="curve"/>
      <point x="472" y="576" type="line"/>
      <point x="472" y="660"/>
      <point x="435" y="700"/>
      <point x="369" y="700" type="curve" smooth="yes"/>
      <point x="342" y="700"/>
      <point x="321" y="693"/>
      <point x="303" y="683" type="curve"/>
      <point x="322" y="620" type="line"/>
      <point x="330" y="625"/>
      <point x="339" y="627"/>
      <point x="351" y="627" type="curve" smooth="yes"/>
      <point x="373" y="627"/>
      <point x="381" y="612"/>
    </contour>
  </outline>
</glyph>
<glyph name="Yhook" format="2">
  <advance width="487"/>
  <unicode hex="01B3"/>
  <anchor x="244" y="0" name="bottom"/>
  <anchor x="244" y="689" name="top"/>
  <anchor x="3" y="689" name="topleft"/>
  <outline>
    <contour>
      <point x="184" y="0" type="line"/>
      <point x="275" y="0" type="line"/>
      <point x="275" y="265" type="line"/>
      <point x="390" y="564" type="line" smooth="yes"/>
      <point x="410" y="617"/>
      <point x="424" y="631"/>
      <point x="449" y="631" type="curve" smooth="yes"/>
      <point x="471" y="631"/>
      <point x="486" y="621"/>
      <point x="499" y="609" type="curve"/>
      <point x="529" y="661" type="line"/>
      <point x="505" y="683"/>
      <point x="479" y="700"/>
      <point x="440" y="700" type="curve" smooth="yes"/>
      <point x="378" y="700"/>
      <point x="343" y="668"/>
      <point x="315" y="588" type="curve" smooth="yes"/>
      <point x="232" y="345" type="line"/>
      <point x="102" y="689" type="line"/>
      <point x="2" y="689" type="line"/>
      <point x="184" y="264" type="line"/>
    </contour>
  </outline>
</glyph>
<glyph name="yhook" format="2">
  <advance width="411"/>
  <unicode hex="01B4"/>
  <anchor x="206" y="-201" name="bottom"/>
  <anchor x="206" y="527" name="top"/>
  <outline>
    <contour>
      <point x="49" y="-212" type="line"/>
      <point x="171" y="-195"/>
      <point x="235" y="-116"/>
      <point x="263" y="6" type="curve" smooth="yes"/>
      <point x="364" y="458" type="line" smooth="yes"/>
      <point x="372" y="492"/>
      <point x="382" y="503"/>
      <point x="400" y="503" type="curve" smooth="yes"/>
      <point x="410" y="503"/>
      <point x="419" y="501"/>
      <point x="427" y="497" type="curve"/>
      <point x="446" y="556" type="line"/>
      <point x="429" y="567"/>
      <point x="410" y="574"/>
      <point x="387" y="574" type="curve" smooth="yes"/>
      <point x="329" y="574"/>
      <point x="301" y="543"/>
      <point x="285" y="465" type="curve" smooth="yes"/>
      <point x="205" y="65" type="line"/>
      <point x="99" y="527" type="line"/>
      <point x="5" y="527" type="line"/>
      <point x="147" y="0" type="line"/>
      <point x="177" y="0" type="line"/>
      <point x="152" y="-83"/>
      <point x="126" y="-124"/>
      <point x="39" y="-143" type="curve"/>
    </contour>
  </outline>
</glyph>
<glyph name="Zstroke" format="2">
  <advance width="522"/>
  <unicode hex="01B5"/>
  <anchor x="216" y="0" name="bottom"/>
  <anchor x="216" y="689" name="top"/>
  <outline>
    <contour>
      <point x="399" y="689" type="line"/>
      <point x="50" y="689" type="line"/>
      <point x="50" y="612" type="line"/>
      <point x="303" y="612" type="line"/>
      <point x="22" y="73" type="line"/>
      <point x="22" y="0" type="line"/>
      <point x="389" y="0" type="line"/>
      <point x="399" y="78" type="line"/>
      <point x="121" y="78" type="line"/>
      <point x="399" y="615" type="line"/>
    </contour>
    <component base="hyphen" xScale="1.2" yScale="0.95" xOffset="15" yOffset="49"/>
  </outline>
</glyph>
<glyph name="zstroke" format="2">
  <advance width="362"/>
  <unicode hex="01B6"/>
  <anchor x="181" y="0" name="bottom"/>
  <anchor x="181" y="527" name="top"/>
  <outline>
    <contour>
      <point x="338" y="527" type="line"/>
      <point x="37" y="527" type="line"/>
      <point x="37" y="452" type="line"/>
      <point x="240" y="452" type="line"/>
      <point x="18" y="66" type="line"/>
      <point x="18" y="0" type="line"/>
      <point x="331" y="0" type="line"/>
      <point x="340" y="74" type="line"/>
      <point x="116" y="74" type="line"/>
      <point x="338" y="459" type="line"/>
    </contour>
    <component base="hyphen" xScale="1.1" yScale="0.9" xOffset="-4" yOffset="-20"/>
  </outline>
</glyph>
<glyph name="Ezh" format="2">
  <advance width="428"/>
  <unicode hex="01B7"/>
  <anchor x="214" y="0" name="bottom"/>
  <anchor x="203" y="689" name="top"/>
  <outline>
    <contour>
      <point x="189" y="-12" type="curve" smooth="yes"/>
      <point x="318" y="-12"/>
      <point x="395" y="75"/>
      <point x="395" y="197" type="curve" smooth="yes"/>
      <point x="395" y="321"/>
      <point x="331" y="396"/>
      <point x="205" y="396" type="curve"/>
      <point x="182" y="396" type="line"/>
      <point x="104" y="329" type="line"/>
      <point x="178" y="329" type="line" smooth="yes"/>
      <point x="259" y="329"/>
      <point x="301" y="293"/>
      <point x="301" y="199" type="curve" smooth="yes"/>
      <point x="301" y="115"/>
      <point x="260" y="63"/>
      <point x="185" y="63" type="curve" smooth="yes"/>
      <point x="130" y="63"/>
      <point x="93" y="83"/>
      <point x="57" y="129" type="curve"/>
      <point x="7" y="78" type="line"/>
      <point x="50" y="17"/>
      <point x="106" y="-12"/>
    </contour>
    <contour>
      <point x="104" y="394" type="line"/>
      <point x="104" y="329" type="line"/>
      <point x="172" y="361" type="line"/>
      <point x="373" y="615" type="line"/>
      <point x="373" y="689" type="line"/>
      <point x="34" y="689" type="line"/>
      <point x="34" y="614" type="line"/>
      <point x="268" y="614" type="line"/>
    </contour>
  </outline>
</glyph>
<glyph name="Ezhreversed" format="2">
  <advance width="428"/>
  <unicode hex="01B8"/>
  <anchor x="215" y="0" name="bottom"/>
  <anchor x="215" y="689" name="top"/>
  <outline>
    <contour>
      <point x="234" y="-12" type="curve" smooth="yes"/>
      <point x="322" y="-12"/>
      <point x="378" y="17"/>
      <point x="421" y="78" type="curve"/>
      <point x="371" y="129" type="line"/>
      <point x="335" y="83"/>
      <point x="297" y="63"/>
      <point x="238" y="63" type="curve" smooth="yes"/>
      <point x="168" y="63"/>
      <point x="127" y="115"/>
      <point x="127" y="192" type="curve" smooth="yes"/>
      <point x="127" y="283"/>
      <point x="168" y="329"/>
      <point x="250" y="329" type="curve" smooth="yes"/>
      <point x="324" y="329" type="line"/>
      <point x="247" y="396" type="line"/>
      <point x="224" y="396" type="line"/>
      <point x="101" y="396"/>
      <point x="33" y="311"/>
      <point x="33" y="190" type="curve" smooth="yes"/>
      <point x="33" y="71"/>
      <point x="111" y="-12"/>
    </contour>
    <contour>
      <point x="324" y="394" type="line"/>
      <point x="161" y="614" type="line"/>
      <point x="395" y="614" type="line"/>
      <point x="395" y="689" type="line"/>
      <point x="56" y="689" type="line"/>
      <point x="56" y="615" type="line"/>
      <point x="256" y="361" type="line"/>
      <point x="324" y="329" type="line"/>
    </contour>
  </outline>
</glyph>
<glyph name="ezhreversed" format="2">
  <advance width="399"/>
  <unicode hex="01B9"/>
  <anchor x="200" y="-201" name="bottom"/>
  <anchor x="200" y="527" name="top"/>
  <outline>
    <contour>
      <point x="221" y="-212" type="curve" smooth="yes"/>
      <point x="302" y="-212"/>
      <point x="357" y="-181"/>
      <point x="401" y="-123" type="curve"/>
      <point x="353" y="-76" type="line"/>
      <point x="314" y="-120"/>
      <point x="277" y="-140"/>
      <point x="225" y="-140" type="curve" smooth="yes"/>
      <point x="155" y="-140"/>
      <point x="115" y="-88"/>
      <point x="115" y="-4" type="curve" smooth="yes"/>
      <point x="115" y="93"/>
      <point x="152" y="140"/>
      <point x="238" y="140" type="curve" smooth="yes"/>
      <point x="304" y="140" type="line"/>
      <point x="231" y="205" type="line"/>
      <point x="212" y="205" type="line"/>
      <point x="92" y="205"/>
      <point x="22" y="126"/>
      <point x="22" y="-6" type="curve" smooth="yes"/>
      <point x="22" y="-125"/>
      <point x="100" y="-212"/>
    </contour>
    <contour>
      <point x="304" y="204" type="line"/>
      <point x="145" y="454" type="line"/>
      <point x="375" y="454" type="line"/>
      <point x="375" y="527" type="line"/>
      <point x="44" y="527" type="line"/>
      <point x="44" y="459" type="line"/>
      <point x="240" y="171" type="line"/>
      <point x="304" y="140" type="line"/>
    </contour>
  </outline>
</glyph>
<glyph name="ezhtail" format="2">
  <advance width="393"/>
  <unicode hex="01BA"/>
  <anchor x="196" y="-201" name="bottom"/>
  <anchor x="184" y="527" name="top"/>
  <outline>
    <contour>
      <point x="137" y="-214" type="curve"/>
      <point x="164" y="-156" type="line"/>
      <point x="128" y="-132"/>
      <point x="109" y="-110"/>
      <point x="109" y="-83" type="curve" smooth="yes"/>
      <point x="109" y="-53"/>
      <point x="130" y="-40"/>
      <point x="209" y="-28" type="curve" smooth="yes"/>
      <point x="302" y="-14"/>
      <point x="373" y="33"/>
      <point x="373" y="136" type="curve" smooth="yes"/>
      <point x="373" y="225"/>
      <point x="317" y="272"/>
      <point x="228" y="272" type="curve" smooth="yes"/>
      <point x="187" y="272" type="line"/>
      <point x="348" y="459" type="line"/>
      <point x="348" y="527" type="line"/>
      <point x="20" y="527" type="line"/>
      <point x="20" y="454" type="line"/>
      <point x="242" y="454" type="line"/>
      <point x="91" y="271" type="line"/>
      <point x="91" y="206" type="line"/>
      <point x="210" y="206" type="line" smooth="yes"/>
      <point x="254" y="206"/>
      <point x="280" y="185"/>
      <point x="280" y="137" type="curve" smooth="yes"/>
      <point x="280" y="72"/>
      <point x="242" y="52"/>
      <point x="161" y="40" type="curve" smooth="yes"/>
      <point x="67" y="26"/>
      <point x="23" y="-9"/>
      <point x="23" y="-76" type="curve" smooth="yes"/>
      <point x="23" y="-133"/>
      <point x="64" y="-178"/>
    </contour>
  </outline>
</glyph>
<glyph name="tonefive" format="2">
  <advance width="375"/>
  <unicode hex="01BD"/>
  <anchor x="187" y="0" name="bottom"/>
  <anchor x="187" y="527" name="top"/>
  <outline>
    <contour>
      <point x="319" y="527" type="line"/>
      <point x="53" y="527" type="line"/>
      <point x="53" y="251" type="line"/>
      <point x="114" y="251" type="line"/>
      <point x="138" y="267"/>
      <point x="154" y="273"/>
      <point x="183" y="273" type="curve" smooth="yes"/>
      <point x="222" y="273"/>
      <point x="253" y="245"/>
      <point x="253" y="174" type="curve" smooth="yes"/>
      <point x="253" y="101"/>
      <point x="218" y="64"/>
      <point x="170" y="64" type="curve" smooth="yes"/>
      <point x="125" y="64"/>
      <point x="102" y="80"/>
      <point x="68" y="111" type="curve"/>
      <point x="22" y="58" type="line"/>
      <point x="61" y="16"/>
      <point x="103" y="-12"/>
      <point x="172" y="-12" type="curve" smooth="yes"/>
      <point x="276" y="-12"/>
      <point x="344" y="63"/>
      <point x="344" y="172" type="curve" smooth="yes"/>
      <point x="344" y="277"/>
      <point x="285" y="345"/>
      <point x="209" y="345" type="curve" smooth="yes"/>
      <point x="174" y="345"/>
      <point x="153" y="335"/>
      <point x="136" y="324" type="curve"/>
      <point x="136" y="454" type="line"/>
      <point x="305" y="454" type="line"/>
    </contour>
  </outline>
</glyph>
<glyph name="glottalinvertedstroke" format="2">
  <advance width="513"/>
  <unicode hex="01BE"/>
  <anchor x="189" y="0" name="bottom"/>
  <anchor x="174" y="739" name="top"/>
  <outline>
    <contour>
      <point x="67" y="614" type="line"/>
      <point x="67" y="546" type="line"/>
      <point x="129" y="546" type="line"/>
      <point x="303" y="546" type="line"/>
      <point x="303" y="614" type="line"/>
    </contour>
    <component base="glottalstopinverted"/>
  </outline>
</glyph>
